<svg xmlns="http://www.w3.org/2000/svg" width="50" height="44" viewBox="0 0 50 44"><g><g><g/><g><path fill="#2564a0" d="M19.726 32.038a.822.822 0 0 1-.534-.197l-5.342-4.548a.826.826 0 0 1 0-1.258l5.342-4.548a.825.825 0 1 1 1.07 1.257l-4.603 3.92 4.603 3.92a.826.826 0 0 1-.536 1.454z"/></g><g><path fill="#2564a0" d="M30.276 32.038a.826.826 0 0 1-.536-1.454l4.603-3.92-4.603-3.92a.825.825 0 0 1 1.07-1.257l5.342 4.548a.825.825 0 0 1 0 1.258L30.81 31.84a.822.822 0 0 1-.534.197z"/></g><g><path fill="#2564a0" d="M23.107 35.447a.826.826 0 0 1-.809-.996l3.329-15.806a.826.826 0 0 1 1.615.34l-3.329 15.807a.826.826 0 0 1-.806.655z"/></g><g><path d="M5.542 44.064A5.549 5.549 0 0 1 0 38.52V5.492A5.549 5.549 0 0 1 5.542-.05h38.916A5.549 5.549 0 0 1 50 5.492v33.03a5.549 5.549 0 0 1-5.543 5.542zm0-42.463a3.896 3.896 0 0 0-3.891 3.891v33.03a3.896 3.896 0 0 0 3.891 3.891h38.916a3.896 3.896 0 0 0 3.891-3.891V5.492a3.896 3.896 0 0 0-3.891-3.891z"/></g><g><path d="M49.175 13.17H.825a.825.825 0 1 1 0-1.65h48.35a.826.826 0 0 1 0 1.65z"/></g><g><path fill="#2564a0" d="M14.102 9.215a2.616 2.616 0 0 1-2.612-2.613 2.616 2.616 0 0 1 2.612-2.612 2.615 2.615 0 0 1 2.613 2.612 2.616 2.616 0 0 1-2.613 2.613zm0-3.574a.963.963 0 0 0-.961.961.962.962 0 1 0 .961-.961z"/></g><g><path fill="#2564a0" d="M6.082 9.195A2.615 2.615 0 0 1 3.47 6.582 2.615 2.615 0 0 1 6.082 3.97a2.615 2.615 0 0 1 2.613 2.612 2.615 2.615 0 0 1-2.613 2.613zm0-3.574a.963.963 0 0 0-.961.961.962.962 0 1 0 .961-.961z"/></g><g><path fill="#2564a0" d="M22.132 9.244a2.615 2.615 0 0 1-2.612-2.612 2.615 2.615 0 0 1 2.612-2.612 2.615 2.615 0 0 1 2.612 2.612 2.615 2.615 0 0 1-2.612 2.612zm0-3.574a.962.962 0 0 0 0 1.923.962.962 0 0 0 0-1.923z"/></g></g></g></svg>