<svg xmlns="http://www.w3.org/2000/svg" width="50" height="50" viewBox="0 0 50 50"><g><g><g/><g><g><path fill="#2c2c2e" d="M12.697 13.673h6.445a.977.977 0 1 0 0-1.953h-6.445a.977.977 0 1 0 0 1.953z"/></g><g><path fill="#2c2c2e" d="M37.306 19.533a.977.977 0 1 0 0-1.953h-24.61a.977.977 0 1 0 0 1.953z"/></g><g><path fill="#2c2c2e" d="M24.997 1.953a.977.977 0 1 0 0-1.953.977.977 0 0 0 0 1.953z"/></g><g><path fill="#2564a0" d="M49.023 0c.54 0 .977.437.977.977v35.156c0 .54-.437.976-.977.976h-13.3a8.29 8.29 0 0 1-.957.957v10.957a.976.976 0 0 1-1.53.806l-3.734-2.561-3.97 2.575a.977.977 0 0 1-1.509-.82V38.066a8.297 8.297 0 0 1-.956-.957H.977A.977.977 0 0 1 0 36.133V.977C0 .437.437 0 .977 0h19.629a.977.977 0 0 1 0 1.953H1.953v33.203h19.875a8.247 8.247 0 0 1-.718-3.907H9.766a.975.975 0 0 1-.977-.976 1.955 1.955 0 0 0-1.953-1.953.977.977 0 0 1-.977-.976V9.766c0-.54.438-.977.977-.977a1.955 1.955 0 0 0 1.953-1.953c0-.54.437-.977.977-.977h30.468c.54 0 .977.438.977.977 0 1.077.876 1.953 1.953 1.953.54 0 .977.437.977.977v17.578c0 .54-.438.976-.977.976a1.955 1.955 0 0 0-1.953 1.953c0 .54-.437.977-.977.977H37.68a8.245 8.245 0 0 1-.719 3.906h11.086V1.953H29.395a.977.977 0 0 1 0-1.953zM29.394 38.086a6.346 6.346 0 0 0 6.348-6.348c0-3.554-2.903-6.347-6.348-6.347-3.441 0-6.347 2.79-6.347 6.347a6.346 6.346 0 0 0 6.347 6.348zM7.814 26.49a3.92 3.92 0 0 1 2.806 2.806H21.46a8.328 8.328 0 0 1 7.934-5.86c3.66 0 6.877 2.421 7.935 5.86h2.052a3.92 3.92 0 0 1 2.806-2.806V10.619a3.92 3.92 0 0 1-2.806-2.806H10.62a3.92 3.92 0 0 1-2.807 2.806zm25 20.679v-7.865a8.247 8.247 0 0 1-3.419.734 8.247 8.247 0 0 1-3.417-.734v7.921l3.008-1.952a.976.976 0 0 1 1.084.014z"/></g></g></g></g></svg>