<svg xmlns="http://www.w3.org/2000/svg" width="30" height="46" viewBox="0 0 30 46"><g><g><path d="M4.94 4.908h9.305a.54.54 0 1 0 0-1.078H4.94a.54.54 0 1 0 0 1.078z"/></g><g><path d="M4.52 8.328h9.725a.539.539 0 0 0 0-1.078H4.518a.539.539 0 1 0 0 1.078z"/></g><g><path d="M4.52 11.758H26.23a.54.54 0 1 0 0-1.078H4.519a.539.539 0 1 0 0 1.078z"/></g><g><path d="M26.231 15.178a.54.54 0 1 0 0-1.078H4.519a.539.539 0 1 0 0 1.078z"/></g><g><path fill="#2564a0" d="M24.797 36.595l.445.38a1.945 1.945 0 0 1 .203 2.761l-.024.028a2.026 2.026 0 0 1-2.257.557c-.06.363-.22.702-.462.979a2.018 2.018 0 0 1-2.096.604c-.05.389-.216.754-.474 1.05a2.018 2.018 0 0 1-2.096.603c-.05.39-.216.755-.474 1.05a2.024 2.024 0 0 1-2.824.213l-.73-.578-.39.536a1.883 1.883 0 0 1-2.74.328 1.872 1.872 0 0 1-.635-1.126l-.001-.01a1.872 1.872 0 0 1-2.175-1.544l-.002-.012a1.868 1.868 0 0 1-2.176-1.543l-.001-.01a1.873 1.873 0 0 1-1.842-2.945l1.23-1.694-.7-.58-.21.398a1.173 1.173 0 0 1-.711.58 1.18 1.18 0 0 1-.916-.102L.796 35.431a1.168 1.168 0 0 1-.469-1.574L1.833 31V2.514A2.08 2.08 0 0 1 3.923.45h22.813a2.08 2.08 0 0 1 2.09 2.064l.156 29.784.712 1.505a1.176 1.176 0 0 1-.602 1.583l-2.046.879a1.194 1.194 0 0 1-1.01-.032 1.179 1.179 0 0 1-.419-.361 4.274 4.274 0 0 1-.82.723zm3.931-2.294a.09.09 0 0 0-.009-.037L23.76 23.78a.107.107 0 0 0-.135-.052l-2.104.821a.098.098 0 0 0-.065.096c0 .013.004.025.01.037l4.66 9.796a.54.54 0 0 1 .097.203l.259.543a.107.107 0 0 0 .14.05l2.046-.879a.1.1 0 0 0 .062-.094zM2.912 28.954l2.86-5.427a1.188 1.188 0 0 1 1.662-.46l1.932 1.165a1.176 1.176 0 0 1 .433 1.556l-.147.278a4.326 4.326 0 0 1 1.66.158 3.325 3.325 0 0 1 1.111-.598l2.028-.636a3.34 3.34 0 0 1 1.9-.03l2.1.585c.83.231 1.39.255 2.194.09l.066-.028-.22-.462a1.174 1.174 0 0 1 .638-1.6l2.103-.821a1.188 1.188 0 0 1 1.503.594l3.158 6.676-.144-27.477a1 1 0 0 0-1.011-.989H3.923a1 1 0 0 0-1.011.986zm5.934-3.67a.096.096 0 0 0-.037-.129L6.876 23.99a.108.108 0 0 0-.086-.011.101.101 0 0 0-.064.051L1.28 34.361a.097.097 0 0 0 .04.13l1.944 1.086a.107.107 0 0 0 .085.009.102.102 0 0 0 .063-.05zM5.694 39.8a.804.804 0 0 0 .52-.32l.008-.01 1.464-2.014.548-.753a.795.795 0 0 0-.776-1.253.805.805 0 0 0-.52.32l-2.02 2.777a.796.796 0 0 0 .776 1.253zm1.581 1.416a.806.806 0 0 0 1.117-.182l.008-.011.993-1.365.46-.634a.795.795 0 0 0-.774-1.253.804.804 0 0 0-.52.319l-1.465 2.014a.793.793 0 0 0 .181 1.113zm2.179 1.556a.805.805 0 0 0 1.114-.181l.009-.012.33-.455.669-.92a.797.797 0 0 0-.181-1.114.805.805 0 0 0-1.115.182l-1.008 1.385a.796.796 0 0 0 .182 1.115zm3.844.613a.794.794 0 0 0-.181-1.114.805.805 0 0 0-1.116.182l-.552.76a.795.795 0 0 0 .776 1.25.805.805 0 0 0 .52-.319zm11.335-4.358a.87.87 0 0 0-.092-1.233l-2.906-2.487a1.197 1.197 0 0 1-.027-.025l-5.532-5.42a1.986 1.986 0 0 0-.853-.492l-.866-.242c-.519.06-.707.841-.737.98a3.128 3.128 0 0 1-1.411 2.406 3.228 3.228 0 0 1-3.096.237l-.133-.058a.539.539 0 0 1-.294-.663l.619-1.87c.13-.395.277-.79.436-1.173l.62-1.496c.05-.117.106-.231.17-.342a3.961 3.961 0 0 0-1.517.12l-3.922 7.4.82.679.154-.212a1.877 1.877 0 0 1 3.341 1.559 1.867 1.867 0 0 1 1.65 2.176 1.867 1.867 0 0 1 1.722 2.18 1.866 1.866 0 0 1 1.718 2.202l.918.727.016.013a.942.942 0 0 0 1.319-.095.909.909 0 0 0-.096-1.293l-.103-.088-.687-.589a.54.54 0 0 1 .7-.819l.791.677.646.553a.942.942 0 0 0 1.32-.095.912.912 0 0 0-.097-1.293l-1.437-1.23a.538.538 0 0 1-.189-.418v-.001a.54.54 0 0 1 .89-.4l2.083 1.784a.942.942 0 0 0 1.319-.095.911.911 0 0 0-.093-1.29l-2.058-1.763-.018-.015-.01-.009a.54.54 0 1 1 .7-.819l2.084 1.784.003.003.786.674a.946.946 0 0 0 1.324-.1l.024-.029zm-.696-3.17c.464-.254.858-.62 1.145-1.065l-3.908-8.212-.159.068a.538.538 0 0 1-.098.03c-1.01.215-1.731.19-2.756-.096l-2.101-.585a2.264 2.264 0 0 0-1.288.02l-2.028.637a2.234 2.234 0 0 0-1.39 1.254l-.618 1.492c-.149.36-.286.729-.408 1.098L9.87 31.88a2.164 2.164 0 0 0 1.744-.264A2.054 2.054 0 0 0 12.547 30a.53.53 0 0 1 .006-.053c.06-.312.167-.612.317-.892.353-.648.902-1.006 1.545-1.009.05 0 .1.007.147.02l.95.266c.497.139.95.4 1.318.76l5.519 5.408z"/></g><g><path fill="#2564a0" d="M5.23 20.46a3.925 3.925 0 0 1-.673-.22.539.539 0 1 1 .425-.99l.01.004c-.006-.744.253-1.385.722-1.755.425-.336 1.09-.489 1.693-.389.454.075.813.287 1.012.595.236.366.24.843.008 1.344a2.72 2.72 0 0 1-.768.968c-.338.26-.737.43-1.16.494.094.111.21.202.34.266.386.183 1.001.13 1.4-.12.194-.137.361-.31.492-.508.208-.276.49-.654 1.01-.64a.95.95 0 0 1 .641.293c.095.09.202.166.317.228.295.154.623.236.956.24.406.006.806-.1 1.155-.307a.539.539 0 1 1 .543.931 3.286 3.286 0 0 1-1.722.453 3.196 3.196 0 0 1-1.442-.367 2.448 2.448 0 0 1-.48-.334c-.037.046-.08.103-.115.15a2.894 2.894 0 0 1-.78.772 2.71 2.71 0 0 1-1.425.397 2.377 2.377 0 0 1-1.013-.214c-.503-.238-.907-.703-1.146-1.29zm.853-.987a1.55 1.55 0 0 0 .911-.304c.402-.315.576-.79.52-.88-.013-.02-.093-.084-.283-.115a1.23 1.23 0 0 0-.2-.016 1.103 1.103 0 0 0-.649.186c-.233.185-.353.638-.299 1.129z"/></g><g><path d="M26.23 19.35h-8.09a.539.539 0 1 0 0 1.078h8.09a.54.54 0 1 0 0-1.078z"/></g></g></svg>