<svg xmlns="http://www.w3.org/2000/svg" width="50" height="50" viewBox="0 0 50 50"><g><g><g/><g><path d="M24.17 13.33h1.667v1.667H24.17z"/></g><g><path d="M18.45 15.313l1.443-.833.834 1.443-1.444.834z"/></g><g><path d="M14.48 19.892l.833-1.442 1.442.833-.833 1.443z"/></g><g><path d="M13.33 24.17h1.667v1.667H13.33z"/></g><g><path d="M35 24.17h1.667v1.667H35z"/></g><g><path d="M33.24 19.273l1.442-.833.833 1.442-1.442.833z"/></g><g><path d="M29.28 15.923l.833-1.443 1.444.833-.834 1.444z"/></g><g><path fill="#2c2c2e" d="M30.59 20.588l-3.34 3.34c.163.334.248.7.25 1.071a2.5 2.5 0 1 1-2.5-2.5c.371.002.737.087 1.071.25l3.34-3.339zM25.833 25a.833.833 0 1 0-1.666 0 .833.833 0 0 0 1.666 0z"/></g><g><path fill="#2564a0" d="M26.425 20.206l.477-1.598a6.666 6.666 0 0 0-8.572 6.39h1.667a5 5 0 0 1 6.428-4.792z"/></g><g><path fill="#2564a0" d="M45.833 0A4.172 4.172 0 0 1 50 4.167v31.666A4.172 4.172 0 0 1 45.833 40H31.777l.625 5h1.765a2.5 2.5 0 0 1 0 5H15.833a2.5 2.5 0 0 1 0-5h1.765l.625-5H4.167A4.172 4.172 0 0 1 0 35.833V4.167A4.172 4.172 0 0 1 4.167 0zM4.167 1.667a2.5 2.5 0 0 0-2.5 2.5v2.5h46.666v-2.5a2.5 2.5 0 0 0-2.5-2.5zm32.37 30a13.334 13.334 0 1 0-23.075 0zm1.215-14.576a14.987 14.987 0 0 1 .677 14.576h9.904V8.333H1.667v23.334h9.904A14.987 14.987 0 0 1 25 10a14.986 14.986 0 0 1 12.752 7.091zm-3.585 29.576H15.833a.833.833 0 0 0 0 1.666h18.334a.833.833 0 0 0 0-1.666zM30.097 40H19.903l-.625 5h11.446zm15.736-1.667a2.5 2.5 0 0 0 2.5-2.5v-2.5H1.667v2.5a2.5 2.5 0 0 0 2.5 2.5z"/></g><g><path d="M43.33 35h1.667v1.667H43.33z"/></g><g><path d="M5 3.33h1.667v1.667H5z"/></g><g><path d="M8.33 3.33h1.667v1.667H8.33z"/></g><g><path d="M11.67 3.33h1.667v1.667H11.67z"/></g></g></g></svg>