<svg xmlns="http://www.w3.org/2000/svg" width="30" height="34" viewBox="0 0 30 34"><g><g><g><path fill="#00346e" d="M29.375 17.607l-5.14 6.828v8.086c0 .36-.287.647-.646.647H.697a.644.644 0 0 1-.647-.647V1.507c0-.36.288-.647.647-.647h19.047c.144 0 .323.072.431.18l3.845 3.845c.108.108.18.252.18.431v9.308l.431-.575c.97-1.294 2.84-1.545 4.133-.575a2.816 2.816 0 0 1 1.15 1.94c.108.755-.108 1.546-.539 2.193zm-9.02-12.902h1.689l-1.69-1.689zm2.623 21.455l-1.114 1.473c-.072.072-.252.18-.252.18s-3.378 1.581-4.492 2.12c-.36.144-1.006-.071-.898-.682.18-1.222.79-4.924.79-4.924s.036-.215.108-.287l5.822-7.763V5.963h-3.198a.644.644 0 0 1-.647-.647V2.118H1.307v29.756h21.635zm-5.355 2.12l2.48-1.186-2.048-1.545zm10.71-11.428c.575-.755.431-1.833-.324-2.372a1.675 1.675 0 0 0-2.372.324l-7.151 9.487 2.695 2.049z"/></g><g><path fill="#00346e" d="M8.42 9.52c0 1.186-.934 2.12-2.12 2.12a2.101 2.101 0 0 1-2.12-2.12c0-1.186.97-2.12 2.12-2.12 1.186 0 2.12.934 2.12 2.12zm-1.257-.036a.874.874 0 0 0-.863-.862.874.874 0 0 0-.862.862c0 .468.395.863.862.863a.875.875 0 0 0 .863-.863z"/></g><g><path fill="#2c2c2e" d="M10.437 10.134h8.984c.36 0 .647-.288.647-.647a.644.644 0 0 0-.647-.647h-8.984a.644.644 0 0 0-.647.647c0 .36.323.647.647.647z"/></g><g><path fill="#00346e" d="M8.42 15.53c0 1.186-.934 2.12-2.12 2.12a2.101 2.101 0 0 1-2.12-2.12c0-1.186.97-2.12 2.12-2.12 1.186 0 2.12.934 2.12 2.12zm-1.257 0a.875.875 0 0 0-.863-.862.875.875 0 0 0-.862.862c0 .468.395.863.862.863.468-.036.863-.395.863-.863z"/></g><g><path fill="#2c2c2e" d="M10.437 16.134h8.984c.36 0 .647-.288.647-.647a.644.644 0 0 0-.647-.647h-8.984a.644.644 0 0 0-.647.647c0 .36.323.647.647.647z"/></g><g><path fill="#00346e" d="M8.42 21.56c0 1.186-.934 2.12-2.12 2.12a2.101 2.101 0 0 1-2.12-2.12c0-1.186.97-2.12 2.12-2.12 1.186 0 2.12.934 2.12 2.12zm-1.257-.036a.874.874 0 0 0-.863-.862.874.874 0 0 0-.862.862c0 .468.395.863.862.863a.874.874 0 0 0 .863-.863z"/></g><g><path fill="#2c2c2e" d="M10.437 22.174h5.75c.36 0 .647-.288.647-.647a.644.644 0 0 0-.647-.647h-5.75a.644.644 0 0 0-.647.647c0 .36.323.647.647.647z"/></g><g><path fill="#00346e" d="M8.42 27.57c0 1.186-.934 2.12-2.12 2.12a2.101 2.101 0 0 1-2.12-2.12c0-1.186.97-2.12 2.12-2.12 1.186 0 2.12.934 2.12 2.12zm-1.257 0a.875.875 0 0 0-.863-.862.875.875 0 0 0-.862.862c0 .467.395.863.862.863.468-.036.863-.395.863-.863z"/></g><g><path fill="#2c2c2e" d="M14.07 26.92h-3.593a.644.644 0 0 0-.647.647c0 .36.287.647.647.647h3.594c.359 0 .646-.288.646-.647a.668.668 0 0 0-.646-.647z"/></g></g></g></svg>