<svg xmlns="http://www.w3.org/2000/svg" width="50" height="36" viewBox="0 0 50 36"><g><g><g><g><path d="M9.373 2.42H7.81v1.465h1.563z"/></g></g></g><g><g><g><path d="M12.502 2.42H10.94v1.465h1.563z"/></g></g></g><g><g><g><path d="M15.623 2.42H14.06v1.465h1.563z"/></g></g></g><g><g><g><path fill="#2c2c2e" d="M22.652 11.8H21.09v1.465h1.563z"/></g></g></g><g><g><g><path fill="#2c2c2e" d="M25.782 11.8H24.22v1.465h1.563z"/></g></g></g><g><g><g><path fill="#2c2c2e" d="M28.902 11.8H27.34v1.465h1.563z"/></g></g></g><g><g><g><path fill="#2c2c2e" d="M42.087 7.89v9.277H7.81V7.89zm-1.465 1.465H9.276v6.347h31.348z"/></g></g></g><g><g><g><path fill="#2c2c2e" d="M42.087 18.83v4.59H32.81v-4.59zm-1.465 1.465h-6.347v1.66h6.348z"/></g></g></g><g><g><g><path fill="#2c2c2e" d="M29.587 18.83v4.59H20.31v-4.59zm-1.465 1.465h-6.347v1.66h6.347z"/></g></g></g><g><g><g><path d="M21.872 31.33H20.31v1.465h1.563z"/></g></g></g><g><g><g><path d="M25.003 31.33H23.44v1.465h1.563z"/></g></g></g><g><g><g><path fill="#2c2c2e" d="M29.685 25.08H20.31v1.465h9.375z"/></g></g></g><g><g><g><path fill="#2c2c2e" d="M42.185 25.08H32.81v1.465h9.375z"/></g></g></g><g><g><g><path fill="#2c2c2e" d="M29.685 28.21H20.31v1.465h9.375z"/></g></g></g><g><g><g><path d="M42.185 28.21H32.81v1.465h9.375z"/></g></g></g><g><g><g><path d="M34.373 31.33H32.81v1.465h1.563z"/></g></g></g><g><g><g><path fill="#2c2c2e" d="M37.502 31.33H35.94v1.465h1.563z"/></g></g></g><g><g><g><path fill="#00346e" d="M50 34.455v1.465H0v-1.465h4.688V.08h40.527v32.715H43.75V6.232H6.152v28.223h1.66V18.83h9.278v13.965h-1.465v-12.5H9.277v14.16zM6.152 4.767H43.75V1.545H6.152z"/></g></g></g><g><g><g><path d="M12.502 21.96H10.94v1.465h1.563z"/></g></g></g><g><g><g><path d="M12.502 25.08H10.94v1.465h1.563z"/></g></g></g><g><g><g><path d="M12.502 28.21H10.94v1.465h1.563z"/></g></g></g><g><g><g><path d="M12.502 31.33H10.94v1.465h1.563z"/></g></g></g></g></svg>