<svg xmlns="http://www.w3.org/2000/svg" width="50" height="50" viewBox="0 0 50 50"><g><g><g/><g><path fill="#2564a0" d="M33.458 35.78l-2.072 2.072 3.966 3.965 6.895-6.895-2.072-2.072-4.823 4.824z"/></g><g><path fill="#2c2c2e" d="M50 36.816C50 44.086 44.086 50 36.816 50s-13.184-5.914-13.184-13.184c0-.368.017-.735.047-1.1-.207.058-.413.112-.62.16-2.679.618-5.497.332-7.455-1.627l-4.143-4.143c-2.536-2.536-2.53-6.983-.087-11.348l-8.812-6.882C-.584 9.43-.883 4.77 1.943 1.944 4.77-.882 9.43-.582 11.874 2.56l6.883 8.815c4.365-2.444 8.813-2.45 11.349.086l4.143 4.143c1.754 1.754 2.331 4.401 1.627 7.455-.048.206-.102.414-.16.62.365-.03.732-.047 1.1-.047 7.27 0 13.184 5.915 13.184 13.184zM9.563 4.361a3.709 3.709 0 1 0-5.2 5.204L18.13 20.316a2.686 2.686 0 0 0 2.185-2.185zM23.34 17.17v.505c0 3.092-2.571 5.663-5.663 5.663h-.504l-3.456-2.753c-1.566 3.02-1.678 5.954-.183 7.448.724.725 1.757 1.068 2.957 1.068 2.52 0 5.774-1.513 8.437-4.175 2.022-2.022 3.425-4.39 3.95-6.67.47-2.033.17-3.71-.843-4.724-1.495-1.495-4.428-1.383-7.448.183zm8.634.3c-.29 2.876-1.846 6.398-4.975 9.528-2.544 2.544-5.99 4.617-9.527 4.974.123.064 1.324 1.88 4.929 1.048 2.28-.526 4.648-1.929 6.67-3.951 2.022-2.022 3.425-4.39 3.951-6.67.834-3.616-.984-4.807-1.048-4.928zm-.831 13.67a19.258 19.258 0 0 1-4.29 3.253c-.192.79-.29 1.601-.29 2.422 0 5.655 4.6 10.254 10.254 10.254s10.254-4.6 10.254-10.254-4.6-10.254-10.254-10.254c-.82 0-1.633.099-2.422.29a19.256 19.256 0 0 1-3.252 4.29z"/></g></g></g></svg>