<svg width="355" height="302" viewBox="0 0 355 302" fill="none" xmlns="http://www.w3.org/2000/svg">
<g clip-path="url(#clip0)">
<path d="M71.5944 95.0112C70.3205 95.0112 69.4712 93.7387 69.8958 92.5511C70.2355 91.4483 70.4054 90.3455 70.1506 89.073C69.5561 85.6797 66.4987 83.2196 63.0166 83.2196H24.6291C21.147 83.2196 18.0047 85.6797 17.4951 89.1578C16.8157 93.5691 20.2128 97.3865 24.4592 97.3865H24.8839C27.7714 97.3865 29.9795 99.7618 29.9795 102.646C29.9795 102.646 29.9795 102.646 29.9795 102.731C29.9795 106.972 33.3767 110.366 37.6231 110.366H71.5944C75.8408 110.366 79.2379 106.972 79.2379 102.731C79.2379 98.4893 75.8408 95.0112 71.5944 95.0112Z" fill="#6E64C3"/>
<path d="M338.099 262.044C338.099 256.615 333.683 252.119 328.163 252.119H204.677V271.885H328.163C333.598 271.885 338.099 267.474 338.099 262.044Z" fill="#6E64C3"/>
<path d="M343.45 271.885H323.916C320.944 271.885 318.566 269.51 318.566 266.54C318.566 263.571 320.944 261.196 323.916 261.196H343.45C346.422 261.196 348.8 263.571 348.8 266.54C348.8 269.51 346.422 271.885 343.45 271.885Z" fill="#6E64C3"/>
<path d="M293.087 233.541C293.087 238.801 288.841 243.042 283.575 243.042H67.0083C61.7428 243.042 57.4963 238.801 57.4963 233.541V83.3045C57.4963 78.0449 61.7428 73.8034 67.0083 73.8034H283.49C288.756 73.8034 293.002 78.0449 293.002 83.3045V233.541H293.087Z" fill="#296AA6" fill-opacity="0.7"/>
<path d="M283.49 83.3045V233.541H67.0083V83.3045H283.49ZM283.49 73.7186H67.0083C61.7428 73.7186 57.4963 77.9601 57.4963 83.2197V233.456C57.4963 238.716 61.7428 242.957 67.0083 242.957H283.49C288.756 242.957 293.002 238.716 293.002 233.456V83.3045C293.087 78.045 288.756 73.7186 283.49 73.7186Z" fill="#1E2D64"/>
<path d="M259.286 222.683C259.286 226.245 256.398 229.13 252.831 229.13H96.988C93.421 229.13 90.5334 226.245 90.5334 222.683V100.78C90.5334 97.2169 93.421 94.3326 96.988 94.3326H252.831C256.398 94.3326 259.286 97.2169 259.286 100.78V222.683Z" fill="white"/>
<path d="M252.831 94.2478H96.988C93.421 94.2478 90.5334 97.132 90.5334 100.695V112.571H259.286V100.695C259.286 97.132 256.398 94.2478 252.831 94.2478Z" fill="#00CFFF"/>
<path opacity="0.4" d="M150.578 231.42L95.3744 215.472C93.6758 214.963 92.7416 213.266 93.2512 211.57L117.541 127.502C118.05 125.805 119.749 124.872 121.447 125.381L176.651 141.329C178.349 141.838 179.283 143.535 178.774 145.231L154.484 229.299C153.975 230.911 152.191 231.929 150.578 231.42Z" fill="#6C9BAA"/>
<path d="M148.709 227.942L93.506 211.994C91.8074 211.485 90.8732 209.788 91.3828 208.092L115.672 124.024C116.182 122.327 117.88 121.394 119.579 121.903L174.782 137.851C176.481 138.36 177.415 140.057 176.905 141.753L152.616 225.821C152.106 227.433 150.408 228.451 148.709 227.942Z" fill="#6E64C3"/>
<path d="M165.27 128.689V221.071H103.018V128.689H165.27ZM166.035 128.011H102.253V221.834H166.035V128.011Z" fill="#D2AFFF"/>
<path d="M237.544 99.677H248.075" stroke="#8841E6" stroke-width="2.8043" stroke-miterlimit="10" stroke-linecap="round"/>
<path d="M237.544 103.834H248.075" stroke="#8841E6" stroke-width="2.8043" stroke-miterlimit="10" stroke-linecap="round"/>
<path d="M237.544 107.99H248.075" stroke="#8841E6" stroke-width="2.8043" stroke-miterlimit="10" stroke-linecap="round"/>
<path d="M222.087 107.99H150.663C148.37 107.99 146.501 106.124 146.501 103.834C146.501 101.543 148.37 99.677 150.663 99.677H222.087C224.38 99.677 226.249 101.543 226.249 103.834C226.249 106.124 224.38 107.99 222.087 107.99Z" fill="#8841E6"/>
<path d="M100.81 101.543L96.988 105.361" stroke="white" stroke-width="1.8724" stroke-miterlimit="10" stroke-linecap="round"/>
<path d="M100.81 105.361L96.988 101.543" stroke="white" stroke-width="1.8724" stroke-miterlimit="10" stroke-linecap="round"/>
<path d="M117.031 105.361C116.012 105.361 115.163 104.512 115.163 103.494C115.163 102.476 116.012 101.628 117.031 101.628C118.05 101.628 118.899 102.476 118.899 103.494C118.899 104.512 118.05 105.361 117.031 105.361Z" stroke="white" stroke-width="1.8724" stroke-miterlimit="10" stroke-linecap="round"/>
<path d="M105.651 103.41H109.727" stroke="white" stroke-width="1.8724" stroke-miterlimit="10" stroke-linecap="round"/>
<path d="M218.096 243.042H138.518V261.111H218.096V243.042Z" fill="#0F1446"/>
<path d="M242.81 271.885H112.615C112.615 265.947 117.456 261.111 123.401 261.111H232.109C237.969 261.196 242.81 265.947 242.81 271.885Z" fill="#1E2D64"/>
<path d="M228.372 175.347H181.916C179.538 175.347 177.67 173.48 177.67 171.105C177.67 168.73 179.538 166.863 181.916 166.863H228.372C230.75 166.863 232.619 168.73 232.619 171.105C232.619 173.395 230.75 175.347 228.372 175.347Z" stroke="#D2AFFF" stroke-width="0.8641" stroke-miterlimit="10"/>
<path d="M228.372 190.701H181.916C179.538 190.701 177.67 188.835 177.67 186.46C177.67 184.084 179.538 182.218 181.916 182.218H228.372C230.75 182.218 232.619 184.084 232.619 186.46C232.619 188.835 230.75 190.701 228.372 190.701Z" stroke="#D2AFFF" stroke-width="0.8641" stroke-miterlimit="10"/>
<path d="M242.725 175.347C240.347 175.347 238.479 173.48 238.479 171.105C238.479 168.73 240.347 166.863 242.725 166.863C245.103 166.863 246.971 168.73 246.971 171.105C246.971 173.395 245.103 175.347 242.725 175.347Z" stroke="#D2AFFF" stroke-width="0.8641" stroke-miterlimit="10"/>
<path d="M242.725 190.701C240.347 190.701 238.479 188.835 238.479 186.46C238.479 184.084 240.347 182.218 242.725 182.218C245.103 182.218 246.971 184.084 246.971 186.46C246.971 188.835 245.103 190.701 242.725 190.701Z" stroke="#D2AFFF" stroke-width="0.8641" stroke-miterlimit="10"/>
<path d="M232.619 202.578C232.619 204.953 230.75 206.819 228.372 206.819H181.916C179.538 206.819 177.67 204.953 177.67 202.578C177.67 200.202 179.538 198.336 181.916 198.336H228.372C230.75 198.336 232.619 200.287 232.619 202.578Z" stroke="#D2AFFF" stroke-width="0.8641" stroke-miterlimit="10"/>
<path d="M232.619 218.017C232.619 220.392 230.75 222.258 228.372 222.258H181.916C179.538 222.258 177.67 220.392 177.67 218.017C177.67 215.642 179.538 213.775 181.916 213.775H228.372C230.75 213.775 232.619 215.642 232.619 218.017Z" stroke="#D2AFFF" stroke-width="0.8641" stroke-miterlimit="10"/>
<path d="M242.725 206.819C240.347 206.819 238.479 204.953 238.479 202.578C238.479 200.202 240.347 198.336 242.725 198.336C245.103 198.336 246.971 200.202 246.971 202.578C246.971 204.953 245.103 206.819 242.725 206.819Z" stroke="#D2AFFF" stroke-width="0.8641" stroke-miterlimit="10"/>
<path d="M246.971 218.017C246.971 220.392 245.103 222.258 242.725 222.258C240.347 222.258 238.479 220.392 238.479 218.017C238.479 215.642 240.347 213.775 242.725 213.775C245.103 213.775 246.971 215.642 246.971 218.017Z" stroke="#D2AFFF" stroke-width="0.8641" stroke-miterlimit="10"/>
<path d="M253.935 285.034H310.667" stroke="#41378C" stroke-width="1.7282" stroke-miterlimit="10"/>
<path d="M128.751 271.97H11.2954" stroke="#41378C" stroke-width="1.7282" stroke-miterlimit="10" stroke-linecap="round"/>
<path d="M89.7693 207.583C90.7884 210.043 93.0815 213.945 95.7992 216.151C98.8566 218.611 101.999 218.271 105.226 216.151C105.566 215.896 105.906 216.066 106.076 216.32C106.245 216.575 106.16 216.914 105.991 217.084C98.6868 224.04 90.2789 217.932 85.7777 209.364C84.4188 206.819 88.3255 204.698 89.6844 207.328C89.6844 207.498 89.7693 207.498 89.7693 207.583Z" fill="#FA968C"/>
<path d="M92.317 212.333C92.317 212.248 92.317 212.248 92.317 212.333C90.6184 209.788 90.1088 208.261 89.5992 207.413C89.0048 206.31 87.7308 205.886 86.6268 206.48C85.5227 207.074 85.098 208.346 85.6925 209.449C86.6268 211.23 87.561 212.588 88.5801 213.86C89.0048 213.521 91.5526 212.588 92.317 212.333Z" fill="#FA870A"/>
<path d="M88.9199 222.852C89.7692 222.852 90.5336 222.174 90.5336 221.24C90.5336 220.222 90.6185 219.12 90.5336 218.017C90.1938 214.199 89.8541 210.297 89.6843 208.092C89.5993 206.989 88.6651 206.225 87.646 206.225H80.597C79.408 206.225 78.4738 207.158 78.4738 208.346C78.3888 211.146 78.219 216.405 77.8793 221.071C77.7943 222.004 78.5587 222.852 79.4929 222.852H88.9199Z" fill="#FAB9AF"/>
<path d="M86.7118 269.51C85.9474 268.661 85.7776 266.71 85.7776 264.929C85.7776 263.911 84.4187 263.487 83.8242 264.25V269.764C84.8434 270.103 86.0323 270.103 86.7118 269.51Z" fill="#FA968C"/>
<path d="M86.5419 269.51C86.5419 269.425 86.5419 269.425 86.5419 269.51C86.0324 269.679 85.5228 269.764 85.0132 269.764C84.5036 269.764 84.079 269.679 83.6544 269.594L83.3996 270.867C83.3146 271.206 83.5694 271.546 83.9941 271.546C85.7776 271.63 90.3637 271.715 90.4486 271.546C91.0431 270.528 88.4953 270.188 86.5419 269.51Z" fill="#46738C"/>
<path d="M83.4844 247.453C83.2296 249.15 83.2296 259.754 83.5693 265.183H85.8624C87.0514 259.924 88.0705 249.744 88.3253 248.132C88.3253 248.132 88.3253 248.132 88.3253 248.047C89.5992 242.363 90.2787 231.42 90.1937 229.13C90.1088 226.076 88.1554 223.701 85.7775 223.785C83.3995 223.87 81.616 226.33 81.616 229.384C81.7009 231.251 83.5693 246.69 83.4844 247.453Z" fill="#FF595F"/>
<path d="M90.1937 229.215C90.1088 226.161 88.1554 223.785 85.7774 223.87C83.3995 223.955 81.616 226.415 81.616 229.469C81.616 230.826 82.6351 239.31 83.1447 244.145C83.6542 243.042 84.1638 241.939 84.5885 240.836C84.8432 237.019 86.9664 233.541 90.1088 231.251C90.1937 230.317 90.1937 229.554 90.1937 229.215Z" fill="#177D74"/>
<path d="M73.2081 268.746C73.0382 267.134 73.8026 265.268 74.482 263.487C74.0574 262.553 72.7834 262.638 72.3588 263.487L70.915 266.71C70.8301 266.795 70.8301 266.965 70.915 267.049C71.4246 268.067 72.5286 268.661 73.2081 268.746Z" fill="#FAB9AF"/>
<path d="M74.4821 269.849C73.8876 269.594 73.5479 269.085 73.2931 268.576C72.189 268.237 71.4247 267.474 71.0001 266.54C70.7453 266.71 70.5754 266.965 70.4056 267.134C70.2357 267.389 69.9809 267.813 69.7261 268.067C69.5563 268.237 69.6412 268.492 69.8111 268.661L70.6603 269.51C70.8302 269.679 72.4438 271.037 72.8685 271.121C73.9725 271.291 75.9259 271.461 76.0108 271.206C76.0957 270.697 75.2465 270.188 74.4821 269.849Z" fill="#46738C"/>
<path d="M77.4547 246.096C76.8602 247.369 73.3782 258.481 72.1042 263.826C72.6987 264.335 73.3782 264.759 74.1425 264.674C76.3507 260.433 81.5313 251.101 82.4655 248.98C84.249 246.351 86.2023 231.335 86.1174 228.536C86.0325 225.482 84.0791 223.107 81.7011 223.192C79.3231 223.276 77.115 225.652 77.115 228.706C77.1999 230.657 77.7944 245.248 77.4547 246.096Z" fill="#FF595F"/>
<path d="M87.646 206.225H86.5419C86.1173 207.158 85.268 207.837 83.9941 207.837C82.7201 207.837 81.8709 207.158 81.4462 206.225H80.4271C79.323 206.225 78.4737 207.074 78.4737 208.092C78.3888 210.891 78.3039 214.454 77.9642 219.289C77.7094 223.701 76.6902 225.058 77.1998 230.657C77.1998 230.657 86.7118 231.59 90.1938 229.808C90.7034 225.821 90.8732 221.834 90.5335 218.017C90.1938 214.199 89.8541 210.297 89.6843 208.007C89.5993 207.074 88.75 206.225 87.646 206.225Z" fill="#FFA50A"/>
<path d="M107.349 215.387C107.349 215.387 105.481 215.217 105.311 215.726C105.056 216.235 104.971 216.66 105.821 217.084C106.585 217.423 107.859 217.593 108.623 217.508C109.388 217.423 110.662 216.829 110.746 216.66C111.086 216.066 109.727 216.32 109.048 216.405C108.368 216.49 107.604 216.575 107.689 216.235C107.774 215.896 109.048 215.811 109.218 215.472C109.218 215.133 107.349 215.387 107.349 215.387Z" fill="#FA968C"/>
<path d="M82.1256 208.516C85.183 215.387 100.13 214.878 104.632 214.963C104.971 214.963 105.226 215.217 105.226 215.642C105.226 216.405 104.292 216.32 101.234 216.914C80.2571 220.986 74.3122 207.158 79.4079 206.565C81.0215 206.31 82.1256 208.516 82.1256 208.516Z" fill="#FAB9AF"/>
<path d="M84.4187 211.061C82.3804 209.619 82.0407 208.176 82.0407 208.176V208.261L81.8709 207.922C81.3613 206.734 80.0024 206.056 78.7285 206.565C78.7285 206.565 78.7285 206.565 78.6436 206.565C77.1998 207.158 77.4546 208.94 77.4546 208.94C77.4546 209.194 77.9642 211.994 81.3613 214.539C81.4462 214.454 84.6735 211.23 84.4187 211.061Z" fill="#FA870A"/>
<path d="M82.8901 203.002H82.7202C81.7011 203.002 80.8518 202.153 80.8518 201.135V198.421H82.8052V203.002H82.8901Z" fill="#3C5A73"/>
<path d="M85.4378 206.225H81.7859L82.805 202.578L85.3529 202.917L85.4378 206.225Z" fill="#FAB9AF"/>
<path d="M85.3528 202.917L82.8899 202.578L82.3804 204.274C82.9749 204.868 83.7392 205.886 84.6734 205.886C84.9282 205.886 85.2679 205.801 85.4378 205.631L85.3528 202.917Z" fill="#FA968C"/>
<path d="M84.5887 204.613C82.8901 204.613 81.5312 203.256 81.5312 201.56V198.166H86.7968C86.7968 198.166 86.7968 200.796 86.3722 202.578C86.1174 203.935 85.4379 204.613 84.5887 204.613Z" fill="#FAB9AF"/>
<path d="M82.4652 200.881C82.4652 201.56 82.1255 202.069 81.7858 202.069C81.3612 202.069 80.9365 201.22 80.9365 200.542C80.9365 199.863 81.3612 199.693 81.7858 199.693C82.1255 199.693 82.4652 200.202 82.4652 200.881Z" fill="#FAB9AF"/>
<path d="M87.3064 196.47C87.3064 196.47 86.1174 196.809 84.5886 196.639H82.8052C81.7011 196.639 80.8518 197.488 80.8518 198.59V199.015L81.4463 199.778L82.0408 200.626H82.1257C82.4654 200.626 82.7202 200.372 82.7202 200.033C82.7202 199.524 83.1449 199.015 83.6544 199.015H85.2681C86.2023 199.015 86.7119 199.524 86.7119 200.202L86.6269 200.796C86.7119 200.796 88.0707 199.608 87.3064 196.47Z" fill="#3C5A73"/>
<path d="M106.076 215.048C106.076 215.048 104.292 214.624 103.952 215.048C103.613 215.557 103.528 215.981 104.207 216.405C104.887 216.914 106.16 217.253 106.925 217.338C107.689 217.423 109.048 216.999 109.133 216.829C109.558 216.32 108.114 216.32 107.434 216.32C106.755 216.32 105.991 216.235 106.076 215.896C106.16 215.557 107.434 215.726 107.689 215.387C107.944 215.048 106.076 215.048 106.076 215.048Z" fill="#FAB9AF"/>
<path d="M176.141 192.058C174.358 192.992 172.234 192.398 171.045 190.786C168.498 187.478 167.988 179.249 167.818 175.007C167.818 174.244 168.922 174.074 169.092 174.838C169.602 177.298 170.026 179.419 170.536 181.454C171.045 183.236 172.914 189.768 174.443 188.75C176.396 187.478 178.349 181.709 178.094 182.557C178.519 181.454 179.793 180.861 180.897 181.285C182.001 181.709 182.596 182.981 182.171 184.084C181.916 185.017 179.368 190.447 176.141 192.058Z" fill="#FA968C"/>
<path d="M175.547 187.223C176.056 186.46 176.481 185.696 176.99 184.933C177.415 184.169 177.84 183.321 178.179 182.557C178.179 182.472 178.264 182.472 178.264 182.388C178.859 181.285 180.133 180.861 181.237 181.455C182.341 182.048 182.765 183.321 182.171 184.424C181.661 185.442 181.152 186.29 180.557 187.138C180.133 187.732 179.623 188.665 179.198 189.174C176.396 189.005 175.462 187.223 175.547 187.223Z" fill="#FFA0BE"/>
<path d="M177.755 202.832C177.839 203.256 178.094 203.595 178.519 203.765C181.237 204.698 185.313 205.122 189.729 205.547C190.409 205.631 190.918 205.122 190.918 204.444C190.918 202.662 190.154 199.354 189.984 195.961C189.729 191.804 189.56 187.223 189.475 184.254C189.39 182.472 187.946 181.115 186.247 181.115H181.322C179.623 181.115 178.264 182.388 178.179 183.999C178.009 186.29 177.755 189.598 177.415 192.907C177.075 196.13 177.585 201.051 177.755 202.832Z" fill="#FAB9AF"/>
<path d="M184.039 239.225V243.551L184.379 245.672C184.464 246.011 184.209 246.351 183.784 246.351C182.001 246.435 177.415 246.52 177.33 246.351C176.735 245.417 179.368 245.078 181.237 244.315C183.105 243.551 181.831 236.34 181.831 236.34L184.039 239.225Z" fill="#FA968C"/>
<path d="M181.237 244.399C181.322 244.399 181.322 244.399 181.237 244.399C181.746 244.569 182.256 244.654 182.765 244.654C183.275 244.654 183.7 244.569 184.124 244.484L184.379 245.757C184.464 246.096 184.209 246.435 183.784 246.435C182.001 246.52 177.415 246.605 177.33 246.435C176.82 245.502 179.368 245.163 181.237 244.399Z" fill="#F57A2F"/>
<path d="M177.67 204.104C177.585 207.158 178.774 226.33 181.152 226.33C183.53 226.415 186.163 207.328 186.163 204.274C186.248 201.22 184.379 198.76 182.001 198.675C179.708 198.675 177.755 201.051 177.67 204.104Z" fill="#0091C8"/>
<path d="M184.379 222.343C184.634 224.04 184.634 234.644 184.294 240.073H182.171C180.982 234.813 179.793 224.634 179.538 223.022C179.538 223.022 179.538 223.022 179.538 222.937C178.264 217.253 177.585 206.31 177.67 204.02C177.755 200.966 179.708 198.59 182.086 198.675C184.464 198.76 186.247 201.22 186.247 204.274C186.163 206.225 184.294 221.58 184.379 222.343Z" fill="#0073AA"/>
<path d="M183.19 215.387C183.7 216.66 184.209 217.932 184.634 219.204C185.143 214.369 186.162 205.631 186.162 204.274C186.247 201.22 184.379 198.76 182.001 198.675C179.623 198.59 177.67 201.051 177.585 204.02C177.585 204.444 177.585 205.122 177.585 206.056C180.727 208.346 182.85 211.654 183.19 215.387Z" fill="#00558C"/>
<path d="M189.22 239.225V243.551L189.56 245.672C189.645 246.011 189.39 246.351 188.965 246.351C187.182 246.435 182.596 246.52 182.511 246.351C181.916 245.417 184.549 245.078 186.417 244.315C188.286 243.551 187.012 236.34 187.012 236.34L189.22 239.225Z" fill="#FA968C"/>
<path d="M186.417 244.399C186.927 244.569 187.436 244.654 187.946 244.654C188.456 244.654 188.88 244.569 189.305 244.484L189.56 245.757C189.645 246.096 189.39 246.435 188.965 246.435C187.182 246.52 182.596 246.605 182.511 246.435C181.916 245.502 184.549 245.163 186.417 244.399Z" fill="#FF8C46"/>
<path d="M182.765 204.104C182.681 207.158 183.87 226.33 186.248 226.33C188.626 226.415 190.749 207.243 190.749 204.189C190.834 201.135 189.475 198.76 187.097 198.675C184.804 198.675 182.85 201.051 182.765 204.104Z" fill="#0091C8"/>
<path d="M189.475 222.343C189.729 224.04 189.729 234.644 189.39 240.073H187.267C186.078 234.813 184.889 224.634 184.634 223.022C184.634 223.022 184.634 223.022 184.634 222.937C183.36 217.253 182.171 206.225 182.256 204.02C182.341 200.966 184.804 198.675 187.182 198.675C189.56 198.76 190.833 201.135 190.833 204.189C190.749 206.14 189.39 221.58 189.475 222.343Z" fill="#0091C8"/>
<path d="M178.179 182.981C178.264 181.963 179.114 181.115 180.218 181.115H181.322C181.746 182.048 182.596 182.727 183.87 182.727C185.143 182.727 185.993 182.048 186.417 181.115H187.437C188.541 181.115 189.39 181.963 189.39 182.981C189.475 185.781 189.56 189.938 189.899 194.773C190.154 199.184 191.428 201.135 190.834 205.547C190.834 205.547 179.368 206.395 177.415 204.189C177.16 201.899 177.075 196.639 177.33 192.822C177.67 189.174 178.01 185.187 178.179 182.981Z" fill="#FF82AA"/>
<path d="M167.223 173.311C167.223 173.311 167.308 175.431 167.818 175.771C168.327 176.025 168.667 175.94 169.092 175.262C169.601 174.498 169.686 173.226 169.686 172.462C169.686 172.038 169.092 170.342 169.007 170.257C168.497 169.917 168.752 171.444 168.837 172.123C168.837 172.802 168.667 173.141 168.327 173.056C167.988 172.971 168.073 171.953 167.733 171.699C167.223 171.614 167.223 173.311 167.223 173.311Z" fill="#FA968C"/>
<path d="M189.814 184.763C183.615 193.161 172.149 198.081 163.487 189.938C162.977 189.429 163.572 188.58 164.251 188.92C168.243 191.21 171.895 192.228 176.481 190.277C180.302 188.665 183.784 185.442 186.162 182.133L186.247 182.048C188.031 179.843 191.513 182.388 189.814 184.763Z" fill="#FAB9AF"/>
<path d="M183.02 185.696C184.464 184.339 186.417 181.794 186.417 181.794C186.417 181.794 187.267 180.776 189.135 181.539C190.579 182.133 190.324 183.915 190.324 183.915C190.324 184.169 189.814 186.969 186.417 189.513C186.417 189.429 183.7 188.156 183.02 185.696Z" fill="#FFA0BE"/>
<path d="M184.124 178.57H184.294C185.313 178.825 186.332 178.146 186.502 177.128L187.097 174.414L185.143 173.989L184.124 178.57Z" fill="#3C5A73"/>
<path d="M182.426 181.2H186.078L185.059 177.467L182.511 177.807L182.426 181.2Z" fill="#FAB9AF"/>
<path d="M182.511 177.807L184.974 177.467L185.483 179.164C184.889 179.758 184.124 180.776 183.19 180.776C182.935 180.776 182.596 180.691 182.426 180.521L182.511 177.807Z" fill="#FA968C"/>
<path d="M182.171 179.758C183.784 180.097 185.483 179.079 185.823 177.467L186.587 174.159L181.491 173.056C181.491 173.056 180.897 175.686 180.897 177.467C180.812 178.825 181.322 179.588 182.171 179.758Z" fill="#FAB9AF"/>
<path d="M185.058 176.619C184.889 177.298 185.143 177.892 185.483 177.976C185.908 178.061 186.502 177.298 186.587 176.619C186.757 175.94 186.332 175.686 185.993 175.601C185.653 175.516 185.228 175.94 185.058 176.619Z" fill="#FAB9AF"/>
<path d="M180.727 174.244C180.727 173.82 180.812 173.396 180.897 172.971C181.322 171.953 182.426 171.529 183.445 171.869C183.53 171.869 183.7 171.953 183.784 171.953L185.483 172.378C186.502 172.632 187.182 173.65 186.927 174.668L186.842 175.092L186.078 175.686L185.398 176.365H185.313C184.973 176.28 184.804 175.94 184.804 175.686C184.889 175.177 184.634 174.583 184.124 174.498L182.595 174.159C181.661 173.989 181.067 174.329 180.897 175.007L180.812 175.601L180.727 174.244Z" fill="#3C5A73"/>
<path d="M162.977 187.987C162.977 187.987 163.147 189.853 163.657 189.938C164.251 190.107 164.676 190.107 164.93 189.259C165.185 188.411 165.1 187.138 164.93 186.46C164.761 185.696 163.911 184.593 163.741 184.508C163.147 184.254 163.572 185.611 163.826 186.29C164.081 186.969 164.166 187.647 163.826 187.732C163.487 187.732 163.232 186.46 162.807 186.375C162.383 186.12 162.977 187.987 162.977 187.987Z" fill="#FAB9AF"/>
<path d="M185.653 194.01L199.836 271.885" stroke="#41B4E6" stroke-width="1.2962" stroke-miterlimit="10" stroke-linecap="round"/>
<path d="M178.859 271.885L164.591 194.01" stroke="#41B4E6" stroke-width="1.2962" stroke-miterlimit="10" stroke-linecap="round"/>
<path d="M166.289 200.202H186.842" stroke="#41B4E6" stroke-width="1.2962" stroke-miterlimit="10" stroke-linecap="round"/>
<path d="M167.648 209.619H188.54" stroke="#41B4E6" stroke-width="1.2962" stroke-miterlimit="10" stroke-linecap="round"/>
<path d="M169.602 219.035H190.239" stroke="#41B4E6" stroke-width="1.2962" stroke-miterlimit="10" stroke-linecap="round"/>
<path d="M171.385 228.451H191.938" stroke="#41B4E6" stroke-width="1.2962" stroke-miterlimit="10" stroke-linecap="round"/>
<path d="M172.914 237.867H193.636" stroke="#41B4E6" stroke-width="1.2962" stroke-miterlimit="10" stroke-linecap="round"/>
<path d="M174.273 247.114H195.335" stroke="#41B4E6" stroke-width="1.2962" stroke-miterlimit="10" stroke-linecap="round"/>
<path d="M176.311 256.615H197.033" stroke="#41B4E6" stroke-width="1.2962" stroke-miterlimit="10" stroke-linecap="round"/>
<path d="M177.755 266.031H198.562" stroke="#41B4E6" stroke-width="1.2962" stroke-miterlimit="10" stroke-linecap="round"/>
<path d="M164.591 194.01L150.408 271.885" stroke="#A8E5FF" stroke-width="1.2962" stroke-miterlimit="10" stroke-linecap="round"/>
<path d="M171.47 271.885L185.653 194.01" stroke="#A8E5FF" stroke-width="1.2962" stroke-miterlimit="10" stroke-linecap="round"/>
<path d="M183.954 200.202H163.487" stroke="#A8E5FF" stroke-width="1.2962" stroke-miterlimit="10" stroke-linecap="round"/>
<path d="M182.596 209.619H161.788" stroke="#A8E5FF" stroke-width="1.2962" stroke-miterlimit="10" stroke-linecap="round"/>
<path d="M180.727 219.035H160.09" stroke="#A8E5FF" stroke-width="1.2962" stroke-miterlimit="10" stroke-linecap="round"/>
<path d="M178.859 228.451H158.391" stroke="#A8E5FF" stroke-width="1.2962" stroke-miterlimit="10" stroke-linecap="round"/>
<path d="M177.415 237.867H156.607" stroke="#A8E5FF" stroke-width="1.2962" stroke-miterlimit="10" stroke-linecap="round"/>
<path d="M175.971 247.114H154.994" stroke="#A8E5FF" stroke-width="1.2962" stroke-miterlimit="10" stroke-linecap="round"/>
<path d="M173.933 256.615H153.21" stroke="#A8E5FF" stroke-width="1.2962" stroke-miterlimit="10" stroke-linecap="round"/>
<path d="M172.489 266.031H151.767" stroke="#A8E5FF" stroke-width="1.2962" stroke-miterlimit="10" stroke-linecap="round"/>
<path d="M185.908 173.056C185.993 173.989 182.596 175.177 181.746 175.347C180.812 175.431 180.048 174.753 179.878 173.82C179.793 172.887 180.387 172.038 181.322 171.869C182.171 171.784 185.823 172.123 185.908 173.056Z" fill="#3C5A73"/>
<path d="M248.075 128.011H177.84V158.465H248.075V128.011Z" stroke="#D2AFFF" stroke-width="0.8641" stroke-miterlimit="10"/>
<path opacity="0.4" d="M245.528 129.368L182.171 142.093C180.642 142.432 179.199 141.414 178.859 139.887L173.933 115.54C173.593 114.013 174.613 112.571 176.141 112.232L239.498 99.5073C241.026 99.168 242.47 100.186 242.81 101.713L247.736 126.06C247.991 127.587 247.056 129.029 245.528 129.368Z" fill="#6C9BAA"/>
<path d="M245.867 126.229L182.511 138.954C180.982 139.293 179.538 138.275 179.199 136.748L174.273 112.402C173.933 110.875 174.952 109.433 176.481 109.093L239.837 96.3685C241.366 96.0292 242.81 97.0472 243.149 98.5742L248.075 122.921C248.33 124.448 247.311 125.89 245.867 126.229Z" fill="#6E64C3"/>
<path d="M175.462 121.648L183.954 107.99L185.483 16.4573L234.147 97.5562L244.508 105.361" stroke="white" stroke-width="1.2962" stroke-miterlimit="10" stroke-linecap="round"/>
<path d="M112.02 54.7163C113.634 56.3281 126.033 69.5618 125.354 69.986C124.76 70.3253 110.152 59.8062 108.538 58.1944C106.925 56.5826 106.33 54.4618 107.349 53.5287C108.283 52.5107 110.407 53.1045 112.02 54.7163Z" fill="#41B4E6"/>
<path d="M129.431 71.7674C127.817 71.0039 124.845 68.1197 121.872 65.4051L121.108 67.3562L125.864 71.7674C126.968 72.2764 128.666 72.2764 129.431 71.7674Z" fill="#FAB9AF"/>
<path d="M129.176 71.5978C128.072 71.9371 126.798 72.0219 125.864 71.7674C125.864 72.1068 125.864 73.0399 125.864 73.3792C125.864 73.6337 126.033 73.8034 126.288 73.8034C126.288 73.8034 133.592 73.8882 133.592 73.5489C133.507 71.6826 129.685 71.9371 129.176 71.5978Z" fill="#FF8C46"/>
<path d="M138.433 71.7674C136.819 71.0039 133.847 68.1197 130.874 65.4051L130.11 67.3562L134.866 71.7674C135.97 72.2764 137.669 72.2764 138.433 71.7674Z" fill="#FAB9AF"/>
<path d="M138.178 71.5978C137.074 71.9371 135.8 72.0219 134.866 71.7674C134.866 72.1068 134.866 73.0399 134.866 73.3792C134.866 73.6337 135.036 73.8034 135.291 73.8034C135.291 73.8034 142.594 73.8882 142.594 73.5489C142.51 71.6826 138.688 71.9371 138.178 71.5978Z" fill="#FF8C46"/>
<path d="M117.541 58.1096C118.56 59.1275 127.647 66.2534 132.233 69.3921C132.828 68.968 133.253 68.5438 133.762 67.95C130.62 64.3871 123.741 56.2433 122.127 54.5466C120.343 51.9169 107.01 44.7062 104.377 43.6882C101.574 42.6702 98.6018 43.6034 97.7525 45.809C96.9032 48.0146 98.4319 50.9837 101.235 52.0865C103.103 52.6803 116.861 57.4309 117.541 58.1096Z" fill="#0073AA"/>
<path d="M105.566 44.1972C105.056 43.9427 104.716 43.773 104.462 43.6882C101.659 42.6702 98.6865 43.6034 97.8372 45.809C96.9879 48.0146 98.5167 50.9837 101.319 52.0865C102.253 52.4258 106.16 53.7831 109.982 55.1404C107.689 51.9168 106.075 48.2691 105.566 44.1972Z" fill="#00558C"/>
<path d="M113.124 54.5466C112.02 52.9348 106.245 49.3719 101.574 46.827C100.895 46.4876 100.13 46.4876 99.451 46.9966C98.0922 48.0146 96.5635 48.8629 95.1197 49.7961C94.5252 50.2202 94.1855 50.8989 94.1855 51.5775C94.1855 51.7472 94.1855 51.9169 94.1855 52.0865C94.1855 52.341 94.0156 52.2562 94.0156 52.5107C98.347 54.0376 107.944 57.6006 108.453 58.1944C109.473 59.2124 118.645 66.423 123.146 69.5618C124.08 69.2225 124.59 68.7983 125.099 68.2045C122.042 64.6416 114.738 56.2433 113.124 54.5466Z" fill="#0091C8"/>
<path d="M93.7609 26.2978C99.2812 31.3877 110.916 31.8966 118.39 31.6421C119.239 31.6421 119.324 32.745 118.56 32.9146C109.812 34.6112 98.0922 35.0354 90.9583 29.691C88.6652 27.9096 91.298 24.4315 93.591 26.1281C93.676 26.2129 93.7609 26.2978 93.7609 26.2978Z" fill="#FA968C"/>
<path d="M98.2619 28.673C97.4975 28.2489 94.3552 26.7219 93.6757 26.2129C93.5908 26.2129 93.5908 26.1281 93.5059 26.1281C92.4867 25.4494 91.1279 25.7888 90.4484 26.8068C89.769 27.8247 90.1087 29.182 91.1279 29.8607C92.0621 30.4545 92.9114 30.9635 93.8456 31.3876C94.4401 31.727 95.1195 31.9815 95.7989 32.236C95.8839 31.727 98.2619 28.673 98.2619 28.673Z" fill="#BAF1FF"/>
<path d="M103.867 43.8579L94.1004 52.5107C92.9114 52.0865 91.8073 47.7601 89.9389 43.773C87.9006 39.5315 85.4377 34.8657 84.1638 32.4056C83.6542 31.3876 83.9939 30.1152 85.0131 29.5214L91.1279 26.0433C92.0621 25.5343 93.2511 25.7888 93.8456 26.7219C95.1195 28.5882 96.903 32.9146 99.0262 36.0534C101.234 39.277 103.867 43.8579 103.867 43.8579Z" fill="#FAB9AF"/>
<path d="M91.2129 26.0433L90.1938 26.6371C90.2787 27.6551 89.939 28.673 88.75 29.2669C87.6459 29.9455 86.5419 29.691 85.6926 29.0972L84.7584 29.6062C83.8242 30.1152 83.4845 31.3028 83.994 32.236C85.2679 34.6961 87.7309 39.4466 89.8541 43.773C91.7225 47.7601 92.7416 51.832 94.0155 52.5107C98.3469 49.5416 103.867 46.4028 104.462 43.6882C104.462 43.6882 97.6675 33.6781 93.7608 26.6371C93.3361 25.7888 92.0622 25.5343 91.2129 26.0433Z" fill="#BAF1FF"/>
<path d="M120.258 32.9146C120.258 32.9146 118.56 33.6781 118.135 33.2539C117.711 32.8298 117.541 32.4904 118.135 31.8118C118.73 31.218 119.919 30.6242 120.598 30.4545C121.363 30.2848 122.721 30.4545 122.891 30.6242C123.401 31.0483 121.957 31.3028 121.363 31.3876C120.683 31.5573 119.919 31.727 120.089 32.0663C120.258 32.4056 121.532 31.9815 121.787 32.3208C122.127 32.5753 120.258 32.9146 120.258 32.9146Z" fill="#FA968C"/>
<path d="M86.7118 25.2798H86.5419C85.5228 25.4494 84.5886 24.7708 84.3338 23.8377L83.8242 21.123L85.7776 20.7837L86.7118 25.2798Z" fill="#A56941"/>
<path d="M89.8541 27.9096L86.7118 29.2669L86.3721 28.8427L86.5419 24.8556L89.0898 24.686L89.8541 27.9096Z" fill="#FAB9AF"/>
<path d="M89.0898 24.686L86.542 24.8556L86.457 26.4674C87.1365 26.9764 87.9008 27.5702 88.835 27.4006C89.0898 27.3157 89.4295 27.1461 89.5994 26.9764L89.0898 24.686Z" fill="#FA968C"/>
<path d="M88.6651 26.4674C86.9666 26.8068 85.4379 25.7039 85.0982 24.0073L84.5037 20.6989L89.6843 19.7657C89.6843 19.7657 90.1938 22.3955 90.1089 24.177C90.1089 25.5343 89.5144 26.2978 88.6651 26.4674Z" fill="#FAB9AF"/>
<path d="M85.4742 21.8768L84.4729 22.0662L84.5519 22.4829L85.5532 22.2936L85.4742 21.8768Z" fill="#A56941"/>
<path d="M85.8626 23.2438C85.9475 23.9225 85.7776 24.5163 85.353 24.5163C84.9284 24.6011 84.4188 23.8376 84.2489 23.159C84.164 22.4803 84.5037 22.2259 84.9284 22.141C85.353 22.141 85.7776 22.5652 85.8626 23.2438Z" fill="#FAB9AF"/>
<path d="M90.2787 21.0382C90.2787 20.6141 90.2787 20.1899 90.1089 19.7657C90.1089 19.7657 89.8541 18.2388 89.1747 18.0691C88.5802 17.8994 87.7309 18.4084 87.2213 18.6629C86.7967 18.8326 85.5227 19.0023 85.5227 19.0023C84.5036 19.1719 83.8242 20.1899 83.994 21.2927L84.079 21.7169L85.0981 22.3107L85.5227 23.0742H85.6077C85.9474 22.9893 86.2022 22.7348 86.1172 22.3955C86.0323 21.8865 86.372 21.2927 86.8816 21.2079L88.4103 20.9534C89.3445 20.7837 89.939 21.2079 90.1089 21.8865L90.1938 22.4803L90.2787 21.0382Z" fill="#A56941"/>
<path d="M174.952 8.99214L98.8564 41.4826" stroke="white" stroke-width="1.2962" stroke-miterlimit="10"/>
<path d="M92.147 34.6961C94.8647 36.223 97.4125 36.732 100.215 36.9865C104.971 37.5803 113.464 34.6961 112.615 34.9506C113.379 34.6961 113.719 35.7141 113.124 36.1382C109.387 38.0893 104.292 40.2101 100.3 40.2101H98.2618C91.6374 39.9556 86.1171 36.5624 83.7391 33.0843C83.0597 32.0663 83.3144 30.709 84.2487 30.0303C86.6266 28.4185 87.3061 31.9815 92.147 34.6961Z" fill="#FAB9AF"/>
<path d="M90.3636 33.4236C88.4952 31.8966 87.3062 30.5393 87.2213 30.4545V30.5393L86.0323 29.6062C86.0323 29.6062 84.7584 29.0972 83.4845 30.709C82.5502 31.9815 83.6543 33.3388 83.6543 33.3388C83.8242 33.5084 84.5036 35.2051 88.0706 37.241C88.0706 37.241 90.6184 33.5933 90.3636 33.4236Z" fill="#BAF1FF"/>
<path d="M113.974 34.2719C113.974 34.2719 112.19 34.6113 112.105 35.2051C112.02 35.7989 112.105 36.223 112.955 36.3079C113.804 36.4775 115.078 36.2231 115.757 35.9686C116.437 35.7141 117.456 34.6961 117.541 34.5264C117.711 33.8478 116.437 34.5264 115.842 34.7809C115.248 35.0354 114.483 35.2899 114.483 34.9506C114.398 34.6113 115.672 34.1871 115.757 33.7629C115.672 33.4236 113.974 34.2719 113.974 34.2719Z" fill="#FAB9AF"/>
<path d="M242.725 173.311C243.944 173.311 244.933 172.323 244.933 171.105C244.933 169.887 243.944 168.899 242.725 168.899C241.505 168.899 240.517 169.887 240.517 171.105C240.517 172.323 241.505 173.311 242.725 173.311Z" fill="#FF9CBD"/>
<path d="M242.725 188.665C243.944 188.665 244.933 187.678 244.933 186.46C244.933 185.241 243.944 184.254 242.725 184.254C241.505 184.254 240.517 185.241 240.517 186.46C240.517 187.678 241.505 188.665 242.725 188.665Z" fill="#FF9CBD"/>
<path d="M263.957 211.146C263.957 211.146 264.551 212.503 264.127 213.86C263.702 215.217 263.957 216.914 265.061 218.102C265.061 218.102 265.316 216.151 265.655 215.302C266.08 214.369 265.825 211.655 263.957 211.146Z" fill="white"/>
<path d="M266.929 210.552C266.929 210.552 264.891 211.824 265.146 213.521C265.146 213.521 264.042 212.757 263.787 210.128C263.617 208.346 266.929 210.552 266.929 210.552Z" fill="#FFF0F2"/>
<path d="M277.97 218.526C276.951 218.102 276.101 217.338 275.677 216.32C274.997 214.624 273.808 213.351 272.365 212.673C271.6 212.333 271.176 211.655 271.176 210.806H269.222V212.333C266.505 212.927 264.381 215.726 264.381 219.12C264.381 222.767 266.844 225.821 269.987 225.991C270.411 229.299 272.874 231.844 275.847 231.844C279.159 231.844 281.792 228.79 281.792 224.973C281.792 222.089 280.178 219.544 277.97 218.526Z" fill="white"/>
<path d="M266.505 221.156C266.505 221.41 266.42 221.495 266.42 221.665C266.42 221.834 266.335 221.919 266.335 222.089C266.25 222.343 266.165 222.598 266.08 222.852C265.91 223.361 265.655 223.87 265.401 224.294C264.891 225.228 264.042 226.076 263.108 226.755C262.598 227.009 262.088 227.348 261.579 227.518C261.069 227.688 260.475 227.857 259.965 227.857C259.456 227.857 258.946 227.942 258.436 227.942C257.927 227.857 257.417 227.857 256.993 227.772C255.124 227.348 253.426 226.67 251.982 225.821L250.878 225.143C250.538 224.973 250.113 224.719 249.774 224.464L247.651 222.937C247.396 222.767 247.311 222.343 247.481 222.089C247.651 221.834 247.99 221.749 248.245 221.919H248.33C249.859 222.598 251.302 223.276 252.916 223.785C254.445 224.294 255.974 224.634 257.417 224.719C258.861 224.803 260.135 224.379 260.899 223.701C261.239 223.276 261.579 222.937 261.834 222.343C261.919 222.089 262.088 221.834 262.088 221.495C262.088 221.325 262.173 221.24 262.173 221.071C262.173 220.986 262.173 220.901 262.173 220.901C262.173 220.816 262.173 220.731 262.173 220.731C262.258 219.544 263.362 218.611 264.551 218.696C265.655 218.95 266.59 219.968 266.505 221.156Z" fill="#FAB9AF"/>
<path d="M261.833 240.073C263.787 242.279 274.827 243.212 274.827 243.212C275.677 242.279 271.855 231.42 271.855 231.42C271.855 231.42 273.723 223.616 273.638 220.816C273.638 219.629 272.619 218.696 271.515 218.696H264.466C263.362 218.696 262.513 219.544 262.428 220.562C262.258 222.767 265.146 231.081 265.146 231.081C265.146 231.081 260.22 238.122 261.833 240.073Z" fill="#FAB9AF"/>
<path d="M267.948 282.658C267.864 282.828 267.864 282.998 267.948 283.167C268.033 283.337 268.118 283.422 268.288 283.507C269.647 284.101 270.242 283.846 271.006 283.337V276.72L269.732 274.769C269.392 274.345 268.713 274.599 268.798 275.108C269.222 277.823 269.562 282.065 268.203 282.319C268.118 282.319 268.033 282.489 267.948 282.658Z" fill="#FA968C"/>
<path d="M269.307 282.998C268.968 282.998 268.203 282.574 268.118 282.319C265.316 282.574 263.957 283.507 263.957 284.27C264.042 284.44 268.883 284.27 270.666 284.27C271.006 284.27 271.176 283.931 271.091 283.507L270.921 282.489C270.666 282.828 270.157 283.083 269.307 282.998Z" fill="#965028"/>
<path d="M288.416 251.271C283.066 252.713 274.063 255.682 272.619 256.445C270.581 257.463 269.902 259.499 270.581 260.687C271.176 261.875 272.789 261.875 274.913 260.772C276.356 260.008 284.594 255.343 289.265 252.543C289.011 251.949 288.586 251.78 288.416 251.271Z" fill="#FAB9AF"/>
<path d="M293.172 251.78C293.342 251.78 293.512 251.695 293.597 251.61C293.682 251.525 293.767 251.356 293.767 251.186C293.682 249.744 293.257 249.32 292.408 248.811C290.539 249.913 288.671 251.016 285.698 252.119C285.189 253.137 286.293 254.24 287.312 253.646C289.52 252.458 292.153 251.186 292.748 251.78C292.663 251.78 292.917 251.78 293.172 251.78Z" fill="#FAB9AF"/>
<path d="M292.833 250.422C292.917 250.762 292.917 251.525 292.748 251.78C294.191 254.155 295.635 254.919 296.315 254.579C296.4 254.41 294.191 250.168 293.342 248.641C293.172 248.302 292.748 248.302 292.493 248.556L291.644 249.15C292.068 249.235 292.493 249.574 292.833 250.422Z" fill="#965028"/>
<path d="M268.967 276.72C269.562 277.06 270.326 276.975 270.921 277.314C271.091 271.8 270.921 262.723 270.581 261.111C270.156 258.821 268.798 257.209 267.439 257.379C266.08 257.633 265.316 259.669 265.74 261.96C265.995 263.487 267.609 271.461 268.967 276.72Z" fill="#FA968C"/>
<path d="M262.088 241.939C262.258 244.993 264.976 263.996 267.354 263.826C269.732 263.656 270.751 244.484 270.581 241.43C270.411 238.376 268.373 236.086 265.995 236.171C263.617 236.34 261.918 238.885 262.088 241.939Z" fill="#FA968C"/>
<path d="M265.655 241.176C265.74 244.23 269.137 261.451 271.43 261.366C273.808 261.366 274.658 243.975 274.573 240.921C274.488 237.867 272.11 235.577 269.817 235.577C267.439 235.747 265.57 238.207 265.655 241.176Z" fill="#FAB9AF"/>
<path d="M266.929 219.204L270.072 218.865L269.052 215.387L267.014 215.642L266.929 219.204Z" fill="#FAB9AF"/>
<path d="M267.014 215.642L269.052 215.387L269.392 216.49C268.968 216.999 268.373 218.102 267.609 218.102C267.354 218.102 267.184 218.017 266.929 217.932L267.014 215.642Z" fill="#FA968C"/>
<path d="M266.929 217.338C267.609 217.338 268.373 216.999 269.392 216.066C269.987 215.557 270.411 214.624 270.411 214.03V210.637H265.146C265.146 210.637 264.721 212.418 265.146 214.199C265.485 215.557 266.42 217.338 266.929 217.338Z" fill="#FAB9AF"/>
<path d="M269.708 212.33H270.727V211.906H269.708V212.33Z" fill="white"/>
<path d="M269.562 213.351C269.562 214.03 269.902 214.539 270.241 214.539C270.666 214.539 271.091 213.691 271.091 213.012C271.091 212.333 270.666 212.164 270.241 212.164C269.902 212.164 269.562 212.673 269.562 213.351Z" fill="#FAB9AF"/>
<path d="M269.222 209.11H267.439C266.929 209.11 266.505 209.025 266.08 208.77C265.4 208.431 264.551 208.516 264.127 209.11C263.702 209.703 263.532 210.552 264.721 211.315C265.316 211.739 266.165 211.315 266.759 211.485H266.844H268.458C268.967 211.485 269.392 211.909 269.392 212.503C269.392 212.842 269.732 213.097 269.987 213.097H270.072L270.326 212.333L271.176 211.57V211.146C271.091 209.958 270.241 209.11 269.222 209.11Z" fill="white"/>
<path d="M245.952 223.022C245.952 223.022 247.736 223.531 248.075 223.022C248.415 222.513 248.585 222.174 247.821 221.665C247.141 221.156 245.952 220.816 245.188 220.731C244.423 220.647 243.065 221.071 242.98 221.24C242.555 221.749 243.999 221.749 244.678 221.749C245.358 221.749 246.122 221.919 246.037 222.174C245.952 222.513 244.593 222.343 244.423 222.683C244.084 222.937 245.952 223.022 245.952 223.022Z" fill="#FAB9AF"/>
<path d="M244.084 229.045C246.429 229.045 248.33 227.146 248.33 224.803C248.33 222.461 246.429 220.562 244.084 220.562C241.738 220.562 239.837 222.461 239.837 224.803C239.837 227.146 241.738 229.045 244.084 229.045Z" fill="#FF9CBD"/>
<path d="M245.952 227.518C245.952 227.518 247.736 227.094 248.075 227.518C248.415 228.027 248.5 228.451 247.821 228.875C247.141 229.384 245.867 229.724 245.103 229.808C244.338 229.893 242.98 229.469 242.895 229.299C242.47 228.79 243.914 228.79 244.593 228.79C245.273 228.79 246.037 228.706 245.952 228.366C245.867 228.027 244.593 228.197 244.338 227.857C244.084 227.518 245.952 227.518 245.952 227.518Z" fill="#FAB9AF"/>
<path d="M272.365 232.099C272.025 231.76 271.94 231.251 272.025 230.742C272.535 228.451 273.639 222.767 273.554 220.647C273.554 219.544 272.62 218.78 271.6 218.78H270.581C270.157 219.714 269.307 220.392 268.034 220.392C266.76 220.392 265.91 219.714 265.486 218.78H264.467C265.401 220.816 265.231 223.446 263.872 225.228C263.532 225.652 263.447 226.161 263.617 226.67C264.042 228.027 264.382 229.299 264.721 230.148C264.891 230.742 264.721 231.335 264.297 231.76C261.324 234.729 259.286 241.091 259.286 248.471C259.286 249.065 259.286 249.744 259.371 250.338C259.456 251.186 260.135 251.865 260.984 251.865H275.422C276.272 251.865 277.036 251.186 277.036 250.338C277.036 249.744 277.121 249.15 277.121 248.471C277.036 241.346 275.167 235.238 272.365 232.099Z" fill="#FF8C46"/>
<path d="M272.62 227.518C272.959 225.652 273.384 223.446 273.469 221.919C272.195 225.652 268.798 228.536 264.806 228.96C265.655 229.299 266.929 229.724 268.033 230.148C270.072 230.826 272.28 229.554 272.62 227.518Z" fill="#EB7731"/>
<path d="M265.486 210.976C265.825 211.654 265.655 212.163 268.118 212.757C270.581 213.351 271.176 212.672 272.195 213.775C272.195 213.775 271.43 211.824 270.072 211.4C268.713 210.976 266.42 211.061 265.401 209.619C265.401 209.534 265.316 210.467 265.486 210.976Z" fill="white"/>
<path d="M274.403 221.325C274.318 222.004 274.148 222.258 273.978 222.683C273.809 223.022 273.639 223.361 273.469 223.701C273.299 224.04 273.044 224.379 272.874 224.634C272.62 224.888 272.45 225.228 272.195 225.482C271.685 225.991 271.176 226.5 270.581 226.839C270.327 227.009 269.987 227.264 269.732 227.433L268.883 227.942C266.505 229.13 264.042 229.639 261.579 229.978C259.116 230.148 256.738 230.148 254.36 229.893C253.171 229.724 251.982 229.639 250.878 229.469C249.689 229.215 248.585 229.045 247.396 228.791C247.056 228.706 246.801 228.366 246.886 228.027C246.971 227.773 247.226 227.518 247.481 227.518C248.67 227.518 249.774 227.518 250.963 227.518C252.067 227.518 253.256 227.433 254.36 227.433H255.209L256.059 227.348L257.757 227.179C258.352 227.179 258.861 227.009 259.371 226.924C259.88 226.839 260.475 226.755 260.984 226.67C263.108 226.161 265.146 225.482 266.844 224.464L267.439 224.125L268.033 223.701C268.458 223.446 268.713 223.107 269.053 222.767C269.138 222.598 269.307 222.428 269.477 222.258C269.647 222.089 269.732 221.919 269.817 221.749C269.902 221.58 269.987 221.41 270.072 221.24L270.157 220.986V220.901C270.157 220.901 270.157 220.901 270.157 220.986C270.327 219.798 271.431 218.95 272.62 219.12C273.724 218.95 274.573 220.138 274.403 221.325Z" fill="#FAB9AF"/>
<path d="M177.585 24.4315C181.994 24.4315 185.568 20.8613 185.568 16.4573C185.568 12.0533 181.994 8.48315 177.585 8.48315C173.176 8.48315 169.602 12.0533 169.602 16.4573C169.602 20.8613 173.176 24.4315 177.585 24.4315Z" stroke="#007724" stroke-width="0.7557" stroke-miterlimit="10"/>
<path d="M177.585 19.7657C179.414 19.7657 180.897 18.2845 180.897 16.4573C180.897 14.6301 179.414 13.1489 177.585 13.1489C175.756 13.1489 174.273 14.6301 174.273 16.4573C174.273 18.2845 175.756 19.7657 177.585 19.7657Z" stroke="#007724" stroke-width="0.7557" stroke-miterlimit="10"/>
</g>
<defs>
<clipPath id="clip0">
<rect width="355" height="302" fill="white"/>
</clipPath>
</defs>
</svg>
