<svg width="200" height="49" viewBox="0 0 200 49" fill="none" xmlns="http://www.w3.org/2000/svg">
<g clip-path="url(#clip0)">
<path d="M56.3156 0L24.2551 47.3079L75.0315 47.3915L56.3156 0Z" fill="#00346E"/>
<path d="M0 0.167168V0.417916L18.7159 47.3079L50.6085 0.167168H0Z" fill="#00346E"/>
<path d="M22.4927 13.624L29.7944 4.4299L25.0105 4.34631L19.3034 11.5344L19.3874 4.34631H15.3588L15.2749 25.0749L19.3034 25.1585V15.8808L25.682 25.1585H30.3819L22.4927 13.624Z" fill="white"/>
<path d="M59.5889 31.26C58.8335 30.1734 57.9103 29.4212 56.8193 29.0868C55.7282 28.6689 54.3014 28.5018 52.539 28.5018H51.6997V24.4898H58.6657V20.645L47.7551 20.5614L47.6711 41.3735H53.5461C55.3086 41.3735 56.6514 41.1228 57.5746 40.6213C58.5818 40.1198 59.3371 39.3675 59.9246 38.5317C60.5121 37.6959 60.7639 36.5257 60.7639 35.1048C60.68 33.6003 60.3442 32.263 59.5889 31.26ZM56.0639 36.9436C55.5604 37.4451 54.4693 37.6123 52.6229 37.6123H51.6158V32.0122H52.455C55.3086 32.0122 56.8193 33.0152 56.8193 35.0212C56.8193 35.7735 56.5675 36.4421 56.0639 36.9436Z" fill="white"/>
<path d="M88.5437 0.250749H85.7741L77.3813 8.02396V0.250749H75.2831L75.1992 21.0629H77.2974L77.3813 11.3673L86.4455 20.9793H89.2152L78.4724 9.52845L88.5437 0.250749ZM101.385 0.58508C100.545 0.334332 98.9508 0.250749 96.6008 0.250749H92.4044L92.3205 21.0629H94.4187L94.5026 11.3673H96.0133C98.6151 11.3673 100.378 11.2837 101.301 11.0329C102.56 10.6986 103.651 10.1135 104.322 9.19412C105.078 8.27471 105.413 7.18813 105.413 5.76722C105.413 4.42989 105.078 3.25973 104.322 2.34032C103.567 1.50449 102.644 0.919412 101.385 0.58508ZM102.728 7.77321C102.308 8.35829 101.804 8.77621 101.133 9.02696C100.461 9.2777 99.4544 9.44487 98.0276 9.36129L94.5026 9.2777V2.25674H98.1954C99.6222 2.25674 100.629 2.4239 101.217 2.67465C101.804 2.9254 102.308 3.34332 102.728 3.9284C103.063 4.51348 103.315 5.18214 103.315 5.8508C103.315 6.60305 103.063 7.18813 102.728 7.77321ZM117.667 0.417915L107.679 21.1465H110.029L113.302 14.2927L122.283 14.3763L125.556 21.2301H127.822L118.17 0.417915H117.667ZM114.31 12.2867L117.918 4.76423L121.443 12.2867H114.31ZM136.802 3.25973C138.229 2.50749 139.74 2.08957 141.418 2.08957C142.929 2.08957 144.356 2.4239 145.615 3.00899C146.874 3.59407 147.965 4.51348 148.888 5.68364L150.566 4.42989C149.559 3.00899 148.3 1.92241 146.706 1.17016C145.111 0.417915 143.349 0 141.418 0C138.229 0 135.543 1.003 133.361 3.09257C131.179 5.18214 130.088 7.68963 130.088 10.7822C130.088 13.7076 130.927 16.1315 132.69 18.2211C134.788 20.645 137.642 21.8987 141.334 21.8987C143.265 21.8987 145.027 21.5644 146.538 20.8121C148.133 20.0599 149.391 19.0569 150.482 17.8032L148.804 16.5494C146.79 18.8062 144.356 19.9763 141.418 19.8927C138.733 19.8927 136.55 19.0569 134.788 17.3017C133.025 15.5464 132.186 13.4569 132.186 10.9494C132.186 9.2777 132.606 7.77321 133.361 6.43588C134.284 5.09856 135.375 4.01198 136.802 3.25973ZM163.407 10.03C162.232 9.52845 160.386 9.36129 157.784 9.2777H156.777V2.59107L165.17 2.67465V0.668663L154.679 0.58508L154.595 21.3972H160.302C162.4 21.3972 164.079 20.8121 165.254 19.642C166.429 18.4718 167.016 17.0509 167.1 15.4628C167.1 14.2927 166.764 13.1225 166.093 12.2031C165.506 11.2001 164.582 10.4479 163.407 10.03ZM164.331 17.5524C163.911 18.1375 163.323 18.639 162.652 18.8897C161.981 19.2241 160.806 19.3077 159.295 19.3077H156.693V11.3673H157.868C159.631 11.3673 160.973 11.4509 161.813 11.7016C162.736 11.9524 163.407 12.3703 163.995 13.0389C164.582 13.7076 164.918 14.5434 164.834 15.4628C165.002 16.2987 164.75 16.9673 164.331 17.5524ZM171.297 21.4808L183.13 21.5644V19.5584L173.311 19.4748L173.395 11.2837L183.214 11.3673V9.36129L173.395 9.2777V2.75824L183.298 2.84182V0.835829L171.381 0.752246L171.297 21.4808ZM198.825 2.9254C198.07 2.00599 197.062 1.42091 195.887 1.08658C195.048 0.835829 193.454 0.752246 191.104 0.752246H186.907L186.823 21.5644H188.921L189.005 11.8688H190.516C193.118 11.8688 194.88 11.7852 195.804 11.5344C197.062 11.2001 198.153 10.615 198.825 9.69562C199.58 8.77621 199.916 7.68963 199.916 6.26872C200 5.01498 199.58 3.84481 198.825 2.9254ZM197.23 8.27471C196.811 8.85979 196.307 9.2777 195.636 9.52845C194.964 9.7792 193.957 9.94637 192.53 9.86278L189.005 9.7792V2.75824H192.698C194.125 2.75824 195.132 2.9254 195.72 3.17615C196.307 3.4269 196.811 3.84481 197.23 4.42989C197.566 5.01498 197.818 5.68364 197.818 6.3523C197.818 7.10455 197.65 7.68963 197.23 8.27471Z" fill="#00346E"/>
<path d="M89.0473 39.8691C88.6276 39.5347 88.124 39.284 87.3687 39.0332C87.9562 38.6989 88.3758 38.281 88.7115 37.8631C89.0473 37.3616 89.1312 36.7765 89.1312 36.1914C89.1312 35.5227 88.9633 34.9377 88.6276 34.4362C88.2919 33.9347 87.7883 33.5167 87.2848 33.266C86.6973 33.0153 85.858 32.8481 84.7669 32.8481H82.0812L81.9973 46.5557H85.7741C87.1169 46.5557 88.208 46.2214 89.0473 45.4691C89.8865 44.7169 90.3062 43.7975 90.3062 42.7109C90.3062 42.2094 90.2222 41.7079 89.9705 41.2064C89.7187 40.6213 89.4669 40.2034 89.0473 39.8691ZM83.4241 34.1018H85.0187C85.9419 34.1018 86.6973 34.269 87.1169 34.6869C87.5366 35.0212 87.7883 35.5227 87.7883 36.1914C87.7883 36.6929 87.6205 37.1108 87.3687 37.4451C87.1169 37.8631 86.7812 38.1138 86.2776 38.281C85.7741 38.4481 85.1026 38.5317 84.1794 38.5317H83.4241V34.1018ZM88.3758 43.9646C88.1241 44.3825 87.7044 44.7169 87.2008 44.884C86.6973 45.0512 86.0259 45.1348 85.0187 45.1348H83.3402V39.8691H84.0955C85.2705 39.8691 86.1098 39.9526 86.5294 40.0362C87.2008 40.2034 87.7883 40.5377 88.208 40.9556C88.6276 41.3735 88.7955 41.9586 88.7955 42.5437C88.8794 43.0452 88.7115 43.5467 88.3758 43.9646ZM92.9919 46.5557H100.797V45.2184H94.3347V39.8691H100.797V38.5317H94.3347V34.269H100.881V32.9317H92.9919V46.5557ZM109.022 39.0332C108.267 38.6989 107.008 38.5317 105.245 38.5317H104.574V34.1018H110.113V32.7645H103.231V46.5557H107.008C108.435 46.5557 109.526 46.1378 110.281 45.3855C111.036 44.6333 111.456 43.7139 111.456 42.6273C111.456 41.7915 111.204 41.1228 110.785 40.4541C110.449 39.8691 109.777 39.3676 109.022 39.0332ZM109.61 44.0482C109.358 44.4661 108.938 44.7169 108.519 44.9676C108.015 45.1348 107.344 45.2184 106.336 45.2184H104.658V39.9526H105.413C106.588 39.9526 107.427 40.0362 108.015 40.2034C108.602 40.3706 109.106 40.6213 109.442 41.1228C109.777 41.6243 110.029 42.1258 110.029 42.7109C110.029 43.2124 109.945 43.6303 109.61 44.0482ZM113.218 42.0422H118.338V40.8721H113.218V42.0422ZM124.465 34.7705C125.388 34.269 126.395 34.0182 127.486 34.0182C128.493 34.0182 129.417 34.269 130.256 34.6033C131.095 35.0212 131.85 35.6063 132.438 36.3586L133.529 35.5227C132.858 34.6033 132.018 33.8511 131.011 33.3496C130.004 32.8481 128.829 32.5973 127.57 32.5973C125.472 32.5973 123.626 33.266 122.283 34.6033C120.856 35.9407 120.184 37.6123 120.101 39.7019C120.101 41.6243 120.688 43.2124 121.863 44.6333C123.206 46.2214 125.136 47.0572 127.57 47.0572C128.829 47.0572 130.004 46.8064 131.011 46.3885C132.018 45.887 132.942 45.2184 133.613 44.3825L132.522 43.5467C131.179 45.0512 129.584 45.8034 127.654 45.8034C125.892 45.8034 124.465 45.2184 123.29 44.1318C122.115 43.0452 121.611 41.6243 121.611 39.9526C121.611 38.8661 121.863 37.8631 122.367 36.9437C122.786 35.9407 123.458 35.272 124.465 34.7705ZM134.872 34.3526H137.977L137.893 46.7229H139.32L139.404 34.3526H142.509V33.0153H134.956L134.872 34.3526ZM149.056 42.4601L144.943 33.0988H143.349L148.3 44.1318C147.965 44.884 147.713 45.3855 147.377 45.5527C147.125 45.7199 146.79 45.8034 146.454 45.8034C146.202 45.8034 145.95 45.7199 145.782 45.6363C145.531 45.5527 145.111 45.1348 144.44 44.4661L143.432 45.3019C144.104 46.0542 144.691 46.5557 145.111 46.7229C145.531 46.89 146.034 47.0572 146.538 47.0572C147.797 47.0572 148.636 46.4721 149.14 45.3019L154.427 33.0153H152.916L149.056 42.4601ZM162.4 33.1824H161.897L156.441 45.5527H155.35V48.896H156.693V46.8064L167.772 46.89V48.9796H169.114V45.6363H168.023L162.4 33.1824ZM158.036 45.5527L162.148 35.9407L166.429 45.5527H158.036ZM172.472 43.881L172.555 33.1824H171.213L171.129 46.89H171.464L180.613 36.4422L180.445 46.9736H181.871L181.955 33.266H181.62L172.472 43.881ZM190.432 33.266C188.921 33.266 187.83 33.3496 187.327 33.4332C186.487 33.6003 185.816 34.0182 185.312 34.6033C184.809 35.1884 184.557 35.9407 184.557 36.8601C184.557 37.6123 184.725 38.281 185.061 38.8661C185.396 39.4511 185.9 39.8691 186.571 40.1198C187.243 40.4541 188.166 40.5377 189.257 40.5377L184.305 46.89H185.984L190.936 40.5377H191.691V46.89H193.034L193.118 33.1824L190.432 33.266ZM191.775 39.284H189.425C188.502 39.284 187.83 39.2004 187.411 39.0332C186.991 38.8661 186.655 38.6153 186.404 38.1974C186.152 37.7795 186.068 37.3616 186.068 36.9437C186.068 36.4422 186.236 36.1078 186.487 35.6899C186.739 35.3556 187.075 35.0212 187.495 34.8541C187.914 34.6869 188.586 34.6033 189.509 34.6033H191.943L191.775 39.284Z" fill="#00346E"/>
</g>
<defs>
<clipPath id="clip0">
<rect width="200" height="48.9796" fill="white"/>
</clipPath>
</defs>
</svg>
