<svg xmlns="http://www.w3.org/2000/svg" xmlns:xlink="http://www.w3.org/1999/xlink" width="238.3" height="372" viewBox="0 0 238.3 372"><svg id="arrow_down" viewBox="0 0 56.7 56.7" width="56.7" height="56.7" y="0"><style>.st0{fill:#00cc45}</style><path class="st0" d="M56.7 26.6v3.5c0 .1-.1.3-.1.4-.4 4.9-1.9 9.4-4.6 13.5-5.4 7.9-12.9 12.1-22.4 12.7-5.1.3-10-.8-14.5-3.3C5.8 48.2.7 40.2.1 29.6c-.4-6.1 1.2-11.8 4.7-16.9C9.2 6.1 15.4 2 23.3.5c1.1-.2 2.2-.3 3.3-.5h3.5c.1 0 .3.1.4.1C34.9.4 39 1.7 42.8 4c7.3 4.5 11.8 10.9 13.5 19.4.1 1 .2 2.1.4 3.2zM3.8 28.3c0 13.5 10.9 24.6 24.5 24.6C41.8 53 52.8 42 52.9 28.4 53 14.9 42 3.8 28.4 3.8S3.8 14.7 3.8 28.3z"></path><path class="st0" d="M30.4 38c2.8-2.9 5.7-5.7 8.5-8.5l2.6 2.6c-4.4 4.3-8.7 8.7-13 13L15.4 32c.8-.8 1.6-1.6 2.5-2.4 2.8 2.8 5.6 5.6 8.4 8.5.1 0 .1-.1.2-.1V11.4h3.8V38h.1z"></path></svg><svg id="close" viewBox="0 0 60 60" width="60" height="60" y="57"><style>.st0{fill:#c00}</style><path class="st0" d="M60 29.3v1.4c0 .2-.1.5-.1.7-.1 1-.1 2.1-.3 3.1-1 6.4-3.8 12-8.4 16.6-4.7 4.7-10.4 7.6-17.1 8.5-.9.1-1.9.2-2.8.3h-2.7c-.5-.1-1-.1-1.4-.2-5.5-.6-10.5-2.4-14.9-5.7C5.9 49.4 1.9 43.1.5 35.2.3 34.1.2 33 0 31.9v-3.8c0-.4.1-.8.1-1.2.8-6.3 3.1-11.9 7.4-16.7 4.9-5.5 11-8.8 18.2-9.9.8-.1 1.7-.2 2.5-.3h3.4c.2 0 .4.1.6.1 1.3.2 2.6.3 3.8.5 6.6 1.4 12.2 4.7 16.6 9.8 3.9 4.5 6.2 9.6 7 15.5.2 1.1.3 2.3.4 3.4zM29.9 56c14.3 0 26-11.6 26.1-26 .1-14.2-11.6-26-25.9-26C15.7 3.9 4 15.5 3.9 30c0 14.3 11.6 26 26 26z"></path><path class="st0" d="M32.7 30.1c.2.3.5.5.7.8 2.7 2.9 5.5 5.8 8.2 8.6 1.1 1.2.6 3-.9 3.3-.8.2-1.4-.1-2-.7-2.7-2.9-5.4-5.7-8.2-8.6-.2-.2-.3-.4-.6-.7-.2.2-.3.4-.4.6-2.7 2.9-5.5 5.8-8.2 8.7-.9.9-2 1-2.9.2-.9-.8-.9-2 0-2.9 2.1-2.2 4.2-4.5 6.4-6.7.8-.9 1.6-1.7 2.5-2.6-.1-.2-.2-.3-.4-.4-2.8-3-5.6-5.9-8.4-8.9-.5-.5-.8-1-.7-1.7.1-.8.5-1.4 1.3-1.7.8-.3 1.5-.1 2.1.5 2.1 2.2 4.1 4.4 6.2 6.5.8.9 1.7 1.8 2.6 2.8.2-.2.3-.4.4-.6 2.8-3 5.5-5.9 8.3-8.9.9-.9 2-1 2.9-.2.9.8.9 2 0 3-2.8 3-5.6 6-8.5 8.9 0 .3-.2.5-.4.7z"></path></svg><svg viewBox="0 0 80 80" width="80" height="80" id="link" y="117"><path d="M29.3 63.5l-4 4c-3.5 3.5-9.2 3.5-12.7 0-1.7-1.7-2.6-3.9-2.6-6.3s.9-4.6 2.6-6.3l14.9-14.8c3.1-3.1 8.9-7.6 13.1-3.4 1.9 1.9 5.1 1.9 7 0 1.9-1.9 1.9-5.1 0-7-7.2-7.1-17.8-5.8-27.1 3.4l-15 14.8C2 51.5 0 56.2 0 61.2S2 71 5.5 74.5C9.2 78.2 14 80 18.8 80c4.8 0 9.7-1.8 13.3-5.5l4.1-4c1.9-1.9 2-5.1 0-7-1.8-1.9-5-2-6.9 0zM74.5 6C66.8-1.7 56-2.1 48.8 5l-5 5c-1.9 1.9-2 5.1 0 7s5.1 2 7 0l5-5c3.7-3.7 8.6-2.2 11.7 1 1.7 1.7 2.6 3.9 2.6 6.3s-.9 4.6-2.6 6.3L51.6 41.4c-7.3 7.2-10.7 3.8-12.1 2.4-1.9-1.9-5.1-1.9-7 0s-1.9 5.1 0 7c3.3 3.3 7.1 5 11.1 5 4.9 0 10.1-2.5 15-7.3l15.9-15.8C78 29.1 80 24.4 80 19.3c0-5-2-9.7-5.5-13.3z"></path></svg><svg id="logo_green" viewBox="0 0 238.3 58.6" width="238.3" height="58.6" y="197"><style>.st0{fill:#00cc45}.st1{fill:#f9fbfd}.st2{fill:#fcfdff}</style><path class="st0" d="M67.1 0L28.9 56.6l60.5.1zM0 .2v.3l22.3 56.1L60.3.2z"></path><path class="st1" d="M26.8 16.3l8.7-11-5.7-.1-6.8 8.6.1-8.6h-4.8L18.2 30l4.8.1V19l7.6 11.1h5.6z"></path><path class="st2" d="M71 37.4c-.9-1.3-2-2.2-3.3-2.6-1.3-.5-3-.7-5.1-.7h-1v-4.8h8.3v-4.6l-13-.1-.1 24.9h7c2.1 0 3.7-.3 4.8-.9 1.2-.6 2.1-1.5 2.8-2.5.7-1 1-2.4 1-4.1-.1-1.8-.5-3.4-1.4-4.6zm-4.2 6.8c-.6.6-1.9.8-4.1.8h-1.2v-6.7h1c3.4 0 5.2 1.2 5.2 3.6 0 .9-.3 1.7-.9 2.3z"></path><path class="st0" d="M105.5.3h-3.3l-10 9.3V.3h-2.5l-.1 24.9h2.5l.1-11.6L103 25.1h3.3L93.5 11.4l12-11.1zm15.3.4c-1-.3-2.9-.4-5.7-.4h-5l-.1 24.9h2.5l.1-11.6h1.8c3.1 0 5.2-.1 6.3-.4 1.5-.4 2.8-1.1 3.6-2.2.9-1.1 1.3-2.4 1.3-4.1 0-1.6-.4-3-1.3-4.1-.9-1-2-1.7-3.5-2.1zm1.6 8.6c-.5.7-1.1 1.2-1.9 1.5-.8.3-2 .5-3.7.4l-4.2-.1V2.7h4.4c1.7 0 2.9.2 3.6.5.7.3 1.3.8 1.8 1.5.4.7.7 1.5.7 2.3 0 .9-.3 1.6-.7 2.3zM140.2.5l-11.9 24.8h2.8l3.9-8.2 10.7.1 3.9 8.2h2.7L140.8.5h-.6zm-4 14.2l4.3-9 4.2 9h-8.5zM163 3.9c1.7-.9 3.5-1.4 5.5-1.4 1.8 0 3.5.4 5 1.1 1.5.7 2.8 1.8 3.9 3.2l2-1.5c-1.2-1.7-2.7-3-4.6-3.9-1.9-.9-4-1.4-6.3-1.4-3.8 0-7 1.2-9.6 3.7-2.6 2.5-3.9 5.5-3.9 9.2 0 3.5 1 6.4 3.1 8.9 2.5 2.9 5.9 4.4 10.3 4.4 2.3 0 4.4-.4 6.2-1.3 1.9-.9 3.4-2.1 4.7-3.6l-2-1.5c-2.4 2.7-5.3 4.1-8.8 4-3.2 0-5.8-1-7.9-3.1s-3.1-4.6-3.1-7.6c0-2 .5-3.8 1.4-5.4 1.1-1.6 2.4-2.9 4.1-3.8zm31.7 8.1c-1.4-.6-3.6-.8-6.7-.9h-1.2v-8l10 .1V.8L184.3.7l-.1 24.9h6.8c2.5 0 4.5-.7 5.9-2.1 1.4-1.4 2.1-3.1 2.2-5 0-1.4-.4-2.8-1.2-3.9-.7-1.2-1.8-2.1-3.2-2.6zm1.1 9c-.5.7-1.2 1.3-2 1.6-.8.4-2.2.5-4 .5h-3.1v-9.5h1.4c2.1 0 3.7.1 4.7.4 1.1.3 1.9.8 2.6 1.6.7.8 1.1 1.8 1 2.9.2 1-.1 1.8-.6 2.5zm8.3 4.7l14.1.1v-2.4l-11.7-.1.1-9.8 11.7.1v-2.4l-11.7-.1V3.3l11.8.1V1L204.2.9l-.1 24.8zm32.8-22.2c-.9-1.1-2.1-1.8-3.5-2.2-1-.3-2.9-.4-5.7-.4h-5l-.1 24.9h2.5l.1-11.6h1.8c3.1 0 5.2-.1 6.3-.4 1.5-.4 2.8-1.1 3.6-2.2.9-1.1 1.3-2.4 1.3-4.1.1-1.5-.4-2.9-1.3-4zM235 9.9c-.5.7-1.1 1.2-1.9 1.5-.8.3-2 .5-3.7.4l-4.2-.1V3.3h4.4c1.7 0 2.9.2 3.6.5.7.3 1.3.8 1.8 1.5.4.7.7 1.5.7 2.3 0 .9-.2 1.6-.7 2.3zM106.1 47.7c-.5-.4-1.1-.7-2-1 .7-.4 1.2-.9 1.6-1.4.4-.6.5-1.3.5-2 0-.8-.2-1.5-.6-2.1-.4-.6-1-1.1-1.6-1.4-.7-.3-1.7-.5-3-.5h-3.2l-.1 16.4h4.5c1.6 0 2.9-.4 3.9-1.3s1.5-2 1.5-3.3c0-.6-.1-1.2-.4-1.8-.3-.7-.6-1.2-1.1-1.6zm-6.7-6.9h1.9c1.1 0 2 .2 2.5.7.5.4.8 1 .8 1.8 0 .6-.2 1.1-.5 1.5-.3.5-.7.8-1.3 1s-1.4.3-2.5.3h-.9v-5.3zm5.9 11.8c-.3.5-.8.9-1.4 1.1-.6.2-1.4.3-2.6.3h-2v-6.3h.9c1.4 0 2.4.1 2.9.2.8.2 1.5.6 2 1.1.5.5.7 1.2.7 1.9.1.6-.1 1.2-.5 1.7zm5.5 3.1h9.3v-1.6h-7.7v-6.4h7.7v-1.6h-7.7V41h7.8v-1.6h-9.4v16.3zm19.1-9c-.9-.4-2.4-.6-4.5-.6h-.8v-5.3h6.6v-1.6H123v16.5h4.5c1.7 0 3-.5 3.9-1.4.9-.9 1.4-2 1.4-3.3 0-1-.3-1.8-.8-2.6-.4-.7-1.2-1.3-2.1-1.7zm.7 6c-.3.5-.8.8-1.3 1.1-.6.2-1.4.3-2.6.3h-2v-6.3h.9c1.4 0 2.4.1 3.1.3.7.2 1.3.5 1.7 1.1s.7 1.2.7 1.9c0 .6-.1 1.1-.5 1.6zm4.3-2.4h6.1v-1.4h-6.1v1.4zm13.4-8.7c1.1-.6 2.3-.9 3.6-.9 1.2 0 2.3.3 3.3.7 1 .5 1.9 1.2 2.6 2.1l1.3-1c-.8-1.1-1.8-2-3-2.6-1.2-.6-2.6-.9-4.1-.9-2.5 0-4.7.8-6.3 2.4-1.7 1.6-2.5 3.6-2.6 6.1 0 2.3.7 4.2 2.1 5.9 1.6 1.9 3.9 2.9 6.8 2.9 1.5 0 2.9-.3 4.1-.8 1.2-.6 2.3-1.4 3.1-2.4l-1.3-1c-1.6 1.8-3.5 2.7-5.8 2.7-2.1 0-3.8-.7-5.2-2-1.4-1.3-2-3-2-5 0-1.3.3-2.5.9-3.6.5-1.2 1.3-2 2.5-2.6zm12.4-.5h3.7l-.1 14.8h1.7l.1-14.8h3.7v-1.6h-9l-.1 1.6zm16.9 9.7l-4.9-11.2h-1.9l5.9 13.2c-.4.9-.7 1.5-1.1 1.7-.3.2-.7.3-1.1.3-.3 0-.6-.1-.8-.2-.3-.1-.8-.6-1.6-1.4l-1.2 1c.8.9 1.5 1.5 2 1.7.5.2 1.1.4 1.7.4 1.5 0 2.5-.7 3.1-2.1l6.3-14.7h-1.8l-4.6 11.3zm15.9-11.1h-.6l-6.5 14.8h-1.3v4h1.6V56l13.2.1v2.5h1.6v-4h-1.3l-6.7-14.9zm-5.2 14.8l4.9-11.5 5.1 11.5h-10zm17.2-2l.1-12.8H204l-.1 16.4h.4l10.9-12.5-.2 12.6h1.7l.1-16.4h-.4l-10.9 12.7zm21.4-12.7c-1.8 0-3.1.1-3.7.2-1 .2-1.8.7-2.4 1.4-.6.7-.9 1.6-.9 2.7 0 .9.2 1.7.6 2.4.4.7 1 1.2 1.8 1.5.8.4 1.9.5 3.2.5l-5.9 7.6h2l5.9-7.6h.9v7.6h1.6l.1-16.4-3.2.1zm1.6 7.2h-2.8c-1.1 0-1.9-.1-2.4-.3-.5-.2-.9-.5-1.2-1-.3-.5-.4-1-.4-1.5 0-.6.2-1 .5-1.5.3-.4.7-.8 1.2-1 .5-.2 1.3-.3 2.4-.3h2.9l-.2 5.6z"></path></svg><svg id="logo_white" viewBox="0 0 238.3 58.6" width="238.3" height="58.6" y="256"><style>.st0{fill:#f9fbfd}.st1{fill:#00cc45}</style><path class="st0" d="M67.1 0L28.9 56.6l60.5.1zM0 .2v.3l22.3 56.1L60.3.2z"></path><path class="st1" d="M26.8 16.3l8.7-11-5.7-.1-6.8 8.6.1-8.6h-4.8L18.2 30l4.8.1V19l7.6 11.1h5.6zM71 37.4c-.9-1.3-2-2.2-3.3-2.6-1.3-.5-3-.7-5.1-.7h-1v-4.8h8.3v-4.6l-13-.1-.1 24.9h7c2.1 0 3.7-.3 4.8-.9 1.2-.6 2.1-1.5 2.8-2.5.7-1 1-2.4 1-4.1-.1-1.8-.5-3.4-1.4-4.6zm-4.2 6.8c-.6.6-1.9.8-4.1.8h-1.2v-6.7h1c3.4 0 5.2 1.2 5.2 3.6 0 .9-.3 1.7-.9 2.3z"></path><path class="st0" d="M105.5.3h-3.3l-10 9.3V.3h-2.5l-.1 24.9h2.5l.1-11.6L103 25.1h3.3L93.5 11.4l12-11.1zm15.3.4c-1-.3-2.9-.4-5.7-.4h-5l-.1 24.9h2.5l.1-11.6h1.8c3.1 0 5.2-.1 6.3-.4 1.5-.4 2.8-1.1 3.6-2.2.9-1.1 1.3-2.4 1.3-4.1 0-1.6-.4-3-1.3-4.1-.9-1-2-1.7-3.5-2.1zm1.6 8.6c-.5.7-1.1 1.2-1.9 1.5-.8.3-2 .5-3.7.4l-4.2-.1V2.7h4.4c1.7 0 2.9.2 3.6.5.7.3 1.3.8 1.8 1.5.4.7.7 1.5.7 2.3 0 .9-.3 1.6-.7 2.3zM140.2.5l-11.9 24.8h2.8l3.9-8.2 10.7.1 3.9 8.2h2.7L140.8.5h-.6zm-4 14.2l4.3-9 4.2 9h-8.5zM163 3.9c1.7-.9 3.5-1.4 5.5-1.4 1.8 0 3.5.4 5 1.1 1.5.7 2.8 1.8 3.9 3.2l2-1.5c-1.2-1.7-2.7-3-4.6-3.9-1.9-.9-4-1.4-6.3-1.4-3.8 0-7 1.2-9.6 3.7-2.6 2.5-3.9 5.5-3.9 9.2 0 3.5 1 6.4 3.1 8.9 2.5 2.9 5.9 4.4 10.3 4.4 2.3 0 4.4-.4 6.2-1.3 1.9-.9 3.4-2.1 4.7-3.6l-2-1.5c-2.4 2.7-5.3 4.1-8.8 4-3.2 0-5.8-1-7.9-3.1s-3.1-4.6-3.1-7.6c0-2 .5-3.8 1.4-5.4 1.1-1.6 2.4-2.9 4.1-3.8zm31.7 8.1c-1.4-.6-3.6-.8-6.7-.9h-1.2v-8l10 .1V.8L184.3.7l-.1 24.9h6.8c2.5 0 4.5-.7 5.9-2.1 1.4-1.4 2.1-3.1 2.2-5 0-1.4-.4-2.8-1.2-3.9-.7-1.2-1.8-2.1-3.2-2.6zm1.1 9c-.5.7-1.2 1.3-2 1.6-.8.4-2.2.5-4 .5h-3.1v-9.5h1.4c2.1 0 3.7.1 4.7.4 1.1.3 1.9.8 2.6 1.6.7.8 1.1 1.8 1 2.9.2 1-.1 1.8-.6 2.5zm8.3 4.7l14.1.1v-2.4l-11.7-.1.1-9.8 11.7.1v-2.4l-11.7-.1V3.3l11.8.1V1L204.2.9l-.1 24.8zm32.8-22.2c-.9-1.1-2.1-1.8-3.5-2.2-1-.3-2.9-.4-5.7-.4h-5l-.1 24.9h2.5l.1-11.6h1.8c3.1 0 5.2-.1 6.3-.4 1.5-.4 2.8-1.1 3.6-2.2.9-1.1 1.3-2.4 1.3-4.1.1-1.5-.4-2.9-1.3-4zM235 9.9c-.5.7-1.1 1.2-1.9 1.5-.8.3-2 .5-3.7.4l-4.2-.1V3.3h4.4c1.7 0 2.9.2 3.6.5.7.3 1.3.8 1.8 1.5.4.7.7 1.5.7 2.3 0 .9-.2 1.6-.7 2.3zM106.1 47.7c-.5-.4-1.1-.7-2-1 .7-.4 1.2-.9 1.6-1.4.4-.6.5-1.3.5-2 0-.8-.2-1.5-.6-2.1-.4-.6-1-1.1-1.6-1.4-.7-.3-1.7-.5-3-.5h-3.2l-.1 16.4h4.5c1.6 0 2.9-.4 3.9-1.3s1.5-2 1.5-3.3c0-.6-.1-1.2-.4-1.8-.3-.7-.6-1.2-1.1-1.6zm-6.7-6.9h1.9c1.1 0 2 .2 2.5.7.5.4.8 1 .8 1.8 0 .6-.2 1.1-.5 1.5-.3.5-.7.8-1.3 1s-1.4.3-2.5.3h-.9v-5.3zm5.9 11.8c-.3.5-.8.9-1.4 1.1-.6.2-1.4.3-2.6.3h-2v-6.3h.9c1.4 0 2.4.1 2.9.2.8.2 1.5.6 2 1.1.5.5.7 1.2.7 1.9.1.6-.1 1.2-.5 1.7zm5.5 3.1h9.3v-1.6h-7.7v-6.4h7.7v-1.6h-7.7V41h7.8v-1.6h-9.4v16.3zm19.1-9c-.9-.4-2.4-.6-4.5-.6h-.8v-5.3h6.6v-1.6H123v16.5h4.5c1.7 0 3-.5 3.9-1.4.9-.9 1.4-2 1.4-3.3 0-1-.3-1.8-.8-2.6-.4-.7-1.2-1.3-2.1-1.7zm.7 6c-.3.5-.8.8-1.3 1.1-.6.2-1.4.3-2.6.3h-2v-6.3h.9c1.4 0 2.4.1 3.1.3.7.2 1.3.5 1.7 1.1s.7 1.2.7 1.9c0 .6-.1 1.1-.5 1.6zm4.3-2.4h6.1v-1.4h-6.1v1.4zm13.4-8.7c1.1-.6 2.3-.9 3.6-.9 1.2 0 2.3.3 3.3.7 1 .5 1.9 1.2 2.6 2.1l1.3-1c-.8-1.1-1.8-2-3-2.6-1.2-.6-2.6-.9-4.1-.9-2.5 0-4.7.8-6.3 2.4-1.7 1.6-2.5 3.6-2.6 6.1 0 2.3.7 4.2 2.1 5.9 1.6 1.9 3.9 2.9 6.8 2.9 1.5 0 2.9-.3 4.1-.8 1.2-.6 2.3-1.4 3.1-2.4l-1.3-1c-1.6 1.8-3.5 2.7-5.8 2.7-2.1 0-3.8-.7-5.2-2-1.4-1.3-2-3-2-5 0-1.3.3-2.5.9-3.6.5-1.2 1.3-2 2.5-2.6zm12.4-.5h3.7l-.1 14.8h1.7l.1-14.8h3.7v-1.6h-9l-.1 1.6zm16.9 9.7l-4.9-11.2h-1.9l5.9 13.2c-.4.9-.7 1.5-1.1 1.7-.3.2-.7.3-1.1.3-.3 0-.6-.1-.8-.2-.3-.1-.8-.6-1.6-1.4l-1.2 1c.8.9 1.5 1.5 2 1.7.5.2 1.1.4 1.7.4 1.5 0 2.5-.7 3.1-2.1l6.3-14.7h-1.8l-4.6 11.3zm15.9-11.1h-.6l-6.5 14.8h-1.3v4h1.6V56l13.2.1v2.5h1.6v-4h-1.3l-6.7-14.9zm-5.2 14.8l4.9-11.5 5.1 11.5h-10zm17.2-2l.1-12.8H204l-.1 16.4h.4l10.9-12.5-.2 12.6h1.7l.1-16.4h-.4l-10.9 12.7zm21.4-12.7c-1.8 0-3.1.1-3.7.2-1 .2-1.8.7-2.4 1.4-.6.7-.9 1.6-.9 2.7 0 .9.2 1.7.6 2.4.4.7 1 1.2 1.8 1.5.8.4 1.9.5 3.2.5l-5.9 7.6h2l5.9-7.6h.9v7.6h1.6l.1-16.4-3.2.1zm1.6 7.2h-2.8c-1.1 0-1.9-.1-2.4-.3-.5-.2-.9-.5-1.2-1-.3-.5-.4-1-.4-1.5 0-.6.2-1 .5-1.5.3-.4.7-.8 1.2-1 .5-.2 1.3-.3 2.4-.3h2.9l-.2 5.6z"></path></svg><svg id="phone" viewBox="0 0 56.7 56.7" width="56.7" height="56.7" y="315"><style>.st0{fill:#00cc45}</style><path class="st0" d="M0 27.5c.1-1.1.2-2.1.3-3.2C.9 20 2.5 16 4.9 12.4 9.4 6 15.4 1.8 23 .5c11.6-2 21.1 1.8 28.3 11.2 2.8 3.7 4.5 7.9 5.1 12.6.9 6.6-.3 12.8-3.7 18.5-.5.9-1.4 1-1.9.2-.3-.4-.2-.9.1-1.3 1.4-2.4 2.5-4.9 3.1-7.7 1.5-7.1.4-13.7-3.4-19.8-4.1-6.2-9.7-10.1-17-11.6-7.7-1.5-14.8.1-21 4.8C7 11.6 3.7 17.2 2.5 24.1c-1.7 10 3 20.7 11.5 26.2 3.6 2.3 7.6 3.8 11.8 4.2 4.3.4 8.5 0 12.5-1.8 1.6-.7 3.1-1.7 4.1-3.1.5-.7.8-1.5 1.1-2.3.1-.3 0-.8-.2-1.2-.2-.5-.8-.6-1.1-.2-2.1 2.5-4.7 2.4-7.5 1.6-2.6-.8-5-2.2-7.2-3.9-5.9-4.5-11.2-9.7-15.4-15.8-1.5-2.1-2.7-4.3-3.2-6.8-.3-1.2-.3-2.3 0-3.5.2-.8.6-1.6 1.2-2.2l3-3c1.8-1.8 4.4-1.6 6 .4 1.2 1.6 2.5 3.1 3.7 4.7 1.2 1.6 1.2 3.5 0 5.1-.3.3-.5.6-.8 1-.6.8-.6 1.8.1 2.5l8.7 8.7c.7.7 1.6.7 2.4.2.3-.2.6-.4.8-.7 1.8-1.4 3.7-1.4 5.4 0 1.5 1.2 3 2.3 4.4 3.5 2.1 1.6 2.3 4.2.4 6.1l-.3.3v.1c1.5 1.2 1.6 2.8 1.1 4.5-.6 1.8-1.8 3.2-3.3 4.4-2.4 1.9-5.2 2.9-8.2 3.4-1.2.2-2.4.3-3.5.4-.2 0-.4.1-.5.1h-2.1c-.2 0-.4-.1-.7-.1-1.5-.2-2.9-.3-4.4-.5-5-1-9.4-3.2-13.1-6.6C3.9 45 .7 39-.1 31.8c-.1-.8-.2-1.5-.2-2.3.3-.9.3-1.5.3-2zm37.8 18.2c.8 0 1.6-.1 2.2-.7 1.1-1 2.1-2.1 3.1-3.1.8-.8.7-2-.2-2.8-1.6-1.3-3.2-2.5-4.8-3.7-.8-.6-1.6-.6-2.4 0-.4.3-.7.6-1.1.9-1.5 1.1-3.7 1-5-.3-3-3-6-5.9-8.9-8.9-1.3-1.3-1.4-3.4-.3-4.9.3-.4.6-.7.9-1.1.7-.9.7-1.7 0-2.6-1.2-1.5-2.4-3-3.5-4.5-.9-1.1-2-1.2-3-.2l-2.7 2.7c-.8.7-1.1 1.6-1 2.6 0 .6.1 1.1.2 1.7.6 2.4 1.9 4.5 3.3 6.4 3.1 4.4 6.9 8.2 10.9 11.8 2.5 2.2 5.2 4.3 8.3 5.7 1.1.5 2.5 1 4 1z"></path></svg></svg>