<?xml version="1.0" encoding="utf-8"?>
<!-- Generator: Adobe Illustrator 21.0.2, SVG Export Plug-In . SVG Version: 6.00 Build 0)  -->
<svg version="1.1" id="Слой_1" xmlns="http://www.w3.org/2000/svg" xmlns:xlink="http://www.w3.org/1999/xlink" x="0px" y="0px"
	 viewBox="0 0 56.7 56.7" style="enable-background:new 0 0 56.7 56.7;" xml:space="preserve">
<g>
	<path class="st0" d="M56.7,26.6c0,1.2,0,2.4,0,3.5c0,0.1-0.1,0.3-0.1,0.4c-0.4,4.9-1.9,9.4-4.6,13.5c-5.4,7.9-12.9,12.1-22.4,12.7
		c-5.1,0.3-10-0.8-14.5-3.3c-9.3-5.2-14.4-13.2-15-23.8c-0.4-6.1,1.2-11.8,4.7-16.9C9.2,6.1,15.4,2,23.3,0.5
		c1.1-0.2,2.2-0.3,3.3-0.5c1.2,0,2.4,0,3.5,0c0.1,0,0.3,0.1,0.4,0.1C34.9,0.4,39,1.7,42.8,4c7.3,4.5,11.8,10.9,13.5,19.4
		C56.4,24.4,56.5,25.5,56.7,26.6z M3.8,28.3c0,13.5,10.9,24.6,24.5,24.6C41.8,53,52.8,42,52.9,28.4C53,14.9,42,3.8,28.4,3.8
		C14.8,3.8,3.8,14.7,3.8,28.3z"/>
	<path class="st0" d="M30.4,38c2.8-2.9,5.7-5.7,8.5-8.5c0.9,0.9,1.8,1.8,2.6,2.6c-4.4,4.3-8.7,8.7-13,13c-4.3-4.3-8.7-8.7-13.1-13.1
		c0.8-0.8,1.6-1.6,2.5-2.4c2.8,2.8,5.6,5.6,8.4,8.5c0.1,0,0.1-0.1,0.2-0.1c0-8.9,0-17.7,0-26.6c1.3,0,2.5,0,3.8,0
		c0,8.9,0,17.7,0,26.6C30.3,38,30.3,38,30.4,38z"/>
</g>
</svg>
