<svg id="icons" enable-background="new 0 0 64 64" height="512" viewBox="0 0 64 64" width="512" xmlns="http://www.w3.org/2000/svg"><path d="m15.998 43.002h3c.553 0 1-.447 1-1v-3c0-.553-.447-1-1-1h-3c-.553 0-1 .447-1 1v3c0 .553.447 1 1 1zm1-3h1v1h-1z"/><path d="m21.998 43.002h3c.553 0 1-.447 1-1v-3c0-.553-.447-1-1-1h-3c-.553 0-1 .447-1 1v3c0 .553.447 1 1 1zm1-3h1v1h-1z"/><path d="m27.996 43.002h3c.553 0 1-.447 1-1v-3c0-.553-.447-1-1-1h-3c-.553 0-1 .447-1 1v3c0 .553.447 1 1 1zm1-3h1v1h-1z"/><path d="m33.996 43.002h3c.553 0 1-.447 1-1v-3c0-.553-.447-1-1-1h-3c-.553 0-1 .447-1 1v3c0 .553.447 1 1 1zm1-3h1v1h-1z"/><path d="m39.994 43.002h3c.553 0 1-.447 1-1v-3c0-.553-.447-1-1-1h-3c-.553 0-1 .447-1 1v3c0 .553.447 1 1 1zm1-3h1v1h-1z"/><path d="m45.994 43.002h3c.553 0 1-.447 1-1v-3c0-.553-.447-1-1-1h-3c-.553 0-1 .447-1 1v3c0 .553.447 1 1 1zm1-3h1v1h-1z"/><path d="m52 43.002h3c.553 0 1-.447 1-1v-3c0-.553-.447-1-1-1h-3c-.553 0-1 .447-1 1v3c0 .553.447 1 1 1zm1-3h1v1h-1z"/><path d="m10 43.002h3c.553 0 1-.447 1-1v-3c0-.553-.447-1-1-1h-3c-.553 0-1 .447-1 1v3c0 .553.447 1 1 1zm1-3h1v1h-1z"/><path d="m18.496 44.002c-.553 0-1 .447-1 1v3c0 .553.447 1 1 1h3c.553 0 1-.447 1-1v-3c0-.553-.447-1-1-1zm2 3h-1v-1h1z"/><path d="m16.496 48.002v-3c0-.553-.447-1-1-1h-3c-.553 0-1 .447-1 1v3c0 .553.447 1 1 1h3c.553 0 1-.447 1-1zm-2-1h-1v-1h1z"/><path d="m9.496 44.002h-3c-.553 0-1 .447-1 1v3c0 .553.447 1 1 1h3c.553 0 1-.447 1-1v-3c0-.553-.447-1-1-1zm-1 3h-1v-1h1z"/><path d="m24.494 44.002c-.553 0-1 .447-1 1v3c0 .553.447 1 1 1h3c.553 0 1-.447 1-1v-3c0-.553-.447-1-1-1zm2 3h-1v-1h1z"/><path d="m30.494 44.002c-.553 0-1 .447-1 1v3c0 .553.447 1 1 1h3c.553 0 1-.447 1-1v-3c0-.553-.447-1-1-1zm2 3h-1v-1h1z"/><path d="m36.492 44.002c-.553 0-1 .447-1 1v3c0 .553.447 1 1 1h3c.553 0 1-.447 1-1v-3c0-.553-.447-1-1-1zm2 3h-1v-1h1z"/><path d="m42.492 44.002c-.553 0-1 .447-1 1v3c0 .553.447 1 1 1h3c.553 0 1-.447 1-1v-3c0-.553-.447-1-1-1zm2 3h-1v-1h1z"/><path d="m51.498 44.002h-3c-.553 0-1 .447-1 1v3c0 .553.447 1 1 1h3c.553 0 1-.447 1-1v-3c0-.553-.447-1-1-1zm-1 3h-1v-1h1z"/><path d="m54.504 44.002c-.553 0-1 .447-1 1v3c0 .553.447 1 1 1h3c.553 0 1-.447 1-1v-3c0-.553-.447-1-1-1zm2 3h-1v-1h1z"/><path d="m49 50h-33.01c-.553 0-1 .447-1 1v3c0 .553.447 1 1 1h33.01c.553 0 1-.447 1-1v-3c0-.553-.447-1-1-1zm-1 3h-31.01v-1h31.01z"/><path d="m62.856 32.996h.144c.553 0 1-.447 1-1s-.447-1-1-1h-.144c-.447-1.721-2-3-3.858-3h-5.998v-18.99c0-.13-.026-.26-.077-.382-.051-.123-.124-.234-.217-.326l-6.985-6.987c-.098-.103-.215-.184-.348-.237-.066-.027-.137-.029-.207-.042-.056-.011-.107-.034-.166-.034-.001 0-.002.001-.003.001s-.002-.001-.003-.001h-32.996c-.553 0-1 .447-1 1v25.998h-5.996c-1.858 0-3.411 1.279-3.858 3h-.144c-.553 0-1 .447-1 1s.447 1 1 1h.144c.351 1.347 1.38 2.407 2.704 2.811l-3.833 22.023c-.005.027.006.054.004.081-.003.031-.019.059-.019.091v4c0 .553.447 1 1 1h61.994c.553 0 1-.447 1-1v-4c0-.032-.016-.06-.019-.091-.002-.027.009-.054.004-.081l-3.833-22.022c1.329-.402 2.36-1.463 2.71-2.812zm-49.858 1v-30.998h31.002v6.008c0 .553.447 1 1 1h6v23.99zm33.002-29.578 3.586 3.588h-3.586zm-42.998 27.578c0-1.103.897-2 2-2h5.996v4h-5.994-.001-.001c-1.103 0-2-.897-2-2zm58.992 29.006h-59.994v-2h59.994zm-59.805-4 3.655-21.006h52.305l3.655 21.006zm56.809-23.006c-.001 0-.002.001-.004.001-.001 0-.002-.001-.004-.001h-5.99v-4h5.998c1.103 0 2 .897 2 2s-.897 2-2 2z"/><path d="m44 16.998h-24c-.553 0-1 .447-1 1s.447 1 1 1h24c.553 0 1-.447 1-1s-.447-1-1-1z"/><path d="m44 21.998h-24c-.553 0-1 .447-1 1s.447 1 1 1h24c.553 0 1-.447 1-1s-.447-1-1-1z"/><path d="m44 26.998h-24c-.553 0-1 .447-1 1s.447 1 1 1h24c.553 0 1-.447 1-1s-.447-1-1-1z"/></svg>