<?xml version="1.0" encoding="utf-8"?>
<!-- Generator: Adobe Illustrator 21.0.2, SVG Export Plug-In . SVG Version: 6.00 Build 0)  -->
<svg version="1.1" id="Слой_1" xmlns="http://www.w3.org/2000/svg" xmlns:xlink="http://www.w3.org/1999/xlink" x="0px" y="0px"
	 viewBox="0 0 170.1 141.3" style="enable-background:new 0 0 170.1 141.3;" xml:space="preserve">
<style type="text/css">
	.st0{fill:#00CC45;}
</style>
<g>
	<path class="st0" d="M170,141.3c-56.6,0-113.2,0-169.9,0c0-2,0-3.9,0-5.8C0.1,94.9,0.2,54.3,0,13.7C0,4.9,6.8,0,13.8,0
		C33.2,0,52.6,0,72,0c28.4,0,56.8,0,85.2,0c8,0,12.8,4.8,12.8,12.9c0,42.1,0,84.2,0,126.4C170.1,139.9,170,140.5,170,141.3z
		 M163.8,35c-52.6,0-105,0-157.4,0c0,33.4,0,66.7,0,100c52.5,0,104.9,0,157.4,0C163.8,101.6,163.8,68.4,163.8,35z M19.2,25.4
		c3.5,0,6.4-3,6.3-6.5c0-3.6-2.9-6.4-6.5-6.3c-3.6,0-6.4,2.9-6.3,6.5C12.7,22.7,15.6,25.5,19.2,25.4z M69.8,25.4
		c3.6,0.1,6.5-2.7,6.6-6.3c0.1-3.6-2.7-6.5-6.3-6.6c-3.6-0.1-6.5,2.7-6.6,6.3C63.5,22.4,66.3,25.4,69.8,25.4z M44.6,12.6
		c-3.6,0-6.4,2.8-6.5,6.4c0,3.6,2.8,6.5,6.4,6.5c3.6,0,6.5-2.8,6.5-6.4C51,15.5,48.1,12.6,44.6,12.6z"/>
	<path class="st0" d="M129.1,90.4c2,4.9,3.8,9.6,5.8,14.5c1.9,0,4.1,0,6.2,0c6.2,0,9.9,3.7,9.9,9.9c0,2.1,0,4.3-0.4,6.3
		c-0.9,4.4-4.6,7.4-8.9,7.5c-8.7,0.1-17.5,0-26.2,0c-0.2,0-0.5-0.1-0.9-0.1c3.1-8.1,3.3-16.1,0.1-24.1c-2.4-6-6.3-10.8-11.7-14.5
		c-10.7-7.3-25-7.6-35.5-0.1c-13.6,9.7-16.9,22.9-11.9,38.7c-0.7,0-1.3,0-2,0c-7.6,0-15.2,0-22.9,0c-6.8,0-11.5-4.7-11.5-11.5
		c0-7.4,2.7-11,9.2-12.1c0.8-0.1,1.7-0.1,2.6-0.1c1.5,0,3,0,4.4,0c2.1-5.1,4.1-10,6.2-15.4c-1-1.1-2.3-2.5-3.6-4
		c-4.3-4.6-4-10.2,0.2-14.9c5.9-6.8,13.1-7.2,19,0.1c1.3,1.6,2.3,1.6,4.1,0.7c3.4-1.7,7.1-2.9,10.7-4.3c1-0.4,1.5-0.7,1.5-1.9
		c-0.1-1.4,0-2.9,0-4.4c0.1-4.8,3.1-8.7,7.9-9.6c2.6-0.5,5.3-0.6,7.9-0.3c4.8,0.5,7.7,4.1,7.9,9.2c0.1,1.9-0.1,3.7,0.1,5.6
		c0,0.6,0.6,1.4,1.2,1.6c4.1,1.8,8.1,3.4,12.3,5.1c0.5,0.2,1.4,0.1,1.9-0.2c1.6-1.3,3-2.8,4.6-4.1c4.2-3.7,10.2-3.6,14.2,0.4
		c1.8,1.8,3.7,3.8,4.7,6c1.8,3.8,1,7.5-1.8,10.7C132.4,87.1,130.6,88.8,129.1,90.4z"/>
</g>
</svg>
