<?xml version="1.0" encoding="utf-8"?>
<!-- Generator: Adobe Illustrator 21.0.2, SVG Export Plug-In . SVG Version: 6.00 Build 0)  -->
<svg version="1.1" id="Слой_1" xmlns="http://www.w3.org/2000/svg" xmlns:xlink="http://www.w3.org/1999/xlink" x="0px" y="0px"
	 viewBox="0 0 122.1 170.1" style="enable-background:new 0 0 122.1 170.1;" xml:space="preserve">
<style type="text/css">
	.st0{fill:#00CC45;}
</style>
<g>
	<path class="st0" d="M11.8,158.4c32.8,0,65.6,0,98.5,0c0-43.6,0-87.2,0-131c-7.7,0-15.4,0-23.3,0c0-3.9,0-7.7,0-11.7
		c0.6,0,1.3,0,1.9,0c7.2,0,14.3,0,21.5,0c7.8,0,11.6,3.7,11.6,11.6c0,15.1,0,30.3,0,45.4c0,28,0,56,0,84.1c0,2.9-0.4,5.7-2,8.3
		c-1.9,3.2-4.7,5-8.4,5c-32.7,0-65.5,0-98.2,0c-6.7,0-13.5-6.2-13.5-13.5c0.1-42.5,0.1-85,0.1-127.5c0-7.8,3.7-12.6,11.5-13.2
		c8.3-0.6,16.6-0.1,25.1-0.1c0,3.8,0,7.5,0,11.4c-8.2,0-16.4,0-24.8,0C11.8,71,11.8,114.6,11.8,158.4z"/>
	<path class="st0" d="M73.2,11.1c0.1,0.1,0.2,0.1,0.3,0.1c6,0.5,7.4,2.1,7.3,8.1c0,2.1,0,4.2,0,6.2c0,3.6-2.5,6.2-6.1,6.2
		c-8.6,0-17.3,0-25.9,0c-3.7,0-6.1-2.5-6.1-6.1c0-2.5,0-5,0-7.5c0-4.5,2.1-6.7,6.6-6.8c0.4,0,0.7-0.1,1.1-0.1C52.8,3.1,56,0,61.9,0
		C67.7,0,70.9,3.1,73.2,11.1z M56.5,11.1c3.6,0,7.1,0,10.7,0c-0.3-3.4-2.7-5.6-5.6-5.4C58.7,5.8,56.5,8.1,56.5,11.1z"/>
	<path class="st0" d="M75.8,58.3c6.9,0,13.8,0,20.8,0c2.7,0,4.2,2.1,3,4.2c-0.7,1.3-1.9,1.6-3.3,1.6c-10.9,0-21.8,0-32.7,0
		c-2.9,0-5.8,0-8.6,0c-2.1,0-3.4-1.1-3.4-2.8c0-1.7,1.3-2.9,3.5-2.9C62,58.3,68.9,58.3,75.8,58.3z"/>
	<path class="st0" d="M75.8,89.1c-6.9,0-13.8,0-20.8,0c-2.2,0-3.6-1.4-3.4-3.2c0.2-1.6,1.4-2.6,3.4-2.6c6.6,0,13.1,0,19.7,0
		c7.3,0,14.6,0,21.9,0c2.2,0,3.6,1.4,3.4,3.2c-0.2,1.6-1.4,2.6-3.4,2.6C89.6,89.1,82.7,89.1,75.8,89.1z"/>
	<path class="st0" d="M75.7,114.1c-6.8,0-13.6,0-20.4,0c-2.4,0-3.7-1.1-3.7-2.9c0-1.8,1.4-2.9,3.7-2.9c13.7,0,27.3,0,41,0
		c2.3,0,3.7,1.1,3.7,2.8c0,1.8-1.4,2.9-3.7,2.9C89.4,114.2,82.6,114.1,75.7,114.1z"/>
	<path class="st0" d="M75.8,133.4c7,0,14,0,20.9,0c1.4,0,2.7,0.5,3,1.9c0.2,0.9,0,2.2-0.6,2.8c-0.6,0.6-1.8,1-2.8,1
		c-5.9,0.1-11.8,0-17.6,0c-7.7,0-15.4,0-23.1,0c-0.2,0-0.5,0-0.7,0c-1.9-0.1-3.2-1.2-3.3-2.8c-0.1-1.7,1.3-2.9,3.3-2.9
		c5.1,0,10.3,0,15.4,0C72.1,133.4,74,133.4,75.8,133.4z"/>
	<path class="st0" d="M32.5,60.9c2.7-2.8,5.1-5.2,7.5-7.6c1.5-1.5,3.3-1.5,4.5-0.1c1.1,1.3,0.9,2.7-0.2,3.8
		c-3.2,3.3-6.4,6.5-9.7,9.7c-1.2,1.2-2.7,1.2-4,0c-2.1-2-4.1-4-6.1-6.1c-1.2-1.3-1.2-2.8-0.1-4c1.1-1.2,2.8-1.3,4.1,0
		C29.8,57.9,31,59.3,32.5,60.9z"/>
	<path class="st0" d="M32.4,85.9c2.7-2.7,5.1-5.2,7.6-7.6c0.7-0.6,1.8-1.2,2.7-1.1c0.8,0.1,1.9,1,2.2,1.8c0.3,0.8,0.1,2.2-0.5,2.8
		c-3.2,3.4-6.5,6.7-9.8,9.9c-1.2,1.2-2.8,1.1-4.1-0.2c-2-1.9-3.9-3.9-5.8-5.8c-1.3-1.4-1.3-2.9-0.1-4.1c1.2-1.2,2.7-1.2,4.1,0.1
		C29.9,83,31,84.4,32.4,85.9z"/>
	<path class="st0" d="M33.8,105.5c3.2,0,5.9,2.6,5.9,5.8c0,3.1-2.7,5.9-5.8,5.9c-3.1,0-5.7-2.6-5.8-5.7
		C28,108.2,30.6,105.5,33.8,105.5z"/>
	<path class="st0" d="M39.7,136.3c0,3.2-2.8,5.8-5.9,5.8c-3.1-0.1-5.7-2.7-5.7-5.8c0-3.2,2.6-5.8,5.8-5.9
		C37,130.5,39.7,133.2,39.7,136.3z"/>
</g>
</svg>
