<?xml version="1.0" encoding="utf-8"?>
<!-- Generator: Adobe Illustrator 21.0.2, SVG Export Plug-In . SVG Version: 6.00 Build 0)  -->
<svg version="1.1" id="Слой_1" xmlns="http://www.w3.org/2000/svg" xmlns:xlink="http://www.w3.org/1999/xlink" x="0px" y="0px"
	 viewBox="0 0 170.1 117.2" style="enable-background:new 0 0 170.1 117.2;" xml:space="preserve">
<style type="text/css">
	.st0{fill:#00CC45;}
</style>
<g>
	<path class="st0" d="M158.6,95.8c3.9,0,7.6,0,11.3,0c0,3.9,0.4,7.8-0.1,11.5c-0.7,6-5.5,9.8-11.5,9.8c-14.6,0-29.2,0-43.8,0
		c-34.1,0-68.2,0-102.2,0c-7.5,0-12.3-4.8-12.3-12.3c0-2.9,0-5.8,0-9c4.3,0,8.4,0,12.9,0c0-1,0-1.7,0-2.5c0-27.1,0-54.2,0-81.3
		C12.9,4.9,17.8,0,25,0c40.4,0,80.8,0,121.2,0c5.9,0,10.2,2.8,11.8,7.9c0.4,1.4,0.6,2.9,0.6,4.4c0,27.1,0,54.2,0,81.3
		C158.6,94.3,158.6,94.9,158.6,95.8z M62.7,95.8c0.5,5.6,2.3,7.2,7.6,7.2c9.7,0,19.4,0,29.1,0c4,0,6.2-2.1,6.4-6.1
		c0-0.3,0.1-0.7,0.2-1.1c15.7,0,31.3,0,47,0c0-0.8,0-1.4,0-2.1c0-7.7,0-15.4,0-23.1c0-19.5,0-39.1,0-58.6c0-3.3-1.7-5.7-4.5-6.2
		c-1.1-0.2-2.3-0.1-3.4-0.1c-40.1,0-80.2,0-120.3,0c-4.1,0-6.4,2.3-6.4,6.4c0,27.2,0,54.4,0,81.5c0,0.7,0,1.4,0,2.2
		C33.3,95.8,47.9,95.8,62.7,95.8z"/>
	<path class="st0" d="M101.7,82.5c-0.1-0.3-0.1-0.3-0.1-0.4c-0.3-5.7-0.3-5.7,4.7-8.3c3.4-1.8,6.8-3.5,10.1-5.3c0.5-0.3,1-0.6,1.8-1
		c-5.7-3-11.2-5.8-16.6-8.7c0-2,0-4,0-6.2c0.6,0.2,1,0.4,1.5,0.6c7.1,3.7,14.1,7.4,21.2,11c1,0.5,1.6,1.1,1.4,2.3
		c-0.1,0.8,0.1,1.7-0.1,2.5c-0.1,0.5-0.4,1.2-0.8,1.4C117.3,74.5,109.6,78.5,101.7,82.5z"/>
	<path class="st0" d="M68.5,82.6c-2.9-1.6-5.6-3.1-8.3-4.6c-4.3-2.4-8.6-4.8-13-7.1c-1.1-0.6-1.6-1.2-1.5-2.5
		c0.1-0.8-0.1-1.7,0.1-2.5c0.1-0.5,0.3-1.1,0.7-1.3c7.2-4,14.5-8,22-12.2c0,2.1,0.1,4-0.1,5.8c0,0.4-0.7,0.9-1.2,1.1
		c-4.5,2.4-9,4.7-13.4,7c-0.6,0.3-1.1,0.6-2,1.1c0.8,0.4,1.4,0.8,2,1.1c4.4,2.3,8.8,4.6,13.3,6.9c1.1,0.5,1.4,1.2,1.4,2.3
		C68.4,79.3,68.5,80.8,68.5,82.6z"/>
	<path class="st0" d="M94.6,47.2c-1.8,5.6-3.6,11-5.3,16.3c-2.7,8.2-5.5,16.4-8.1,24.6c-0.5,1.6-1.2,2.1-2.7,1.9
		c-0.9-0.1-1.9,0-3.1,0c0.2-0.8,0.3-1.4,0.5-2c4.2-12.9,8.5-25.9,12.7-38.8c0.5-1.6,1.2-2.2,2.9-2C92.3,47.3,93.3,47.2,94.6,47.2z"
		/>
	<path class="st0" d="M92.7,28.1c4.3-2.3,5.5-2.2,8.4,0.5c1.5-0.7,2.9-1.6,4.4-2c2.4-0.7,4.9,0.8,5.1,3.2c0.3,3.6,0.1,7.2,0.1,10.9
		c-1.4,0-2.6,0-4.2,0c0-2.7,0-5.4,0-8.1c0-2.4-1.5-3.4-3.6-2.4c-0.6,0.3-1.2,1.2-1.2,1.8c-0.1,2.2-0.2,4.4,0,6.6
		c0.1,1.8-0.6,2.3-2.2,2.1c-0.6-0.1-1.3,0-2.1,0c0-2.8,0-5.5,0-8.2c0-2.4-1.5-3.4-3.7-2.4c-0.5,0.3-1.1,1.1-1.1,1.7
		c-0.1,2.3-0.1,4.6,0,7c0.1,1.5-0.4,2.1-1.9,1.9c-0.8-0.1-1.5,0-2.4,0c0-4.7,0-9.3,0-13.8C91,26.5,91.9,26.7,92.7,28.1z"/>
	<path class="st0" d="M56.6,21.5c1.4,0,2.7,0,4.2,0c0,2.2,0,4.4,0,6.6c1.5-0.6,2.8-1.2,4.1-1.5c3-0.6,5.3,1.1,5.5,4.1
		c0.2,3,0.1,5.9,0.1,8.9c0,0.9-0.3,1.3-1.3,1.3c-1,0-2,0-3.1,0c0-2.8,0-5.4,0-7.9c-0.1-2.6-1.4-3.5-3.9-2.7c-1,0.3-1.4,0.9-1.4,1.9
		c0.1,2.3-0.1,4.6,0,7c0.1,1.4-0.5,1.9-1.9,1.8c-0.8-0.1-1.5,0-2.4,0C56.6,34.4,56.6,28.1,56.6,21.5z"/>
	<path class="st0" d="M79.5,23c0,1.2,0,2.4,0,3.8c1.4,0,2.7,0,4.1,0c0,1.1,0,2,0,2.9c-1.3,0.1-2.6,0.1-4,0.2c0,2.2-0.1,4.4,0,6.5
		c0.1,1.7,1.1,2.1,3.7,1.6c0.8,2.5,0.5,3-1.9,3.1c-0.5,0-1,0-1.4,0c-3.6-0.1-4.8-1.4-4.9-4.9c0-2,0-4,0-6.2
		c-0.6-0.1-1.1-0.2-1.7-0.3c0-0.9,0-1.7,0-2.7c0.5-0.1,1-0.2,1.7-0.3c0-1.2,0-2.4,0-3.7C76.5,23,77.8,23,79.5,23z"/>
	<path class="st0" d="M114.6,21.6c1.3,0,2.5,0,3.9,0c0,6.5,0,13.1,0,19.7c-1.3,0-2.5,0-3.9,0C114.6,34.7,114.6,28.2,114.6,21.6z"/>
</g>
</svg>
