<?xml version="1.0" encoding="utf-8"?>
<!-- Generator: Adobe Illustrator 21.0.2, SVG Export Plug-In . SVG Version: 6.00 Build 0)  -->
<svg version="1.1" id="Слой_1" xmlns="http://www.w3.org/2000/svg" xmlns:xlink="http://www.w3.org/1999/xlink" x="0px" y="0px"
	 viewBox="0 0 170.1 143.1" style="enable-background:new 0 0 170.1 143.1;" xml:space="preserve">
<style type="text/css">
	.st0{fill:#00CC45;}
</style>
<g>
	<path class="st0" d="M0,121.7c4.4,0,8.5,0,12.9,0c0-1.2,0-2.3,0-3.3c0-26.7,0-53.3,0-80c0-7.9,4.7-12.6,12.5-12.6c14,0,28,0,42.1,0
		c0.6,0,1.2,0,2.4,0c-2.1,2-3.7,3.7-5.5,5.2c-0.4,0.4-1.2,0.3-1.8,0.4c-12.5,0-24.9,0-37.4,0c-4.5,0-6.7,2.2-6.7,6.7
		c0,27.1,0,54.2,0,81.3c0,0.7,0,1.4,0,2.3c14.8,0,29.5,0,44.3,0c0.1,1.1,0.1,2,0.3,2.8c0.6,2.5,2.8,4.3,5.5,4.3
		c10.6,0,21.1,0,31.7,0c3.2,0,5.6-2.4,5.7-5.7c0-0.4,0-0.8,0.1-1.5c15.7,0,31.3,0,47.1,0c0-0.7,0.1-1.2,0.1-1.8
		c0-27.4,0-54.8,0-82.2c0-1.3-0.3-2.6-0.9-3.7c-1-1.8-2.6-2.7-4.7-2.7c-1.8,0-3.7,0-5.7,0c0-1.8,0-3.6,0-5.8c3,0.3,6.1,0.1,9,0.9
		c5,1.3,8,5.8,8,11.2c0,17.2,0,34.5,0,51.7c0,10.1,0,20.3,0,30.4c0,0.5,0,1.1,0,1.8c3.8,0,7.5,0,11.1,0c0,4.4,0.5,8.7-0.1,12.8
		c-0.7,5.1-5.8,8.6-11.4,8.6c-20.6,0-41.2,0-61.8,0c-28.1,0-56.2,0-84.3,0c-7.5,0-12.3-4.8-12.3-12.3C0,127.9,0,124.9,0,121.7z"/>
	<path class="st0" d="M125.3,15.9c-2-1.9-3.7-3.5-5.5-5.2c-0.2,0.2-0.7,0.7-1.2,1.1c-14.4,14.4-28.9,28.8-43.3,43.3
		c-0.4,0.4-0.8,1.1-1.3,1.2c-0.8,0.2-1.9,0.3-2.5,0c-0.9-0.6-0.8-1.6-0.1-2.5c0.3-0.4,0.7-0.8,1.1-1.2C87,38.1,101.5,23.6,115.9,9.2
		c0.5-0.5,0.9-1,1.8-1.9c-1.2-0.1-1.9-0.2-2.7-0.2c-2.6,0-5.4-0.6-7.6,0.3c-2.1,0.9-3.7,3.3-5.4,5.1C90.4,24,78.9,35.6,67.3,47.1
		c-0.8,0.8-2,1.5-3.1,1.8c-1.5,0.4-2.8-0.4-3.6-1.8c-0.8-1.4-0.7-2.9,0.3-4.2c0.4-0.5,0.8-0.9,1.2-1.3c13.3-13.3,26.7-26.6,40-40
		c1.2-1.2,2.5-1.8,4.3-1.8c3.9,0.1,7.8,0,11.6,0c1.6,0,2.9,0.5,4.1,1.7c3.9,4,7.8,7.9,11.7,11.8c1.4,1.4,2.1,2.9,2,4.9
		c-0.1,3.6,0.1,7.3-0.1,10.9c-0.1,1.2-0.6,2.8-1.5,3.6c-13.6,13.7-27.2,27.3-40.8,40.9c-1.9,1.9-4.2,2.1-5.8,0.4
		c-1.6-1.6-1.4-3.8,0.5-5.7c13-13,26-25.9,39.1-38.8c1.1-1.1,1.6-2.2,1.5-3.7c-0.1-2.1,0-4.3-0.1-6.4c0-0.4-0.2-1-0.5-1.2
		c-0.3-0.1-0.8,0.2-1.2,0.5c-0.4,0.3-0.7,0.7-1,1c-14.3,14.3-28.7,28.7-43,43c-0.4,0.4-0.7,0.8-1.1,1.1c-0.9,0.8-2,1-2.6-0.1
		c-0.4-0.6-0.2-1.7,0-2.5c0.1-0.4,0.7-0.8,1.1-1.2c14.4-14.4,28.8-28.9,43.3-43.3C124.2,16.6,124.8,16.3,125.3,15.9z"/>
	<path class="st0" d="M61.1,54.7c-0.2,0.8-0.6,2.2-0.9,3.5c-1.2,4.1-2.3,8.1-3.6,12.2c-0.3,1.1-0.3,1.9,0.6,2.7
		c1.5,1.3,2.9,2.7,4.2,4.2c0.9,1.1,1.8,1.1,3.1,0.8c5.2-1.4,10.4-2.7,15.6-3.9c1.7-0.4,3,0.3,4,1.7c0.9,1.4,0.9,2.9-0.1,4.2
		c-0.6,0.7-1.5,1.4-2.5,1.6c-10.7,2.8-21.4,5.5-32.2,8.2c-3.3,0.8-5.7-1.7-4.8-5c3-10.5,6.1-21,9.2-31.5c0.6-2,2.3-3.1,4.2-2.8
		C59.9,50.6,61.2,52.1,61.1,54.7z"/>
</g>
</svg>
