<?xml version="1.0" encoding="utf-8"?>
<!-- Generator: Adobe Illustrator 21.0.2, SVG Export Plug-In . SVG Version: 6.00 Build 0)  -->
<svg version="1.1" id="Слой_1" xmlns="http://www.w3.org/2000/svg" xmlns:xlink="http://www.w3.org/1999/xlink" x="0px" y="0px"
	 viewBox="0 0 146.7 170.1" style="enable-background:new 0 0 146.7 170.1;" xml:space="preserve">
<style type="text/css">
	.st0{fill:#00CC45;}
</style>
<g>
	<path class="st0" d="M36.6,15.7c0,3.9,0,7.6,0,11.6c-8.2,0-16.5,0-24.8,0c0,43.8,0,87.4,0,131.2c0.8,0,1.7,0,2.5,0
		c21.9,0,43.8,0,65.7,0c1.4,0,2.4,0.4,3.3,1.4c3.2,3.3,6.6,6.6,10.1,10.1c-0.7,0.1-1.2,0.2-1.6,0.2c-26,0-52,0-78,0
		c-6.5,0-12.4-4.7-13.6-10.8C0,158.5,0,157.7,0,156.9c0-43.1,0-86.2,0-129.3C0,21,5.2,15.9,12.4,15.7C20.4,15.5,28.4,15.7,36.6,15.7
		z"/>
	<path class="st0" d="M110.4,135.6c0-36.3,0-72.2,0-108.2c-7.8,0-15.5,0-23.4,0c0-3.9,0-7.7,0-11.7c0.6,0,1.2,0,1.9,0
		c7.3,0,14.6,0,21.9,0c7.3,0,11.3,3.9,11.3,11.2c0,25.9,0,51.9,0,77.8c0,5.9,0,11.9,0,17.8c0,0.7-0.2,1.5-0.6,2
		C117.9,128.1,114.3,131.7,110.4,135.6z"/>
	<path class="st0" d="M101.7,153.6c0.7-1,1-1.7,1.5-2.2c11-11,22-22,33-33.1c1.8-1.8,3.8-2.8,6.4-1.9c3.8,1.3,5.3,5.8,2.8,9
		c-0.4,0.5-0.9,1-1.4,1.5c-12.6,12.6-25.1,25.1-37.7,37.7c-3.4,3.4-6.4,3.4-9.8,0c-6.8-6.8-13.5-13.5-20.3-20.3
		c-1.7-1.7-2.4-3.7-1.7-6c0.7-2.2,2.2-3.5,4.4-4c2.2-0.5,4,0.3,5.5,1.8c4.8,4.8,9.6,9.6,14.4,14.4
		C99.7,151.4,100.4,152.2,101.7,153.6z"/>
	<path class="st0" d="M50.3,11.1C52.8,3,55.9,0,61.8,0c5.9,0,9.1,3.2,11.3,11c0.1,0.1,0.2,0.1,0.3,0.2c5.6,0.3,7.3,2.1,7.4,7.7
		c0,2.2,0,4.4,0,6.6c0,3.7-2.4,6.2-6.1,6.2c-8.6,0-17.3,0-25.9,0c-3.7,0-6.1-2.5-6.1-6.1c0-2.5,0-5,0-7.5c0-4.5,2.1-6.7,6.6-6.8
		C49.6,11.2,50,11.2,50.3,11.1z M67.1,11.2c-0.1-3.3-2.7-5.7-5.7-5.5c-2.9,0.2-5.2,2.7-4.9,5.5C60,11.2,63.5,11.2,67.1,11.2z"/>
	<path class="st0" d="M61.8,52.5c11,0,21.9,0,32.9,0c0.9,0,2.1,0.2,2.7,0.8c0.6,0.7,1.1,2,0.9,2.9c-0.3,1.6-1.7,2.1-3.2,2.1
		c-7.8,0-15.6,0-23.3,0c-14.2,0-28.4,0-42.6,0c-0.3,0-0.6,0-0.9,0c-1.8-0.1-3.1-1.4-3.1-3c0.1-1.6,1.3-2.7,3.1-2.8
		c4.5,0,9.1,0,13.6,0C48.4,52.4,55.1,52.4,61.8,52.5C61.8,52.4,61.8,52.5,61.8,52.5z"/>
	<path class="st0" d="M61.8,67.2c10.8,0,21.7,0,32.5,0c0.5,0,1,0,1.5,0c1.6,0.2,2.6,1.1,2.7,2.8c0.1,1.5-1.1,2.7-2.7,2.9
		c-0.4,0-0.7,0-1.1,0c-22,0-44,0-66,0c-0.1,0-0.2,0-0.4,0c-1.9-0.1-3.2-1.2-3.2-2.8c-0.1-1.7,1.3-2.9,3.3-2.9c7,0,14,0,21,0
		C53.4,67.2,57.6,67.2,61.8,67.2C61.8,67.2,61.8,67.2,61.8,67.2z"/>
	<path class="st0" d="M61.8,87.6c-11,0-22.1,0-33.1,0c-1.5,0-2.7-0.3-3.4-1.7c-1-2.1,0.5-4,3.1-4c6.4,0,12.9,0,19.3,0
		c15.6,0,31.1,0,46.7,0c0.5,0,1-0.1,1.5,0c1.5,0.3,2.4,1.2,2.6,2.7c0.1,1.4-1,2.7-2.5,2.9c-0.7,0.1-1.3,0.1-2,0.1
		C83.2,87.7,72.5,87.7,61.8,87.6z"/>
	<path class="st0" d="M61.7,98.1c10.9,0,21.8,0,32.7,0c0.5,0,1,0,1.5,0c1.5,0.2,2.6,1.5,2.5,2.9c-0.1,1.5-1,2.4-2.5,2.8
		c-0.4,0.1-0.7,0-1.1,0c-22.1,0-44.1,0-66.2-0.1c-1.1,0-2.4-0.6-3.1-1.4c-0.5-0.5-0.5-2.1-0.1-2.6c0.7-0.8,2-1.6,3-1.6
		c6.4-0.1,12.7-0.1,19.1-0.1C52.3,98.1,57,98.1,61.7,98.1C61.7,98.1,61.7,98.1,61.7,98.1z"/>
	<path class="st0" d="M61.7,112.8c10.9,0,21.8,0,32.7,0c0.5,0,1,0,1.5,0c1.5,0.2,2.6,1.5,2.5,2.9c-0.1,1.5-1,2.5-2.5,2.8
		c-0.5,0.1-1,0-1.5,0c-21.9,0-43.7,0-65.6,0c-0.1,0-0.2,0-0.4,0c-2.1,0-3.5-1.2-3.5-2.9c0-1.7,1.4-2.8,3.4-2.8c6.4,0,12.7,0,19.1,0
		C52.3,112.8,57,112.8,61.7,112.8C61.7,112.8,61.7,112.8,61.7,112.8z"/>
</g>
</svg>
