<?xml version="1.0" encoding="utf-8"?>
<!-- Generator: Adobe Illustrator 21.0.2, SVG Export Plug-In . SVG Version: 6.00 Build 0)  -->
<svg version="1.1" id="Слой_1" xmlns="http://www.w3.org/2000/svg" xmlns:xlink="http://www.w3.org/1999/xlink" x="0px" y="0px"
	 viewBox="0 0 170.1 147" style="enable-background:new 0 0 170.1 147;" xml:space="preserve">
<style type="text/css">
	.st0{fill:#00CC45;}
</style>
<g>
	<path class="st0" d="M154.6,101.8c-1.4-0.5-2.4,0.1-3.4,1c-5.8,5.8-11.7,11.7-17.5,17.5c-0.3,0.3-0.4,0.6-0.8,1.2
		c-0.7-0.8-1-1.2-1.4-1.6c-2.5-2.6-5.1-5.1-7.6-7.6c-0.8-0.8-1.8-1.2-2.9-1c-1.2,0.3-2,0.9-2.3,2.1c-0.4,1.3,0,2.3,0.9,3.2
		c3.6,3.6,7.2,7.2,10.7,10.7c1.8,1.8,3.4,1.8,5.2,0c6.7-6.7,13.3-13.3,20-20c0.3-0.3,0.5-0.5,0.7-0.8
		C157.4,104.9,156.7,102.5,154.6,101.8z"/>
	<path class="st0" d="M12.1,121.3c0-24.8,0-49.5,0-74.2c46,0,92,0,138,0c0,10.4,0,20.6,0,30.4c4.1,2.3,8,4.4,11.9,6.6
		c0,0,0.1-0.2,0.1-0.3c0-21.5,0.1-43.1,0-64.6c0-5.5-4.2-10.1-9.6-11.2c-0.9-0.2-1.9-0.3-2.8-0.3c-5.4,0-10.7,0-16.1,0
		c0,4.1,0,8,0,12.1c5.6,0,11,0,16.4,0c0,7.2,0,14.2,0,21.2c-46,0-91.9,0-137.9,0c0-7.1,0-14.1,0-21.3c6.1,0,12,0,18,0
		c0-4.1,0-7.9,0-12c-6,0-11.7,0-17.5,0C5.2,7.6,0,12.7,0,20.2c0,33.5,0,67.1,0,100.6c0,7.2,5.2,12.4,12.5,12.4c29.9,0,59.8,0,89.7,0
		c0.5,0,0.9,0,1.3-0.1c-1.4-4-2.8-7.9-4.3-12C70.3,121.3,41.2,121.3,12.1,121.3z"/>
	<path class="st0" d="M137.6,82.1c-17.7-0.2-32.3,14.4-32.4,32.2c-0.1,17.9,14.3,32.6,32.1,32.7c17.8,0.1,32.6-14.3,32.8-31.9
		C170.3,96.8,155.9,82.2,137.6,82.1z M137.6,141c-14.5,0-26.5-11.9-26.5-26.5c0-14.5,11.9-26.6,26.4-26.6
		c14.5,0,26.7,11.8,26.7,26.2C164.2,129.1,152.5,141,137.6,141z"/>
	<path class="st0" d="M72.6,7.7c-8,0-15.9,0-23.9,0c0,3.9,0,7.7,0,11.8c8,0,15.9,0,23.9,0C72.6,15.5,72.6,11.6,72.6,7.7z"/>
	<path class="st0" d="M115,7.7c-8,0-15.9,0-23.9,0c0,4.1,0,7.9,0,11.7c8.1,0,16,0,23.9,0C115,15.4,115,11.6,115,7.7z"/>
	<path class="st0" d="M43.5,32.3c2.5-2.4,2.5-6.2-0.1-8.6c-0.9-0.8-1.1-1.7-1.1-2.8c0-2.8,0-5.5,0-8.3c0-3.2,0.1-6.3,0-9.5
		c-0.1-2.4-2.2-3.8-4.2-2.8c-1.4,0.7-1.8,1.8-1.7,3.3c0,5.8,0.1,11.6,0,17.4c0,0.9-0.5,1.9-1.1,2.5c-2.4,2.5-2.6,6.1-0.3,8.5
		C37.3,34.5,41.1,34.6,43.5,32.3z"/>
	<path class="st0" d="M86.1,32.1c2.4-2.5,2.2-6.1-0.3-8.6c-0.5-0.5-0.9-1.5-1-2.2c-0.1-2.9,0-5.8,0-8.7h0c0-3,0-5.9,0-8.9
		c0-2.3-1.1-3.7-2.9-3.7c-1.8,0-3,1.4-3,3.8c0,5.8,0,11.6,0,17.4c0,0.8-0.5,1.8-1,2.4c-2.5,2.6-2.6,6.2-0.2,8.6
		C80,34.6,83.8,34.5,86.1,32.1z"/>
	<path class="st0" d="M128.1,32.5c2.4-2,3.1-5.7,0.9-7.9c-1.8-1.8-1.8-3.8-1.8-6c0-2.1,0-4.2,0-6.2c0-2.9,0-5.8,0-8.7
		c0-2.3-1.1-3.7-2.9-3.7c-1.8-0.1-3,1.4-3,3.7c0,5.7,0,11.4,0,17c0,1.3-0.3,2.2-1.3,3.1c-2.4,2.2-2.3,5.8-0.1,8.2
		C122.1,34.4,125.6,34.6,128.1,32.5z"/>
	<path class="st0" d="M57.6,71.1c3.3-0.1,6-2.9,5.9-6.1c-0.1-3.3-2.9-6-6.2-5.9c-3.2,0.1-5.8,2.8-5.8,6
		C51.6,68.4,54.4,71.2,57.6,71.1z"/>
	<path class="st0" d="M81.9,71.1c3.2,0,5.9-2.7,6-5.9c0.1-3.2-2.7-6.1-5.9-6.1c-3.3,0-6,2.7-6.1,6C75.8,68.4,78.6,71.1,81.9,71.1z"
		/>
	<path class="st0" d="M112.1,65.2c0-3.3-2.7-6-6-6.1c-3.2,0-5.9,2.7-6,5.8c-0.1,3.2,2.6,6.1,5.9,6.1C109.2,71.2,112,68.5,112.1,65.2
		z"/>
	<path class="st0" d="M124.4,65.1c0,3.3,2.7,6,6,6.1c3.3,0,6-2.8,6-6c0-3.3-2.8-6-6.1-6C127.1,59.2,124.4,61.9,124.4,65.1z"/>
	<path class="st0" d="M39.3,84.8c0-3.3-2.8-6-6.1-6c-3.2,0-5.9,2.7-5.9,5.9c0,3.3,2.7,6.1,6,6.1C36.5,90.9,39.3,88.1,39.3,84.8z"/>
	<path class="st0" d="M57.6,78.9c-3.2,0-5.9,2.7-6,5.9c-0.1,3.3,2.6,6.1,5.9,6.1c3.2,0.1,6.1-2.7,6.1-6
		C63.6,81.6,60.8,78.9,57.6,78.9z"/>
	<path class="st0" d="M82,78.9c-3.3-0.1-6.1,2.6-6.1,5.9c-0.1,3.3,2.7,6.1,5.9,6.1c3.2,0,5.9-2.6,6.1-5.8C88,81.8,85.3,79,82,78.9z"
		/>
	<path class="st0" d="M106.2,90.8c3.3-0.1,6-2.8,5.9-6.1c-0.1-3.3-2.9-6-6.1-5.9c-3.2,0.1-5.8,2.8-5.8,6
		C100.1,88.1,102.9,90.9,106.2,90.8z"/>
	<path class="st0" d="M33.2,110.6c3.3,0,6-2.7,6.1-6c0-3.2-2.7-6-6-6c-3.2,0-5.9,2.7-6,5.9C27.2,107.7,30,110.5,33.2,110.6z"/>
	<path class="st0" d="M51.6,104.6c0,3.3,2.8,6,6.1,6c3.2,0,5.9-2.7,5.9-5.9c0-3.3-2.7-6.1-6-6.1C54.3,98.6,51.6,101.3,51.6,104.6z"
		/>
	<path class="st0" d="M75.8,104.5c-0.1,3.3,2.7,6.1,5.9,6.1c3.3,0,6-2.7,6.1-6c0-3.3-2.8-6-6-6C78.6,98.6,75.9,101.3,75.8,104.5z"/>
</g>
</svg>
