<?xml version="1.0" encoding="utf-8"?>
<!-- Generator: Adobe Illustrator 21.0.2, SVG Export Plug-In . SVG Version: 6.00 Build 0)  -->
<svg version="1.1" id="Слой_1" xmlns="http://www.w3.org/2000/svg" xmlns:xlink="http://www.w3.org/1999/xlink" x="0px" y="0px"
	 viewBox="0 0 170 170.1" style="enable-background:new 0 0 170 170.1;" xml:space="preserve">
<style type="text/css">
	.st0{fill:#00CC45;}
</style>
<g>
	<path class="st0" d="M128.4,110.9c6.8,6.8,13.5,13.4,20.2,20.1c5.9,5.9,11.8,11.7,17.6,17.6c6.7,6.8,4.1,18-4.8,20.8
		c-5,1.6-9.3,0.3-12.9-3.3c-11.9-11.9-23.8-23.7-35.6-35.6c-0.6-0.6-1.2-1.4-1.8-2.2c-19.3,12.6-39.7,16.1-61.4,9.5
		c-16.4-5-29.3-15-38.6-29.4c-18.5-28.6-13.3-67.3,12-90c26.1-23.5,64.4-24.6,91.8-2.6C141.4,37,150.8,77.8,128.4,110.9z M12.4,70.3
		c-0.1,32.3,25.9,58.3,58.2,58.3c31.6,0.1,57.9-26,58-57.6c0.1-32.4-25.8-58.6-57.9-58.6C38.5,12.4,12.4,38.3,12.4,70.3z"/>
	<path class="st0" d="M40.5,89.9c-1.3-3.1-2.6-5.9-3.7-8.8c-0.4-1-0.8-1.3-1.8-1.3c-1.8-0.1-3.7-0.1-5.3-0.8
		c-4.4-1.9-6.3-9-3.7-13.1c1.6-2.4,4-3.2,6.8-3.2c3.6-0.1,3.6-0.1,4.8-3.4c0.8-2.1,1.6-4.1,2.6-6.1c0.5-0.9,0.4-1.5-0.3-2.2
		c-0.9-0.9-1.7-1.8-2.5-2.8c-1.3-1.5-1.8-3.4-1.5-5.3c0.7-3.8,3.2-6.2,6.6-7.6c3.3-1.3,6.1,0,8.1,2.6c1.3,1.7,2.5,1.9,4.4,0.8
		c2-1.1,4.2-1.8,6.4-2.5c1-0.3,1.4-0.8,1.3-1.8c-0.1-0.6,0-1.3,0-2c0-4.1,1.9-6.6,6-7.1c2-0.3,4.2-0.2,6.2,0.2
		c3.2,0.6,4.9,2.9,4.9,6.1c0,1.4-0.4,3.2,0.3,4.2c0.6,0.9,2.4,1,3.7,1.5c1.2,0.5,2.5,0.9,3.6,1.6c1.9,1.4,3.2,0.9,4.6-0.8
		c1.6-2,3.6-3.5,6.4-3.3c4.2,0.2,6.6,3,8.3,6.4c1.5,3,0.6,6-1.9,8.1c-2.4,2.1-3.2,4-1.3,6.9c0.9,1.4,1.4,3.2,1.8,4.9
		c0.3,1.3,1,1.6,2.2,1.6c1.8,0,3.7,0,5.4,0.4c2.4,0.5,4.1,2,4.4,4.5c0.2,2.4,0.2,4.9-0.4,7.1c-0.9,3.6-3.6,5.1-7.6,5.1
		c-3.4,0-3.4,0-4.6,3.1c-0.8,2.1-1.8,4-2.8,6.3c0.9,0.8,1.8,1.6,2.8,2.5c3.2,2.9,3.5,7.3,0.5,10.4c-1.7,1.8-3.3,3.6-5.9,3.9
		c-3.1,0.4-5.5-1-7.3-3.3c-1.4-1.7-2.6-2-4.6-0.8c-1.7,1.1-3.8,1.8-5.8,2.4c-1.4,0.4-1.8,1.1-1.7,2.5c0,1.6,0,3.2-0.3,4.7
		c-1.1,4.5-4.5,6.5-9.8,5.9c-3.6-0.4-7.1-3.9-6.8-7.6c0.3-3.7-1-5.4-4.5-6.1c-1.4-0.2-2.8-0.9-3.9-1.7c-1.4-0.9-2.3-0.6-3.2,0.6
		c-1.9,2.4-4.2,3.9-7.4,3.5c-3-0.4-7.2-4.3-7.7-7.3c-0.4-2.6,0.2-4.8,2.1-6.6C38.9,91.4,39.8,90.6,40.5,89.9z M53.5,70.5
		c-0.1,9.6,7.7,17.5,17.5,17.7c9.5,0.1,17.6-7.8,17.7-17.3C88.7,61,81,53,71.3,52.9C61.5,52.7,53.5,60.6,53.5,70.5z"/>
</g>
</svg>
