<?xml version="1.0" encoding="utf-8"?>
<!-- Generator: Adobe Illustrator 21.0.2, SVG Export Plug-In . SVG Version: 6.00 Build 0)  -->
<svg version="1.1" id="Слой_1" xmlns="http://www.w3.org/2000/svg" xmlns:xlink="http://www.w3.org/1999/xlink" x="0px" y="0px"
	 viewBox="0 0 73.7 73.7" style="enable-background:new 0 0 73.7 73.7;" xml:space="preserve">
<style type="text/css">
	.st0{fill:#00CC45;}
</style>
<g>
	<circle class="st0" cx="36.8" cy="36.8" r="36.8"/>
	<g>
		<path d="M44.3,19c-2.1,0-4.1,0-6.2,0c-0.2,0-0.4,0-0.7,0c0-0.2,0-0.4,0-0.6c0-0.9-0.2-1.1-1.1-1.1c-0.7,0-1.4,0-2.2,0
			c-3,0-5.9,0-8.9,0c-0.7,0-0.9,0.2-0.9,0.9c0,0.2,0,0.5,0,0.8c-0.3,0-0.5,0-0.8,0c-2,0-4,0-6,0c-0.9,0-1.1,0.2-1.1,1.1
			c0,11.7,0,23.5,0,35.2c0,1,0.2,1.1,1.1,1.1c8.8,0,17.6,0,26.4,0c1.2,0,1.2-0.1,1.2-1.2c0-11.7,0-23.5,0-35.2
			C45.3,19.1,45.1,19,44.3,19z M25.8,18.7c3.4,0,6.8,0,10.2,0c0,0.7,0,1.3,0,2c-3.4,0-6.8,0-10.2,0C25.8,20,25.8,19.4,25.8,18.7z
			 M43.7,52c-8.6,0-17.1,0-25.8,0c0-10.5,0-21,0-31.5c2.1,0,4.2,0,6.3,0c0,0.3,0,0.6,0,0.8c0,0.7,0.2,0.9,0.9,0.9
			c3.8,0,7.5,0,11.3,0c0.6,0,0.8-0.2,0.9-0.9c0-0.3,0-0.5,0-0.9c2.2,0,4.2,0,6.4,0C43.7,31,43.7,41.4,43.7,52z"/>
		<path d="M57.1,31.9c0-0.3-0.1-0.7-0.2-1c-0.8-1.8-1.7-3.5-2.6-5.3c-0.5-1-0.9-2-0.8-3.2c0-0.1,0-0.3,0-0.3
			c-0.2-0.2-0.5-0.5-0.7-0.5c-0.2,0-0.5,0.3-0.6,0.6c-0.1,0.2-0.1,0.5,0,0.8c0.1,0.7-0.1,1.4-0.5,2.1c-0.9,1.9-1.9,3.8-2.8,5.7
			c-0.2,0.4-0.3,1-0.3,1.5c0,3.3,0,6.6,0,9.9c0,0,0,0,0,0c0,3.3,0,6.7,0,10c0,1.8,1.1,3.2,2.8,3.6c0.6,0.1,1.3,0.1,1.9,0.1
			c2.2,0,3.7-1.5,3.7-3.7C57.1,45.3,57.1,38.6,57.1,31.9z M52.8,25.9c1,2,1.9,3.8,2.8,5.7c-1.2,0.9-4.1,0.9-5.6,0
			C50.9,29.7,51.9,27.8,52.8,25.9z M55.1,49.4c-1.6,0.5-3.1,0.5-4.6,0c-0.3-0.1-0.5-0.3-0.5-0.7c0-5,0-9.9,0-14.9c0-0.1,0-0.2,0-0.4
			c1.9,0.5,3.7,0.6,5.6,0c0,0.2,0,0.4,0,0.6c0,4.9,0,9.7,0,14.6C55.7,49,55.5,49.2,55.1,49.4z"/>
		<path d="M22.2,28.2c-0.8,0-1,0.2-1,1c0,3,0,5.9,0,8.9c0,0.9,0.1,1.1,1.1,1.1c2.9,0,5.8,0,8.7,0c2.9,0,5.9,0,8.8,0c0.8,0,1-0.2,1-1
			c0-3,0-6,0-9.1c0-0.7-0.2-0.9-1-0.9C34.1,28.2,28.2,28.2,22.2,28.2z M39.5,37.7c-5.6,0-11.2,0-16.8,0c0-2.7,0-5.3,0-8
			c5.6,0,11.2,0,16.8,0C39.5,32.3,39.5,34.9,39.5,37.7z"/>
		<path d="M28.2,41.2c-2,0-4,0-6,0c-0.7,0-0.9,0.2-0.9,0.9c0,2,0,3.9,0,5.9c0,0.7,0.2,0.9,0.9,0.9c1,0,2.1,0,3.1,0c1,0,2,0,3,0
			c0.7,0,0.9-0.2,0.9-0.9c0-2,0-3.9,0-5.9C29.2,41.4,29,41.2,28.2,41.2z M27.7,47.5c-1.7,0-3.3,0-5.1,0c0-1.6,0-3.2,0-4.8
			c1.7,0,3.3,0,5.1,0C27.7,44.3,27.7,45.9,27.7,47.5z"/>
		<path d="M31.7,45.8c3,0,5.9,0,8.7,0c0-0.5,0-0.9,0-1.4c-2.9,0-5.8,0-8.7,0C31.7,44.9,31.7,45.3,31.7,45.8z"/>
		<path d="M40.4,41.5c-2.9,0-5.8,0-8.7,0c0,0.5,0,0.9,0,1.4c2.9,0,5.8,0,8.7,0C40.4,42.3,40.4,41.9,40.4,41.5z"/>
		<path d="M31.7,48.7c2.9,0,5.8,0,8.7,0c0-0.5,0-0.9,0-1.3c-3,0-5.9,0-8.7,0C31.7,47.8,31.7,48.2,31.7,48.7z"/>
		<path d="M25.9,24.7c-1.5,0-3,0-4.6,0c0,0.5,0,0.9,0,1.4c1.6,0,3.1,0,4.6,0C25.9,25.6,25.9,25.1,25.9,24.7z"/>
		<path d="M33.1,24.7c-1.5,0-3.1,0-4.6,0c0,0.5,0,0.9,0,1.3c1.6,0,3.1,0,4.6,0C33.1,25.6,33.1,25.1,33.1,24.7z"/>
		<path d="M35.9,26c1.6,0,3.1,0,4.6,0c0-0.5,0-0.9,0-1.3c-1.6,0-3.1,0-4.6,0C35.9,25.2,35.9,25.6,35.9,26z"/>
	</g>
</g>
</svg>
