<?xml version="1.0" encoding="utf-8"?>
<!-- Generator: Adobe Illustrator 21.0.2, SVG Export Plug-In . SVG Version: 6.00 Build 0)  -->
<svg version="1.1" id="Слой_1" xmlns="http://www.w3.org/2000/svg" xmlns:xlink="http://www.w3.org/1999/xlink" x="0px" y="0px"
	 viewBox="0 0 26.3 56.7" style="enable-background:new 0 0 26.3 56.7;" xml:space="preserve">
<style type="text/css">
	.st0{fill:#00CC45;}
</style>
<g>
	<path class="st0" d="M17.3,28.4c0,9.5,0,18.9,0,28.3c-3.9,0-7.7,0-11.7,0c0-9.4,0-18.8,0-28.3c-1.9,0-3.7,0-5.6,0
		c0-3.4,0-6.7,0-10.1c1.8,0,3.6,0,5.5,0c0-2,0-3.9,0-5.7c0-1.4,0.1-2.9,0.4-4.3c1-4.6,4.2-7.7,8.9-8.2c3.7-0.4,7.4-0.1,11.2-0.1
		c0,3.1,0,6.3,0,9.6c-1.9,0-3.8,0-5.7,0c-2.3,0-3.1,0.8-3.1,3c0,1.8,0,3.6,0,5.6c3,0,5.9,0,9,0c-0.3,2.6-0.5,5.1-0.7,7.6
		c-0.3,2.5-0.3,2.5-2.9,2.5C20.9,28.4,19.2,28.4,17.3,28.4z"/>
</g>
</svg>
