<?xml version="1.0" encoding="utf-8"?>
<!-- Generator: Adobe Illustrator 21.0.2, SVG Export Plug-In . SVG Version: 6.00 Build 0)  -->
<svg version="1.1" id="Слой_1" xmlns="http://www.w3.org/2000/svg" xmlns:xlink="http://www.w3.org/1999/xlink" x="0px" y="0px"
	 viewBox="0 0 73.7 73.7" style="enable-background:new 0 0 73.7 73.7;" xml:space="preserve">
<style type="text/css">
	.st0{fill:#00CC45;}
</style>
<g>
	<circle class="st0" cx="36.8" cy="36.8" r="36.8"/>
	<g>
		<path d="M50.7,33.3c0-4.6-1.8-8.9-5.1-12.2c-3.3-3.3-7.5-5.1-12.1-5.1c0,0,0,0,0,0c-4.6,0-9,1.8-12.2,5.1c-3.2,3.3-5,7.6-5,12.3
			c0,4.5,1.8,8.8,5.1,12.1c3.3,3.2,7.6,5,12.1,5c0,0,0,0,0,0C43,50.5,50.7,42.7,50.7,33.3z M33.2,48.6c-8.2-0.1-15.1-7.1-15.1-15.4
			c0.1-8.5,6.9-15.3,15.4-15.3c0,0,0.1,0,0.1,0c4.1,0,7.9,1.7,10.8,4.6c2.9,2.9,4.5,6.8,4.4,10.8c0,4.1-1.7,8-4.6,10.8
			C41.3,47.1,37.3,48.6,33.2,48.6z"/>
		<path d="M57,52.3c-0.9-0.9-1.9-1.9-2.8-2.9c-1.5-1.5-3-3-4.5-4.6c-0.2-0.2-0.5-0.4-0.8-0.5c-0.1-0.1-0.2-0.1-0.3-0.2L48.3,44
			L48,44.2c-0.1,0.1-0.2,0.1-0.4,0.2c-0.3,0.1-0.5,0.3-0.8,0.5c-0.7,0.7-1.4,1.4-2.1,2l-0.2,0.2c-0.8,0.8-0.8,2,0,2.8
			c1.4,1.4,2.8,2.8,4.2,4.2c1.1,1.1,2.2,2.1,3.2,3.2c0.2,0.2,0.5,0.4,0.8,0.4c0.3,0,0.5-0.1,0.8-0.4c1.2-1.2,2.3-2.3,3.4-3.3
			c0.3-0.3,0.4-0.5,0.4-0.8C57.4,52.8,57.3,52.5,57,52.3z"/>
		<path d="M42.2,31.4c-0.4-0.1-0.8-0.1-1.1-0.1c-0.3,0-0.4-0.1-0.5-0.3c-0.1-0.4-0.2-0.7-0.4-1c-0.4-0.6-0.2-1,0.3-1.4
			c0.5-0.4,0.7-1.1,0.4-1.7c-0.3-0.7-0.9-1.3-1.7-1.3c-0.6,0-1,0.3-1.3,0.7c-0.3,0.3-0.6,0.5-1,0.2c-0.2-0.2-0.5-0.2-0.7-0.3
			c-0.3-0.1-0.6-0.1-0.8-0.3c-0.1-0.2-0.1-0.6-0.1-0.9c0-0.7-0.4-1.2-1-1.3c-0.4-0.1-0.9-0.1-1.3,0c-0.9,0.1-1.2,0.6-1.2,1.5
			c0,0.1,0,0.3,0,0.4c0,0.2-0.1,0.3-0.3,0.4c-0.5,0.1-0.9,0.3-1.3,0.5c-0.4,0.2-0.6,0.2-0.9-0.2c-0.4-0.5-1-0.8-1.7-0.5
			c-0.7,0.3-1.2,0.8-1.4,1.6c-0.1,0.4,0,0.8,0.3,1.1c0.2,0.2,0.3,0.4,0.5,0.6c0.1,0.1,0.2,0.3,0.1,0.5c-0.2,0.4-0.4,0.8-0.5,1.3
			c-0.3,0.7-0.2,0.7-1,0.7c-0.6,0-1.1,0.2-1.4,0.7c-0.5,0.9-0.1,2.3,0.8,2.7c0.3,0.1,0.7,0.1,1.1,0.2c0.2,0,0.3,0.1,0.4,0.3
			c0.2,0.6,0.5,1.2,0.8,1.8c-0.2,0.1-0.3,0.3-0.5,0.5c-0.4,0.4-0.5,0.8-0.4,1.4c0.1,0.6,1,1.4,1.6,1.5c0.7,0.1,1.2-0.2,1.6-0.7
			c0.2-0.3,0.4-0.3,0.7-0.1c0.2,0.2,0.5,0.3,0.8,0.4c0.7,0.1,1,0.5,0.9,1.3c-0.1,0.8,0.7,1.5,1.4,1.6c1.1,0.1,1.8-0.3,2-1.2
			c0.1-0.3,0.1-0.6,0.1-1c0-0.3,0.1-0.4,0.4-0.5c0.4-0.1,0.8-0.3,1.2-0.5c0.4-0.3,0.7-0.2,1,0.2c0.4,0.5,0.9,0.8,1.5,0.7
			c0.5-0.1,0.9-0.5,1.2-0.8c0.6-0.7,0.6-1.6-0.1-2.2c-0.2-0.2-0.4-0.4-0.6-0.5c0.2-0.5,0.4-0.9,0.6-1.3c0.3-0.7,0.2-0.7,1-0.7
			c0.8,0,1.4-0.3,1.6-1.1c0.1-0.5,0.1-1,0.1-1.5C43,31.9,42.7,31.5,42.2,31.4z M33.4,36.7c-2,0-3.7-1.7-3.7-3.7
			c0-2.1,1.7-3.7,3.7-3.7c2,0,3.6,1.7,3.6,3.8C37.1,35.1,35.4,36.7,33.4,36.7z"/>
	</g>
</g>
</svg>
