<?xml version="1.0" encoding="utf-8"?>
<!-- Generator: Adobe Illustrator 21.0.2, SVG Export Plug-In . SVG Version: 6.00 Build 0)  -->
<svg version="1.1" id="Слой_1" xmlns="http://www.w3.org/2000/svg" xmlns:xlink="http://www.w3.org/1999/xlink" x="0px" y="0px"
	 viewBox="0 0 138.2 170.1" style="enable-background:new 0 0 138.2 170.1;" xml:space="preserve">
<g>
	<path d="M112.3,75.9c0,20.9,0,41.8,0,62.7c0,8.2-5,13.2-13.2,13.3c-28.8,0-57.6,0-86.4,0c-7.5,0-12.7-5.2-12.7-12.7
		C0,97.1,0,55,0,12.9C0,5.1,5.1,0,12.9,0c28.8,0,57.6,0,86.4,0c8,0,13.1,5.1,13.1,13.1C112.3,34,112.3,55,112.3,75.9
		C112.3,75.9,112.3,75.9,112.3,75.9z M5.9,75.9c0,21.1,0,42.2,0,63.3c0,4.2,2.5,6.7,6.7,6.7c28.9,0,57.9,0,86.8,0
		c4.5,0,6.9-2.4,6.9-6.9c0-42,0-84,0-125.9c0-4.8-2.3-7.1-7.1-7.1c-28.8,0-57.6,0-86.4,0c-4.5,0-6.9,2.4-6.9,6.9
		C5.9,33.9,5.9,54.9,5.9,75.9z"/>
	<path d="M25.9,158.1c1.9,0,3.7,0,5.3,0c0.8,1.4,1.3,2.9,2.3,4.1c1.2,1.5,3,1.9,4.9,1.9c25.9,0,51.8,0,77.7,0c3.2,0,6.5,0,9.7,0
		c3.8,0,6.4-2.6,6.4-6.3c0-42.4,0-84.8,0-127.2c0-3.9-2.6-6.4-6.5-6.4c-2.3,0-4.7,0-7.1,0c0-2,0-3.9,0-5.8c3.1,0,6.3-0.4,9.3,0.1
		c6.3,0.9,10.2,5.9,10.2,12.2c0,19.8,0,39.6,0,59.4c0,22.2,0,44.4,0,66.7c0,8.2-5,13.3-13.2,13.3c-28.8,0-57.6,0-86.4,0
		c-6.7,0-11.6-4.2-12.6-10.6C25.9,159.1,25.9,158.6,25.9,158.1z"/>
	<path d="M75.1,86.5c-4.1,0-8.2,0-12.3,0c-4,0-6.5-2.5-6.5-6.6c0-7.7,0-15.3,0-23c0-4.4,2.4-6.8,6.8-6.8c8.1,0,16.2,0,24.3,0
		c4.3,0,6.7,2.4,6.7,6.7c0,7.7,0,15.3,0,23c0,4.1-2.5,6.6-6.7,6.6c-2.1,0-4.2,0-6.3,0C79.1,86.5,77.1,86.5,75.1,86.5z"/>
	<path d="M56.2,25.7c-11.2,0-22.4,0-33.6,0c-0.6,0-1.1,0-1.7,0c-1.5-0.2-2.7-1.6-2.6-3c0.1-1.6,1-2.5,2.6-2.8c0.5-0.1,1.1,0,1.7,0
		c22.4,0,44.8,0,67.2,0c0.6,0,1.1,0,1.7,0c1.6,0.2,2.7,1.6,2.6,3c-0.1,1.6-1.1,2.5-2.6,2.8c-0.5,0.1-1,0-1.5,0
		C78.7,25.7,67.4,25.7,56.2,25.7z"/>
	<path d="M56.1,35c11.3,0,22.5,0,33.8,0c0.5,0,1,0,1.5,0c1.6,0.2,2.7,1.5,2.6,3c-0.1,1.6-1,2.5-2.6,2.9c-0.5,0.1-1,0-1.5,0.1
		c-22.6,0-45.2,0-67.7,0c-0.1,0-0.3,0-0.4,0c-2.2,0-3.6-1.2-3.6-3c0-1.7,1.4-2.9,3.5-2.9c6.6,0,13.2,0,19.7,0
		C46.4,35,51.3,35,56.1,35C56.1,35,56.1,35,56.1,35z"/>
	<path d="M56.3,95.7c11.1,0,22.3,0,33.4,0c0.4,0,0.9,0,1.3,0c1.8,0.1,3.1,1.4,3.1,3c0,1.6-1.3,2.9-3.1,2.9c-3.5,0.1-7.1,0-10.6,0
		c-19.2,0-38.3,0-57.5,0c-0.6,0-1.1,0-1.7,0c-1.7-0.2-2.9-1.4-2.9-3c0-1.5,1.2-2.8,2.9-2.9c1.6-0.1,3.2,0,4.7,0
		C36,95.7,46.2,95.7,56.3,95.7C56.3,95.7,56.3,95.7,56.3,95.7z"/>
	<path d="M56.2,116.9c-11.1,0-22.1,0-33.2,0c-0.5,0-1,0-1.5,0c-1.9-0.1-3.2-1.4-3.2-3c0.1-1.6,1.3-2.8,3.2-2.9c4-0.1,8.1,0,12.1,0
		c18.7,0,37.3,0,56,0c0.6,0,1.3,0,1.9,0c1.6,0.2,2.7,1.6,2.6,3c-0.1,1.6-1.1,2.5-2.6,2.8c-0.5,0.1-1,0-1.5,0
		C78.7,116.9,67.4,116.9,56.2,116.9z"/>
	<path d="M56,132.1c-10.9,0-21.8,0-32.6,0c-0.4,0-0.9,0-1.3,0c-2.4,0-3.8-1.2-3.8-3c0-1.8,1.5-2.9,3.9-2.9c3.7,0,7.5,0,11.2,0
		c18.9,0,37.7,0,56.6,0c0.3,0,0.5,0,0.8,0c2.1,0.1,3.5,1.3,3.4,3c0,1.7-1.4,2.9-3.5,2.9c-3.3,0-6.6,0-9.9,0
		C72.5,132.1,64.2,132.1,56,132.1C56,132.1,56,132.1,56,132.1z"/>
	<path d="M34,56.1c-4,0-8.1,0-12.1,0c-2.2,0-3.7-1.2-3.7-3c0-1.8,1.4-3,3.6-3c8.1,0,16.3,0,24.4,0c2.2,0,3.7,1.2,3.7,2.9
		c0,1.8-1.4,3-3.6,3C42.3,56.1,38.1,56.1,34,56.1z"/>
	<path d="M34.3,65.4c4,0,8,0,11.9,0c2.3,0,3.7,1.1,3.7,2.9c0.1,1.8-1.4,3-3.8,3c-8.1,0-16.2,0-24.3,0c-2.3,0-3.7-1.1-3.7-2.9
		c-0.1-1.9,1.4-3,3.8-3C26.1,65.3,30.2,65.4,34.3,65.4z"/>
	<path d="M33.9,86.5c-4,0-8,0-11.9,0c-2.4,0-3.8-1.2-3.8-3c0.1-1.8,1.4-2.9,3.7-2.9c8.1,0,16.2,0,24.3,0c2.4,0,3.8,1.2,3.8,3
		c-0.1,1.8-1.5,2.9-3.7,2.9C42.2,86.5,38.1,86.5,33.9,86.5z"/>
</g>
</svg>
