<?xml version="1.0" encoding="utf-8"?>
<!-- Generator: Adobe Illustrator 21.0.2, SVG Export Plug-In . SVG Version: 6.00 Build 0)  -->
<svg version="1.1" id="Слой_1" xmlns="http://www.w3.org/2000/svg" xmlns:xlink="http://www.w3.org/1999/xlink" x="0px" y="0px"
	 viewBox="0 0 56.7 56.6" style="enable-background:new 0 0 56.7 56.6;" xml:space="preserve">
<g>
	<path class="st0" d="M28.5,56.6c-3.9,0-7.8,0.1-11.7,0C7.1,56.4,0.6,50.6,0.2,41C-0.1,32.1,0,23.2,0.3,14.3C0.7,6.4,7,0.3,14.9,0.2
		c9-0.2,17.9-0.2,26.9,0c8,0.2,14.5,6.7,14.7,14.8c0.2,8.9,0.2,17.8,0,26.7c-0.2,7.9-6.3,14.2-14.2,14.7c-4.6,0.3-9.2,0-13.9,0
		C28.5,56.5,28.5,56.5,28.5,56.6z M51.6,28.3C51.6,28.3,51.6,28.3,51.6,28.3c-0.1-4.3,0.1-8.6-0.1-12.9c-0.2-5.7-4.1-9.5-9.8-10
		c-0.2,0-0.3,0-0.5,0c-8.5,0-17.1-0.2-25.6,0.1C9.1,5.6,5.4,9.8,5.4,16.4c0,7.9-0.1,15.8,0,23.7c0,1.6,0.3,3.3,0.9,4.8
		c1.5,4.1,5.3,6.4,10.4,6.4c7.8,0,15.6,0,23.3,0c7.2,0,11.5-4.4,11.6-11.6C51.6,35.9,51.6,32.1,51.6,28.3z"/>
	<path class="st0" d="M13.8,28.1c0-8.1,6.6-14.6,14.7-14.6c8,0.1,14.5,6.7,14.5,14.7c0,8-6.7,14.5-14.7,14.5
		C20.2,42.7,13.8,36.2,13.8,28.1z M37.7,28.2c0-5.1-4.2-9.3-9.3-9.4c-5.1,0-9.4,4.2-9.4,9.4c0,5.1,4.2,9.3,9.3,9.3
		C33.5,37.5,37.7,33.4,37.7,28.2z"/>
	<path class="st0" d="M46.8,13.3c0,1.8-1.5,3.2-3.3,3.2c-1.8,0-3.3-1.5-3.3-3.3c0-1.8,1.5-3.3,3.4-3.3C45.4,10,46.9,11.5,46.8,13.3z
		"/>
</g>
</svg>
