<?xml version="1.0" encoding="utf-8"?>
<!-- Generator: Adobe Illustrator 21.0.2, SVG Export Plug-In . SVG Version: 6.00 Build 0)  -->
<svg version="1.1" id="Слой_1" xmlns="http://www.w3.org/2000/svg" xmlns:xlink="http://www.w3.org/1999/xlink" x="0px" y="0px"
	 viewBox="0 0 167.2 170.1" style="enable-background:new 0 0 167.2 170.1;" xml:space="preserve">
<g>
	<path d="M0,77.8c0.4-1.1,0.8-2.9,1.6-4.4C10,58.5,21.6,46.2,34.4,35C54.9,17.1,79.1,7,105.5,1.5c3.9-0.8,8-1.2,12-1.5
		c1.5-0.1,3.1,0.3,4.4,0.9c6.5,3.2,12.5,7.2,16.8,13.1c2.1,2.9,3.6,6.4,5.1,9.6c1,2,0.5,4.1-0.8,5.8c-1.8,2.2-3.6,4.5-5.9,6
		c-3.6,2.5-7.5,4.6-11.4,6.5c-3.6,1.8-7.5,2.9-11.2,4.6c-6.5,2.9-12.8-1.2-15.4-5.5c-2-3.4-3.1-7-3.5-10.9c-0.1-1.1-0.6-1.5-1.6-1.8
		c-4.9-1.4-9.7-0.7-14.3,1c-9.1,3.3-17.3,8.3-25.2,13.9c-4.6,3.3-9.1,6.8-12.7,11.2c-2.5,3.1-4.3,6.5-5,10.5c-0.2,1,0.1,1.5,0.9,2
		c3.6,2.3,6.5,5.3,8.8,8.9c2.7,4.2,3.2,10.1-1.3,14.5C39.5,95.9,34,101.8,27,105.7c-2.9,1.6-6.3,2.7-9.5,3.7
		c-2.1,0.7-4.1-0.1-5.8-1.6c-5.8-5.2-8.7-12-10.2-19.4C0.8,85.1,0.5,81.8,0,77.8z"/>
	<path d="M75.6,152.4c-0.2,0.1-0.7,0.6-1.2,1c-4.3,3.3-9.1,3.7-14,1.9c-4.7-1.7-7.3-5.3-8.1-10.2c-1.9-12.4,5.6-21.1,18.1-20.6
		c3.5,0.1,6.9,0.9,10.3,1.4c1.3,0.2,1.8,0.8,1.7,2.3c-0.3,5.1-0.5,10.2-0.7,15.3c0,1.1-0.1,2.4,0.3,3.4c0.3,0.9,1.2,2.1,2,2.2
		c0.9,0.2,2.3-0.4,2.9-1.1c0.9-1.2,1.6-2.7,2-4.2c1.1-4.3,1.2-8.7,0-13c-2.3-8.7-9.9-14.1-19.5-13.5c-3.1,0.2-6.4,0.6-9.3,1.8
		c-8.4,3.2-12.6,9.9-13.7,18.6c-0.4,3.4-0.4,7,0.2,10.4c1.6,9.1,8.2,14.5,17.5,15c5.9,0.3,11.6-0.5,17.2-2.5
		c0.5-0.2,0.9-0.3,1.4-0.4c0.1,0,0.2,0,0.5,0c0,1.9,0.1,3.8-0.1,5.7c0,0.5-0.7,1.3-1.3,1.4c-3.2,0.9-6.3,1.9-9.6,2.3
		c-5.6,0.7-11.2,0.5-16.6-1.1c-10.2-3.1-16.7-11.2-17.5-21.8c-0.5-6.6,0.1-13.1,3.2-19.1c5.2-10.5,13.9-15.8,25.4-16.8
		c5.4-0.5,10.8,0,15.9,2.3c9.9,4.3,15.6,14,14.8,25.4c-0.3,4.1-1.1,8-3.2,11.5c-3,4.8-7.6,7-13.1,5.8
		C79.3,155.3,77.7,153.7,75.6,152.4z M74.3,135.5c-0.1,0-0.2,0-0.3,0c0.1-1,0.2-1.9,0.2-2.9c0-0.4-0.3-1.1-0.6-1.2
		c-5-1-11.1-0.2-12.8,6.6c-0.5,1.9-0.5,4.1-0.2,6c0.5,3.8,2.7,5.5,6.5,5.4c2.9-0.1,5-1.6,5.8-4.8C73.5,141.7,73.8,138.5,74.3,135.5z
		"/>
	<path d="M103.3,132.6c13.1,3.9,26,7.6,39.2,11.5c6.4-21.7,12.7-43.3,19.2-65.1c-29-8.5-57.8-17-86.9-25.6
		c-1.1,3.7-2.1,7.2-3.1,10.7c-4,13.4-7.9,26.8-11.8,40.3c-0.3,1.2-0.8,1.8-2.1,2.1c-1.6,0.4-3,1-4.9,1.7c0.6-2.1,1.1-3.9,1.6-5.7
		c4.9-16.6,9.8-33.3,14.7-49.9c1.1-3.9,3.9-5.4,7.7-4.3c28.5,8.4,57.1,16.8,85.6,25.2c3.9,1.2,5.4,3.9,4.3,7.9
		c-6.2,21.2-12.4,42.4-18.7,63.6c-1.2,3.9-4,5.5-7.9,4.3c-11.8-3.4-23.5-6.9-35.3-10.4c-1-0.3-1.5-0.7-1.5-1.8
		C103.6,135.8,103.4,134.4,103.3,132.6z"/>
	<path d="M156.4,84.4c0,1.1-1.1,1.8-2.4,2.4c-9.6,4.5-19.2,8.9-28.7,13.4c-5.3,2.5-10.7,4.9-16,7.5c-1.1,0.5-1.7,0.5-2.5-0.6
		C97,92.9,87.2,78.8,77.4,64.7c-1.3-1.8-1.2-3.5,0.2-4.5c1.4-1.1,3.1-0.6,4.4,1.3c8.9,12.7,17.7,25.5,26.5,38.2
		c0.8,1.2,1.5,1.5,2.9,0.8c13.3-6.3,26.7-12.5,40-18.7c0.6-0.3,1.3-0.6,2-0.7C155.1,81,156.4,82.2,156.4,84.4z"/>
	<path d="M142.2,137c0,1.6-0.6,2.6-2,3c-1.4,0.4-2.5,0-3.2-1.3c-1.1-2.1-2.2-4.2-3.2-6.2c-3.4-6.6-6.8-13.2-10.2-19.9
		c-0.1-0.2-0.2-0.4-0.3-0.6c-0.7-1.6-0.2-3.2,1.2-3.9c1.4-0.7,3-0.2,3.8,1.4c1.7,3.1,3.3,6.3,4.9,9.4c2.8,5.5,5.6,11,8.4,16.5
		C141.9,136,142.1,136.6,142.2,137z"/>
	<path d="M75.4,104.8c4.5-2.5,8.7-5,13-7.3c1.3-0.7,2.7-0.3,3.6,1.2c0.8,1.3,0.4,2.9-1,3.7c-2.4,1.4-4.8,2.7-7.2,4.1
		c-0.3,0.2-0.7,0.3-1,0.2C80.4,106.1,78.1,105.5,75.4,104.8z"/>
</g>
</svg>
