<?xml version="1.0" encoding="utf-8"?>
<!-- Generator: Adobe Illustrator 21.0.2, SVG Export Plug-In . SVG Version: 6.00 Build 0)  -->
<svg version="1.1" id="Слой_1" xmlns="http://www.w3.org/2000/svg" xmlns:xlink="http://www.w3.org/1999/xlink" x="0px" y="0px"
	 viewBox="0 0 73.7 73.7" style="enable-background:new 0 0 73.7 73.7;" xml:space="preserve">
<style type="text/css">
	.st0{fill:#00CC45;}
</style>
<g>
	<circle class="st0" cx="36.8" cy="36.8" r="36.8"/>
	<g>
		<path d="M35,53c-3.9,0.2-7.3-0.5-10.2-3.1c-2.9-2.5-4.3-5.7-4.5-9.5c-0.2,0.2-0.3,0.3-0.5,0.4c-0.5,0.5-1,1-1.6,1.6
			c-1.5,1.5-2.8,1.5-4.4,0.1c-0.5-0.5-0.9-1.1-1.2-1.7c-0.5-1-0.3-1.9,0.5-2.8c2.5-2.4,4.9-4.9,7.3-7.3c0.3-0.3,0.4-0.5,0.2-0.9
			c-3.6-8.3,3.1-17.6,12.1-16.8c4.4,0.4,7.6,2.6,9.7,6.4c0.2,0.4,0.4,0.5,0.8,0.5c2.4,0,4.7,0,7.1,0c6.1,0,10.6,4.8,10.2,10.9
			c-0.1,1.1-0.5,2.1-0.8,3.2c-0.1,0.4-0.1,0.6,0,1c3.3,7.4-1,16.7-9.9,17.9c-1.4,0.2-2.9,0.1-4.3,0.2c-0.3,0-0.7,0.2-1,0.4
			c-2.8,2.4-5.6,4.8-8.3,7.1c-0.3,0.3-0.7,0.6-1.1,0.3c-0.3-0.2-0.5-0.7-0.5-1c0-1.9,0-3.9,0-5.8C35,53.6,35,53.3,35,53z M25.3,35.2
			c-1,1-2,2-3,3c-0.2,0.2-0.2,0.5-0.3,0.7c-0.6,5.3,2.7,10.3,7.8,11.9c1.8,0.5,3.5,0.5,5.3,0.5c1.3,0,1.4,0.1,1.4,1.3
			c0,1.6,0,3.2,0,4.9c0,0.2,0,0.4,0,0.6c0.3-0.2,0.5-0.4,0.7-0.5c2.3-2,4.6-3.9,6.9-5.9c0.3-0.2,0.8-0.4,1.2-0.4
			c1.6-0.1,3.3,0.1,4.9-0.2c5.9-1,9.9-6.5,9.2-12.4c-0.1-0.9-0.4-1.7-0.6-2.8c-2.4,2.9-5.4,4.2-8.9,4.1c0,2.1,0,4.1,0,6
			c0,0.4,0,0.9-0.5,1.1c-0.5,0.2-0.9-0.1-1.2-0.4c-1.6-1.6-3.4-3.2-4.9-4.9c-1.2-1.4-2.5-2-4.4-1.8c-2.6,0.2-5-0.8-7-2.5
			c-0.2-0.1-0.4-0.3-0.6-0.3C29.2,37.1,27.2,36.4,25.3,35.2z M31.8,35.4c5.8,0,10.6-4.7,10.6-10.5c0-5.7-4.7-10.4-10.4-10.4
			c-5.8,0-10.7,4.7-10.7,10.4C21.4,30.6,26.1,35.4,31.8,35.4z M34.3,36.9c0,0.1,0,0.1-0.1,0.2c0.8,0.3,1.7,0.8,2.5,0.9
			c1.5,0.2,3,0.2,4.5,0.3c0.7,0,1.3,0.2,1.8,0.7c1.5,1.6,3.1,3.2,4.7,4.7c0.2,0.2,0.3,0.3,0.6,0.6c0-1.7,0-3.2,0-4.8
			c0-0.9,0.2-1.1,1.1-1.2c1,0,2.1,0,3.1-0.2c3.8-0.7,7.1-4.5,6.7-9.1c-0.3-4-3.5-7.3-7.7-7.6c-2.5-0.1-5.1,0-7.7-0.1
			c-0.1,0-0.1,0-0.1,0c0.2,1.6,0.3,3.3,0.5,5c0.1,0,0.4,0,0.6,0c2.7,0,5.4,0,8,0c0.1,0,0.2,0,0.3,0c0.6,0,1,0.3,1,0.8
			c0,0.5-0.3,0.8-1,0.8c-2.9,0-5.8,0-8.8,0c-0.2,0-0.5,0-0.7,0C42.2,32.9,39.1,35.8,34.3,36.9z M21.6,31.7c-0.2,0.2-0.3,0.3-0.5,0.5
			c-2.2,2.1-4.3,4.3-6.5,6.4c-0.8,0.8-0.9,1.2-0.1,2.1c0.3,0.4,0.8,0.7,1.3,0.9c0.2,0.1,0.6,0,0.8-0.2c2.3-2.3,4.6-4.6,6.9-6.9
			c0.1-0.1,0.2-0.3,0.4-0.4C23.1,33.3,22.4,32.6,21.6,31.7z"/>
		<path d="M34.5,43.7c1.5,0,3.1,0,4.6,0c0.2,0,0.5,0,0.7,0.1c0.2,0.2,0.6,0.5,0.5,0.7c0,0.3-0.3,0.6-0.5,0.8
			c-0.1,0.1-0.4,0.1-0.6,0.1c-3.1,0-6.3,0-9.4,0c-0.1,0-0.3,0-0.4,0c-0.5-0.1-0.8-0.3-0.8-0.8c0-0.5,0.3-0.8,0.8-0.8
			c0.8,0,1.6,0,2.3,0C32.7,43.7,33.6,43.7,34.5,43.7z"/>
		<path d="M28.4,41.1c-0.7,0-1.5,0-2.2,0c-0.6,0-1-0.3-1-0.8c0.1-0.6,0.5-0.8,1-0.8c1.5,0,2.9,0,4.4,0c0.6,0,1,0.3,1,0.8
			c0,0.6-0.4,0.8-1,0.8C29.9,41.1,29.1,41.1,28.4,41.1C28.4,41.1,28.4,41.1,28.4,41.1z"/>
		<path d="M40.2,24.5c-0.2,3.6-1.5,6-4.3,7.6c-0.6,0.4-1.1,0.3-1.3-0.2c-0.2-0.5,0-0.9,0.6-1.3c3.1-1.8,4.2-5.1,2.8-8.4
			c-0.2-0.5-0.1-1,0.3-1.2c0.4-0.2,0.9,0,1.1,0.6C39.7,22.7,40,23.8,40.2,24.5z"/>
		<path d="M49.3,31.5c1.3,0,2.6,0,3.9,0c0.3,0,0.6,0.2,0.8,0.5c0.1,0.2,0.1,0.6-0.1,0.8c-0.1,0.2-0.5,0.3-0.7,0.3
			c-2.6,0-5.2,0-7.8,0c-0.6,0-1-0.4-1-0.8c0.1-0.6,0.5-0.8,1-0.8C46.7,31.5,48,31.5,49.3,31.5z"/>
	</g>
</g>
</svg>
