<?xml version="1.0" encoding="iso-8859-1"?>
<!-- Generator: Adobe Illustrator 19.0.0, SVG Export Plug-In . SVG Version: 6.00 Build 0)  -->
<svg version="1.1" id="Capa_1" xmlns="http://www.w3.org/2000/svg" xmlns:xlink="http://www.w3.org/1999/xlink" x="0px" y="0px"
	 viewBox="0 0 512.001 512.001" style="enable-background:new 0 0 512.001 512.001;" xml:space="preserve">
<g>
	<g>
		<g>
			<path d="M34.134,277.334c-4.719,0-8.533,3.823-8.533,8.533v42.667c0,4.71,3.814,8.533,8.533,8.533s8.533-3.823,8.533-8.533
				v-42.667C42.668,281.157,38.853,277.334,34.134,277.334z"/>
			<path d="M34.134,345.6c-4.719,0-8.533,3.823-8.533,8.533v8.533c0,4.71,3.814,8.533,8.533,8.533s8.533-3.823,8.533-8.533v-8.533
				C42.668,349.423,38.853,345.6,34.134,345.6z"/>
			<path d="M512.001,320c0-0.01-0.001-0.021-0.001-0.031V208.734c0-18.637-15.164-33.801-33.809-33.801h-48.776
				c-13.562-9.735-85.558-61.25-131.034-90.209c-2.428-21.237-20.503-37.791-42.38-37.791c-21.877,0-39.951,16.553-42.38,37.791
				c-45.476,28.96-117.472,80.475-131.034,90.209H33.809C15.164,174.934,0,190.097,0,208.734v222.532
				c0,18.637,15.164,33.801,33.809,33.801h444.382c18.645,0,33.809-15.164,33.809-33.801V320.032
				C512,320.021,512.001,320.011,512.001,320z M443.734,448H68.268V192h375.467V448z M494.933,320.017
				c-0.009,9.405-7.659,17.05-17.066,17.05c-9.412,0-17.067-7.654-17.067-17.067s7.654-17.067,17.067-17.067
				c9.407,0,17.057,7.645,17.066,17.05V320.017z M494.933,208.734v81.723c-5.024-2.913-10.851-4.59-17.066-4.59
				c-6.215,0-12.042,1.677-17.067,4.59V192h17.39C487.424,192,494.933,199.51,494.933,208.734z M256.001,64
				c14.114,0,25.6,11.486,25.6,25.6s-11.486,25.6-25.6,25.6s-25.6-11.486-25.6-25.6S241.887,64,256.001,64z M215.725,103.66
				c5.825,16.638,21.674,28.607,40.275,28.607c18.601,0,34.451-11.97,40.276-28.608c33.376,21.641,77.729,52.789,103.762,71.274
				H111.964C137.996,156.449,182.346,125.304,215.725,103.66z M17.067,431.267V208.734c0-9.225,7.509-16.734,16.742-16.734h17.392
				v256H33.809C24.576,448,17.067,440.491,17.067,431.267z M478.191,448h-17.39v-98.457c5.024,2.913,10.851,4.59,17.067,4.59
				c6.215,0,12.042-1.677,17.066-4.59v81.723C494.933,440.491,487.424,448,478.191,448z"/>
			<path d="M170.668,268.8c-4.719,0-8.533,3.823-8.533,8.533v54.528l-35.354-58.923c-0.025-0.041-0.054-0.078-0.08-0.119
				c-0.101-0.162-0.206-0.319-0.318-0.474c-0.062-0.087-0.126-0.172-0.191-0.256c-0.099-0.127-0.202-0.251-0.309-0.372
				c-0.086-0.098-0.172-0.195-0.262-0.288c-0.094-0.098-0.192-0.193-0.291-0.287c-0.107-0.101-0.214-0.201-0.325-0.296
				c-0.094-0.08-0.191-0.157-0.289-0.233c-0.12-0.094-0.241-0.186-0.365-0.273c-0.102-0.071-0.206-0.138-0.311-0.205
				c-0.125-0.08-0.251-0.158-0.38-0.231c-0.113-0.064-0.229-0.123-0.345-0.182c-0.128-0.065-0.256-0.128-0.387-0.186
				c-0.12-0.054-0.243-0.102-0.366-0.15c-0.136-0.053-0.272-0.104-0.41-0.15c-0.118-0.039-0.237-0.074-0.357-0.108
				c-0.155-0.044-0.309-0.085-0.466-0.12c-0.103-0.023-0.207-0.043-0.311-0.062c-0.184-0.034-0.369-0.063-0.556-0.085
				c-0.08-0.009-0.161-0.018-0.242-0.025c-0.216-0.019-0.433-0.03-0.651-0.033c-0.034,0-0.068-0.005-0.102-0.005
				c-0.028,0-0.055,0.004-0.084,0.004c-0.225,0.002-0.45,0.014-0.676,0.034c-0.065,0.006-0.129,0.011-0.194,0.018
				c-0.205,0.023-0.408,0.055-0.612,0.093c-0.085,0.016-0.171,0.031-0.256,0.049c-0.169,0.037-0.337,0.082-0.505,0.13
				c-0.117,0.033-0.233,0.066-0.347,0.104c-0.129,0.043-0.257,0.091-0.385,0.141c-0.149,0.057-0.297,0.117-0.443,0.182
				c-0.094,0.042-0.186,0.088-0.279,0.134c-0.174,0.086-0.345,0.177-0.513,0.275c-0.034,0.02-0.069,0.035-0.103,0.055
				c-0.04,0.024-0.076,0.053-0.115,0.077c-0.164,0.103-0.325,0.21-0.481,0.323c-0.085,0.061-0.168,0.123-0.25,0.187
				c-0.13,0.101-0.256,0.206-0.38,0.315c-0.095,0.083-0.189,0.168-0.28,0.254c-0.103,0.098-0.201,0.2-0.299,0.303
				c-0.096,0.102-0.191,0.204-0.281,0.309c-0.087,0.102-0.17,0.207-0.252,0.313c-0.086,0.111-0.171,0.222-0.252,0.337
				c-0.08,0.114-0.155,0.231-0.229,0.349c-0.07,0.111-0.139,0.222-0.204,0.336c-0.075,0.132-0.144,0.267-0.212,0.403
				c-0.053,0.106-0.105,0.211-0.153,0.319c-0.066,0.147-0.126,0.297-0.183,0.449c-0.04,0.105-0.08,0.209-0.115,0.315
				c-0.051,0.152-0.096,0.307-0.139,0.462c-0.032,0.115-0.062,0.23-0.089,0.346c-0.033,0.144-0.062,0.29-0.087,0.437
				c-0.024,0.138-0.046,0.276-0.063,0.415c-0.016,0.127-0.029,0.254-0.039,0.383c-0.013,0.165-0.021,0.33-0.025,0.496
				c-0.001,0.062-0.009,0.123-0.009,0.185v85.333c0,4.71,3.814,8.533,8.533,8.533s8.533-3.823,8.533-8.533v-54.528l35.354,58.923
				c0.019,0.031,0.042,0.058,0.062,0.089c0.161,0.261,0.335,0.513,0.523,0.754c0.034,0.043,0.064,0.09,0.099,0.132
				c0.208,0.256,0.431,0.5,0.667,0.73c0.072,0.07,0.148,0.134,0.222,0.202c0.174,0.159,0.353,0.31,0.54,0.454
				c0.087,0.067,0.174,0.134,0.264,0.198c0.226,0.161,0.46,0.311,0.703,0.45c0.039,0.022,0.076,0.049,0.116,0.071
				c0.295,0.163,0.602,0.306,0.917,0.434c0.048,0.02,0.098,0.035,0.147,0.054c0.265,0.102,0.535,0.19,0.812,0.265
				c0.075,0.02,0.149,0.039,0.224,0.058c0.26,0.063,0.525,0.114,0.794,0.152c0.074,0.011,0.146,0.025,0.22,0.034
				c0.331,0.039,0.665,0.064,1.006,0.064c0.002,0,0.003,0,0.005,0c0.001,0,0.003,0,0.004,0c0.009,0,0.018-0.002,0.027-0.002
				c0.336-0.001,0.665-0.027,0.99-0.066c0.096-0.012,0.191-0.029,0.287-0.044c0.263-0.041,0.521-0.093,0.776-0.157
				c0.085-0.021,0.169-0.041,0.253-0.065c0.701-0.2,1.362-0.487,1.977-0.848c0.025-0.015,0.051-0.024,0.076-0.039
				c0.04-0.024,0.076-0.053,0.115-0.077c0.164-0.103,0.325-0.21,0.481-0.323c0.085-0.061,0.168-0.123,0.25-0.187
				c0.13-0.101,0.256-0.206,0.38-0.315c0.095-0.083,0.189-0.168,0.28-0.254c0.103-0.098,0.201-0.2,0.299-0.303
				c0.096-0.102,0.191-0.204,0.281-0.309c0.087-0.102,0.17-0.207,0.252-0.313c0.086-0.111,0.171-0.222,0.252-0.337
				c0.08-0.114,0.155-0.231,0.229-0.349c0.07-0.111,0.139-0.222,0.204-0.336c0.075-0.132,0.144-0.267,0.212-0.403
				c0.053-0.106,0.105-0.211,0.153-0.319c0.066-0.147,0.126-0.297,0.183-0.449c0.04-0.105,0.08-0.209,0.115-0.315
				c0.051-0.152,0.096-0.306,0.139-0.461c0.032-0.115,0.062-0.231,0.089-0.348c0.033-0.144,0.061-0.289,0.087-0.436
				c0.024-0.138,0.046-0.276,0.063-0.415c0.016-0.127,0.029-0.254,0.039-0.383c0.013-0.165,0.021-0.33,0.025-0.496
				c0.001-0.062,0.009-0.123,0.009-0.185v-85.333C179.201,272.623,175.386,268.8,170.668,268.8z"/>
			<path d="M394.983,269.163c-4.523-1.374-9.276,1.203-10.624,5.717l-17.425,58.084l-17.425-58.084
				c-0.008-0.027-0.019-0.051-0.027-0.078c-0.005-0.017-0.013-0.034-0.018-0.051c-0.97-3.07-3.522-5.211-6.49-5.79
				c-0.098-0.02-0.195-0.03-0.293-0.046c-0.163-0.026-0.325-0.054-0.49-0.07c-0.22-0.023-0.438-0.033-0.656-0.039
				c-0.042-0.001-0.084-0.005-0.126-0.005c-3.667-0.044-7.051,2.302-8.204,5.953c-0.005,0.017-0.012,0.033-0.017,0.049
				c-0.008,0.026-0.02,0.051-0.028,0.078l-17.425,58.084l-17.425-58.084c-1.357-4.514-6.093-7.074-10.624-5.717
				c-4.514,1.348-7.074,6.11-5.726,10.624l25.6,85.333c0.006,0.019,0.016,0.035,0.021,0.054c0.115,0.372,0.262,0.732,0.425,1.084
				c0.049,0.107,0.098,0.213,0.152,0.317c0.167,0.324,0.353,0.637,0.56,0.937c0.066,0.096,0.137,0.186,0.206,0.279
				c0.208,0.278,0.43,0.546,0.672,0.798c0.03,0.031,0.057,0.067,0.088,0.098c0.279,0.281,0.585,0.537,0.903,0.778
				c0.06,0.045,0.118,0.091,0.179,0.134c0.325,0.234,0.667,0.448,1.029,0.637c0.034,0.018,0.07,0.032,0.104,0.049
				c0.335,0.169,0.686,0.315,1.05,0.441c0.059,0.02,0.116,0.044,0.176,0.063c0.054,0.018,0.105,0.041,0.16,0.057
				c0.229,0.067,0.457,0.102,0.685,0.15c0.16,0.034,0.316,0.08,0.478,0.105c0.43,0.066,0.859,0.104,1.286,0.104
				s0.856-0.038,1.286-0.104c0.162-0.025,0.318-0.07,0.477-0.104c0.229-0.048,0.457-0.083,0.686-0.15
				c0.055-0.016,0.106-0.04,0.16-0.057c0.059-0.019,0.117-0.042,0.175-0.063c0.364-0.126,0.715-0.272,1.051-0.441
				c0.034-0.017,0.069-0.031,0.103-0.049c0.362-0.188,0.704-0.403,1.029-0.637c0.061-0.043,0.119-0.089,0.179-0.134
				c0.319-0.242,0.625-0.498,0.904-0.779c0.03-0.031,0.057-0.065,0.087-0.096c0.242-0.252,0.465-0.521,0.674-0.799
				c0.07-0.092,0.14-0.183,0.206-0.278c0.207-0.301,0.393-0.614,0.56-0.938c0.053-0.104,0.102-0.21,0.151-0.316
				c0.164-0.352,0.311-0.712,0.426-1.084c0.006-0.019,0.016-0.035,0.021-0.054l17.425-58.083l17.425,58.083
				c0.006,0.019,0.016,0.035,0.021,0.054c0.115,0.372,0.262,0.732,0.425,1.084c0.049,0.107,0.098,0.213,0.152,0.317
				c0.167,0.324,0.353,0.637,0.56,0.937c0.066,0.096,0.137,0.186,0.206,0.279c0.208,0.278,0.43,0.546,0.672,0.798
				c0.03,0.031,0.057,0.067,0.088,0.098c0.279,0.281,0.585,0.537,0.903,0.778c0.06,0.045,0.118,0.091,0.179,0.134
				c0.325,0.234,0.667,0.448,1.029,0.637c0.034,0.018,0.07,0.032,0.104,0.049c0.335,0.169,0.686,0.315,1.05,0.441
				c0.059,0.02,0.116,0.044,0.176,0.063c0.054,0.018,0.105,0.041,0.16,0.057c0.229,0.067,0.457,0.102,0.685,0.15
				c0.16,0.034,0.316,0.08,0.478,0.105c0.43,0.066,0.859,0.104,1.286,0.104s0.856-0.038,1.286-0.104
				c0.162-0.025,0.318-0.071,0.478-0.105c0.228-0.048,0.457-0.083,0.685-0.15c0.055-0.016,0.106-0.04,0.16-0.057
				c0.06-0.019,0.117-0.042,0.176-0.063c0.364-0.126,0.715-0.272,1.05-0.441c0.034-0.017,0.07-0.032,0.104-0.049
				c0.362-0.188,0.703-0.403,1.029-0.637c0.061-0.044,0.119-0.089,0.179-0.134c0.319-0.242,0.625-0.497,0.903-0.778
				c0.031-0.031,0.058-0.066,0.088-0.098c0.242-0.252,0.464-0.52,0.672-0.798c0.07-0.093,0.14-0.183,0.206-0.279
				c0.207-0.3,0.393-0.613,0.56-0.937c0.054-0.104,0.102-0.21,0.152-0.317c0.164-0.352,0.31-0.712,0.425-1.084
				c0.006-0.019,0.016-0.035,0.021-0.054l25.6-85.333C402.057,275.273,399.497,270.511,394.983,269.163z"/>
			<path d="M247.468,285.867c4.719,0,8.533-3.823,8.533-8.533c0-4.71-3.814-8.533-8.533-8.533h-34.133
				c-4.719,0-8.533,3.823-8.533,8.533v85.333c0,4.71,3.814,8.533,8.533,8.533h34.133c4.719,0,8.533-3.823,8.533-8.533
				s-3.814-8.533-8.533-8.533h-25.6v-25.6h25.6c4.719,0,8.533-3.823,8.533-8.533s-3.814-8.533-8.533-8.533h-25.6v-25.6H247.468z"/>
		</g>
	</g>
</g>
<g>
</g>
<g>
</g>
<g>
</g>
<g>
</g>
<g>
</g>
<g>
</g>
<g>
</g>
<g>
</g>
<g>
</g>
<g>
</g>
<g>
</g>
<g>
</g>
<g>
</g>
<g>
</g>
<g>
</g>
</svg>
