<?xml version="1.0" encoding="utf-8"?>
<!-- Generator: Adobe Illustrator 21.0.2, SVG Export Plug-In . SVG Version: 6.00 Build 0)  -->
<svg version="1.1" id="Слой_1" xmlns="http://www.w3.org/2000/svg" xmlns:xlink="http://www.w3.org/1999/xlink" x="0px" y="0px"
	 viewBox="0 0 73.7 73.7" style="enable-background:new 0 0 73.7 73.7;" xml:space="preserve">
<style type="text/css">
	.st0{fill:#00CC45;}
</style>
<g>
	<circle class="st0" cx="36.8" cy="36.8" r="36.8"/>
	<g>
		<path d="M50.7,33.3c0-4.6-1.8-8.9-5.1-12.2c-3.3-3.3-7.5-5.1-12.1-5.1c0,0,0,0,0,0c-4.6,0-9,1.8-12.2,5.1c-3.2,3.3-5,7.6-5,12.3
			c0,4.5,1.8,8.8,5.1,12.1c3.3,3.2,7.6,5,12.1,5c0,0,0,0,0,0C43,50.5,50.7,42.7,50.7,33.3z M48.8,33.4c0,4.1-1.7,8-4.6,10.8
			c-2.9,2.9-6.9,4.4-11,4.4c-8.2-0.1-15.1-7.1-15.1-15.4c0.1-8.5,6.9-15.3,15.4-15.3c0,0,0.1,0,0.1,0c4.1,0,7.9,1.7,10.8,4.6
			C47.3,25.4,48.8,29.3,48.8,33.4z"/>
		<path d="M57,52.3c-0.9-0.9-1.9-1.9-2.8-2.9c-1.5-1.5-3-3-4.5-4.6c-0.2-0.2-0.5-0.4-0.8-0.5c-0.1-0.1-0.2-0.1-0.3-0.2L48.3,44
			L48,44.2c-0.1,0.1-0.2,0.1-0.4,0.2c-0.3,0.1-0.5,0.3-0.8,0.5c-0.7,0.7-1.4,1.4-2.1,2l-0.2,0.2c-0.8,0.8-0.8,2,0,2.8
			c1.4,1.4,2.8,2.8,4.2,4.2c1.1,1.1,2.2,2.1,3.2,3.2c0.2,0.2,0.5,0.4,0.8,0.4c0.3,0,0.5-0.1,0.8-0.4c1.2-1.2,2.3-2.3,3.4-3.3
			c0.3-0.3,0.4-0.5,0.4-0.8C57.4,52.8,57.3,52.5,57,52.3z"/>
		<path d="M37.1,31.4c-0.3,1.1-0.3,2.2-0.1,3.4c0.4,2,1.8,3.6,3.7,4c0.4,0.1,0.8,0.1,1.2,0.1c1.6,0,3.1-0.7,4-2.1c0.6-1,1-2.1,1-3.5
			l0,0l0,0c0-0.1,0-0.3,0-0.4c0-0.3-0.1-0.7-0.1-1c-0.4-2.4-2.2-4.1-4.5-4.1C39.6,27.5,37.8,28.9,37.1,31.4z M44.1,31.1
			c0.2,0.5,0.4,1,0.5,1.5c0,0.1,0,0.2,0.1,0.3l0,0l0,0.4c0,1-0.2,1.7-0.6,2.3c-0.5,0.8-1.3,1.2-2.2,1.2c-0.9,0-1.6-0.5-2.1-1.2
			c-0.9-1.5-0.9-3.2,0-4.7c0.5-0.8,1.3-1.2,2.1-1.2c0,0,0,0,0.1,0C42.8,29.7,43.6,30.2,44.1,31.1z"/>
		<path d="M31.3,34.2h4.9V32h-5c0-0.1,0-0.2,0-0.3c0-0.6,0-1.2,0-1.8c0.7,0,1.3,0,2,0l3.6,0v-2.1h-7.8v10.9h7.8v-2.2h-5.5V34.2z"/>
		<path d="M26.9,33c-0.5-0.3-1.1-0.4-1.7-0.6c-0.3-0.1-0.6-0.2-0.9-0.3l-0.2-0.1c-0.4-0.1-0.9-0.3-1.2-0.5c-0.3-0.2-0.5-0.5-0.4-0.8
			c0-0.3,0.3-0.6,0.6-0.8c0.6-0.3,1.2-0.3,1.7-0.1c0.5,0.2,0.9,0.6,1.1,1.3c0.1,0.2,0.3,0.6,0.7,0.7c0.3,0,0.5,0,0.8,0
			c0.1,0,0.2,0,0.2,0h0.5l0-0.5c0.2-1.5-0.7-2.8-2.1-3.4c-1.3-0.5-2.6-0.5-3.9,0.1c-1.1,0.5-1.7,1.3-1.9,2.4
			c-0.1,1.2,0.4,2.3,1.4,2.9c0.6,0.3,1.2,0.6,1.8,0.8c0.1,0.1,0.3,0.1,0.4,0.2c0.3,0.1,0.5,0.2,0.8,0.2c0.4,0.1,0.7,0.2,1,0.3
			c0.3,0.1,0.5,0.4,0.5,0.6c0.1,0.3,0,0.6-0.2,0.8c-0.5,0.6-1.3,0.8-2.4,0.6c-0.7-0.1-1.2-0.8-1.3-1.5c0-0.1,0-0.2,0-0.2l-0.1-0.6
			h-2.1l0,0.5c-0.1,1.1,0.3,2,1,2.8c0.8,0.8,2,1.3,3.3,1.3c0,0,0,0,0,0c1.4,0,2.6-0.5,3.4-1.4c0.7-0.8,0.9-1.7,0.8-2.6
			C28.4,34.2,27.8,33.5,26.9,33z"/>
	</g>
</g>
</svg>
