<?xml version="1.0" encoding="utf-8"?>
<!-- Generator: Adobe Illustrator 21.0.2, SVG Export Plug-In . SVG Version: 6.00 Build 0)  -->
<svg version="1.1" id="Слой_1" xmlns="http://www.w3.org/2000/svg" xmlns:xlink="http://www.w3.org/1999/xlink" x="0px" y="0px"
	 viewBox="0 0 145.9 170.1" style="enable-background:new 0 0 145.9 170.1;" xml:space="preserve">
<g>
	<path d="M89,148.4c-2.8-1.1-6.2-2.5-9.6-3.8c-5.4-2.1-10.7-4.2-16.1-6.2c-5.8-2.1-11.8-2.5-17.9-1.2c-2,0.4-4,0.6-6.1,0.6
		c-4.3,0.1-6.5-3.1-5.1-7.3c0.8-2.5,2.8-4,4.9-5.3c4.6-2.7,9.7-4.3,15-4.6c5.3-0.3,10.7-0.1,16.3-0.1c-0.2-0.8-0.4-1.3-0.6-1.9
		c-7-20-13.9-40-20.9-60c-0.8-2.3-1.1-4.6-0.6-7.1c1-4.2,4.8-6.3,8.8-4.6c3,1.2,5.1,3.5,6.5,6.4c3.8,8,7.5,16.1,11.3,24.1
		c1.5,3.3,4.1,4.8,7.7,4.2c3.8-0.6,7.6-1.6,11.4-2.4c5.3-1.1,10.7-2.3,16-3.3c6.8-1.3,10.9,0.6,14.1,6.8c4.5,8.7,7.6,17.9,9.8,27.4
		c1.6,6.7,2.5,13.5,3.7,20.3c0.1,0.5,0.6,0.9,0.9,1.4c0.8,1.1,1.9,2,2.4,3.3c1.6,4,2.9,8.1,4.3,12.2c1.4,4.2,0,7.2-4.2,8.6
		c-12.7,4.4-25.5,8.9-38.2,13.3c-4.5,1.6-7.8,0-9.3-4.5c-1.3-3.6-2.6-7.1-3.7-10.7C89.4,152.6,89.4,150.7,89,148.4z M94.7,151
		c1.7,4.7,3.2,9.2,4.8,13.8c13.8-4.8,27.3-9.5,41-14.3c-1.6-4.7-3.2-9.2-4.8-13.8C121.9,141.5,108.4,146.2,94.7,151z"/>
	<path d="M101,71.8c0.8-3.6,1.8-7.1,2.2-10.7c2-16.9-3.3-31.3-15.8-42.8C77.8,9.4,66.2,5.3,53.1,5.6C29.8,6.1,9.5,24.1,6.1,47.2
		c-3.8,26.2,12.7,50,38.6,55.6c3.9,0.8,8,0.7,12,0.9c1,0.1,1.7,0.2,2,1.3c0.3,1.3,0.8,2.6,1.3,4c-0.6,0.1-0.9,0.3-1.3,0.3
		c-27.6,2.3-53.3-17.7-57.8-45C-4.1,34.6,14.1,7.4,43.6,1.2c31.5-6.6,60.1,14.9,65,44.5c1.3,7.8,0.9,15.5-1.1,23.2
		c-0.3,1.2-0.7,1.9-2.1,2c-1.4,0.1-2.8,0.6-4.2,0.8C101.1,71.8,101,71.7,101,71.8z"/>
	<path d="M80.9,76.1c1.7-3.1,3.4-5.7,4.6-8.4c9.7-22.9-8.3-48-33.1-46.4c-16,1-29.5,13.8-31.1,30.2c-1.6,17.1,10,33.2,27.4,36.1
		c3.8,0.6,5.1,2.4,5.8,5.5c0,0.2,0,0.4,0.1,0.7c-4.2,0-8.2-0.6-12.1-2C25,86.1,14,69.3,15.7,51c1.6-17.8,15.7-32.6,33.5-35
		C70.6,13.1,90,27.5,93.3,48.8c1.3,8.6-0.1,16.7-4.3,24.4c-0.4,0.7-1.3,1.4-2.1,1.6C85.1,75.3,83.1,75.6,80.9,76.1z"/>
	<path d="M75.6,64.6c-1.1-2.3-2.5-4.5-3.2-6.9c-0.5-1.8,0-3.8-0.2-5.7c-1.1-8.3-8.4-15-16.7-15.2c-9-0.3-16.7,5.6-18.4,14.1
		c-1.6,7.7,1.7,15.1,8.4,19.1c0.7,0.4,1.3,1.2,1.6,2c0.7,1.6,1.2,3.3,1.8,5.1c-7.4-0.5-15.6-9.1-17.4-18.1
		c-2-10.3,3.3-20.8,12.8-25.5c9.4-4.6,20.9-2.3,27.8,5.4C79.7,47.5,79,59.2,75.6,64.6z"/>
</g>
</svg>
