<?xml version="1.0" encoding="utf-8"?>
<!-- Generator: Adobe Illustrator 21.0.2, SVG Export Plug-In . SVG Version: 6.00 Build 0)  -->
<svg version="1.1" id="Слой_1" xmlns="http://www.w3.org/2000/svg" xmlns:xlink="http://www.w3.org/1999/xlink" x="0px" y="0px"
	 viewBox="0 0 170.1 141.3" style="enable-background:new 0 0 170.1 141.3;" xml:space="preserve">
<g>
	<path d="M170.1,141.3c-56.8,0-113.3,0-170,0c0-1,0-1.9,0-2.8C0.1,96.9,0.2,55.4,0,13.9C0,4.8,7.2,0,13.9,0c15,0,29.9,0,44.9,0
		c32.9,0,65.7,0,98.6,0c7.9,0,12.7,4.8,12.7,12.8c0,42.1,0,84.3,0,126.4C170.1,139.8,170.1,140.5,170.1,141.3z M6.4,34.9
		c0,33.5,0,66.8,0,100.1c52.5,0,104.9,0,157.3,0c0-33.5,0-66.8,0-100.1C111.2,34.9,58.9,34.9,6.4,34.9z M44.5,25.4
		c3.6,0,6.5-2.8,6.5-6.3c0-3.6-2.8-6.5-6.4-6.5c-3.6-0.1-6.5,2.8-6.5,6.3C38.1,22.5,40.9,25.4,44.5,25.4z M69.9,25.4
		c3.6,0,6.5-2.8,6.5-6.4c0-3.6-2.8-6.5-6.4-6.5c-3.6,0-6.5,2.8-6.5,6.3C63.5,22.5,66.3,25.4,69.9,25.4z M25.5,19.1
		c0-3.6-2.8-6.5-6.3-6.5c-3.6,0-6.5,2.8-6.5,6.3c0,3.6,2.8,6.5,6.3,6.5C22.6,25.5,25.5,22.6,25.5,19.1z"/>
	<path d="M19.3,122.2c0-24.8,0-49.6,0-74.4c19.5,0,39,0,58.5,0c0,24.8,0,49.6,0,74.4C58.2,122.2,38.8,122.2,19.3,122.2z"/>
	<path d="M150.9,82.5c-22.2,0-44.2,0-66.4,0c0-11.5,0-23,0-34.6c22.1,0,44.2,0,66.4,0C150.9,59.3,150.9,70.8,150.9,82.5z"/>
	<path d="M84.5,122.2c0-11.1,0-22,0-33c10,0,19.9,0,29.9,0c0,11.1,0,22,0,33C104.3,122.2,94.4,122.2,84.5,122.2z"/>
	<path d="M122.6,122.2c0-11,0-22,0-33c9.5,0,18.8,0,28.3,0c0,11,0,22,0,33C141.4,122.2,132.1,122.2,122.6,122.2z"/>
</g>
</svg>
