<?xml version="1.0" encoding="utf-8"?>
<!-- Generator: Adobe Illustrator 21.0.2, SVG Export Plug-In . SVG Version: 6.00 Build 0)  -->
<svg version="1.1" id="Слой_1" xmlns="http://www.w3.org/2000/svg" xmlns:xlink="http://www.w3.org/1999/xlink" x="0px" y="0px"
	 viewBox="0 0 56.7 56.7" style="enable-background:new 0 0 56.7 56.7;" xml:space="preserve">
<style type="text/css">
	.st0{fill:#00CC45;}
</style>
<g>
	<path class="st0" d="M0,27.5c0.1-1.1,0.2-2.1,0.3-3.2C0.9,20,2.5,16,4.9,12.4C9.4,6,15.4,1.8,23,0.5c11.6-2,21.1,1.8,28.3,11.2
		c2.8,3.7,4.5,7.9,5.1,12.6c0.9,6.6-0.3,12.8-3.7,18.5c-0.5,0.9-1.4,1-1.9,0.2c-0.3-0.4-0.2-0.9,0.1-1.3c1.4-2.4,2.5-4.9,3.1-7.7
		c1.5-7.1,0.4-13.7-3.4-19.8C46.5,8,40.9,4.1,33.6,2.6c-7.7-1.5-14.8,0.1-21,4.8C7,11.6,3.7,17.2,2.5,24.1c-1.7,10,3,20.7,11.5,26.2
		c3.6,2.3,7.6,3.8,11.8,4.2c4.3,0.4,8.5,0,12.5-1.8c1.6-0.7,3.1-1.7,4.1-3.1c0.5-0.7,0.8-1.5,1.1-2.3c0.1-0.3,0-0.8-0.2-1.2
		c-0.2-0.5-0.8-0.6-1.1-0.2c-2.1,2.5-4.7,2.4-7.5,1.6c-2.6-0.8-5-2.2-7.2-3.9c-5.9-4.5-11.2-9.7-15.4-15.8c-1.5-2.1-2.7-4.3-3.2-6.8
		c-0.3-1.2-0.3-2.3,0-3.5c0.2-0.8,0.6-1.6,1.2-2.2c1-1,2-2,3-3c1.8-1.8,4.4-1.6,6,0.4c1.2,1.6,2.5,3.1,3.7,4.7
		c1.2,1.6,1.2,3.5,0,5.1c-0.3,0.3-0.5,0.6-0.8,1c-0.6,0.8-0.6,1.8,0.1,2.5c2.9,2.9,5.8,5.8,8.7,8.7c0.7,0.7,1.6,0.7,2.4,0.2
		c0.3-0.2,0.6-0.4,0.8-0.7c1.8-1.4,3.7-1.4,5.4,0c1.5,1.2,3,2.3,4.4,3.5c2.1,1.6,2.3,4.2,0.4,6.1c-0.1,0.1-0.2,0.2-0.3,0.3
		c0,0.1,0,0.1,0,0.1c1.5,1.2,1.6,2.8,1.1,4.5c-0.6,1.8-1.8,3.2-3.3,4.4c-2.4,1.9-5.2,2.9-8.2,3.4c-1.2,0.2-2.4,0.3-3.5,0.4
		c-0.2,0-0.4,0.1-0.5,0.1c-0.7,0-1.4,0-2.1,0c-0.2,0-0.4-0.1-0.7-0.1c-1.5-0.2-2.9-0.3-4.4-0.5c-5-1-9.4-3.2-13.1-6.6
		c-5.3-4.8-8.5-10.8-9.3-18c-0.1-0.8-0.2-1.5-0.2-2.3C0,28.6,0,28,0,27.5z M37.8,45.7c0.8,0,1.6-0.1,2.2-0.7c1.1-1,2.1-2.1,3.1-3.1
		c0.8-0.8,0.7-2-0.2-2.8c-1.6-1.3-3.2-2.5-4.8-3.7c-0.8-0.6-1.6-0.6-2.4,0c-0.4,0.3-0.7,0.6-1.1,0.9c-1.5,1.1-3.7,1-5-0.3
		c-3-3-6-5.9-8.9-8.9c-1.3-1.3-1.4-3.4-0.3-4.9c0.3-0.4,0.6-0.7,0.9-1.1c0.7-0.9,0.7-1.7,0-2.6c-1.2-1.5-2.4-3-3.5-4.5
		c-0.9-1.1-2-1.2-3-0.2c-0.9,0.9-1.8,1.8-2.7,2.7c-0.8,0.7-1.1,1.6-1,2.6c0,0.6,0.1,1.1,0.2,1.7c0.6,2.4,1.9,4.5,3.3,6.4
		c3.1,4.4,6.9,8.2,10.9,11.8c2.5,2.2,5.2,4.3,8.3,5.7C34.9,45.2,36.3,45.7,37.8,45.7z"/>
</g>
</svg>
