<?xml version="1.0" encoding="utf-8"?>
<!-- Generator: Adobe Illustrator 21.0.2, SVG Export Plug-In . SVG Version: 6.00 Build 0)  -->
<svg version="1.1" id="Слой_1" xmlns="http://www.w3.org/2000/svg" xmlns:xlink="http://www.w3.org/1999/xlink" x="0px" y="0px"
	 viewBox="0 0 73.7 73.7" style="enable-background:new 0 0 73.7 73.7;" xml:space="preserve">
<style type="text/css">
	.st0{fill:#00CC45;}
</style>
<g>
	<circle class="st0" cx="36.8" cy="36.8" r="36.8"/>
	<g>
		<path d="M55,46c1,0,1.9,0,2.8,0c0,1,0.1,1.9,0,2.8c-0.2,1.5-1.4,2.4-2.8,2.4c-3.6,0-7.2,0-10.8,0c-8.4,0-16.8,0-25.2,0
			c-1.9,0-3-1.2-3-3c0-0.7,0-1.4,0-2.2c1,0,2.1,0,3.2,0c0-0.2,0-0.4,0-0.6c0-6.7,0-13.4,0-20c0-1.8,1.2-3,3-3c10,0,19.9,0,29.9,0
			c1.5,0,2.5,0.7,2.9,1.9c0.1,0.3,0.1,0.7,0.1,1.1c0,6.7,0,13.4,0,20C55,45.6,55,45.8,55,46z M31.3,46c0.1,1.4,0.6,1.8,1.9,1.8
			c2.4,0,4.8,0,7.2,0c1,0,1.5-0.5,1.6-1.5c0-0.1,0-0.2,0-0.3c3.9,0,7.7,0,11.6,0c0-0.2,0-0.4,0-0.5c0-1.9,0-3.8,0-5.7
			c0-4.8,0-9.6,0-14.5c0-0.8-0.4-1.4-1.1-1.5c-0.3-0.1-0.6,0-0.8,0c-9.9,0-19.8,0-29.7,0c-1,0-1.6,0.6-1.6,1.6c0,6.7,0,13.4,0,20.1
			c0,0.2,0,0.3,0,0.6C24.1,46,27.7,46,31.3,46z"/>
		<path d="M40.9,42.7C40.9,42.7,40.9,42.6,40.9,42.7c-0.1-1.5-0.1-1.5,1.1-2.1c0.8-0.4,1.7-0.9,2.5-1.3c0.1-0.1,0.2-0.1,0.4-0.3
			c-1.4-0.7-2.8-1.4-4.1-2.1c0-0.5,0-1,0-1.5c0.1,0.1,0.3,0.1,0.4,0.2c1.7,0.9,3.5,1.8,5.2,2.7c0.3,0.1,0.4,0.3,0.4,0.6
			c0,0.2,0,0.4,0,0.6c0,0.1-0.1,0.3-0.2,0.3C44.8,40.8,42.9,41.7,40.9,42.7z"/>
		<path d="M32.8,42.8c-0.7-0.4-1.4-0.8-2.1-1.1c-1.1-0.6-2.1-1.2-3.2-1.8c-0.3-0.1-0.4-0.3-0.4-0.6c0-0.2,0-0.4,0-0.6
			c0-0.1,0.1-0.3,0.2-0.3c1.8-1,3.6-2,5.4-3c0,0.5,0,1,0,1.4c0,0.1-0.2,0.2-0.3,0.3c-1.1,0.6-2.2,1.2-3.3,1.7
			c-0.1,0.1-0.3,0.2-0.5,0.3c0.2,0.1,0.3,0.2,0.5,0.3c1.1,0.6,2.2,1.1,3.3,1.7c0.3,0.1,0.4,0.3,0.3,0.6C32.7,42,32.8,42.3,32.8,42.8
			z"/>
		<path d="M39.2,34c-0.5,1.4-0.9,2.7-1.3,4c-0.7,2-1.3,4-2,6.1c-0.1,0.4-0.3,0.5-0.7,0.5c-0.2,0-0.5,0-0.8,0c0-0.2,0.1-0.3,0.1-0.5
			c1-3.2,2.1-6.4,3.1-9.6c0.1-0.4,0.3-0.5,0.7-0.5C38.6,34.1,38.9,34,39.2,34z"/>
		<path d="M38.7,29.3c1.1-0.6,1.4-0.5,2.1,0.1c0.4-0.2,0.7-0.4,1.1-0.5c0.6-0.2,1.2,0.2,1.3,0.8c0.1,0.9,0,1.8,0,2.7
			c-0.3,0-0.7,0-1,0c0-0.7,0-1.3,0-2c0-0.6-0.4-0.8-0.9-0.6c-0.1,0.1-0.3,0.3-0.3,0.5c0,0.5,0,1.1,0,1.6c0,0.4-0.1,0.6-0.6,0.5
			c-0.2,0-0.3,0-0.5,0c0-0.7,0-1.4,0-2c0-0.6-0.4-0.8-0.9-0.6c-0.1,0.1-0.3,0.3-0.3,0.4c0,0.6,0,1.1,0,1.7c0,0.4-0.1,0.5-0.5,0.5
			c-0.2,0-0.4,0-0.6,0c0-1.2,0-2.3,0-3.4C38.3,28.9,38.5,29,38.7,29.3z"/>
		<path d="M29.8,27.7c0.3,0,0.7,0,1,0c0,0.6,0,1.1,0,1.6c0.4-0.1,0.7-0.3,1-0.4c0.7-0.1,1.3,0.3,1.3,1c0,0.7,0,1.5,0,2.2
			c0,0.2-0.1,0.3-0.3,0.3c-0.2,0-0.5,0-0.8,0c0-0.7,0-1.3,0-2c0-0.6-0.3-0.9-1-0.7c-0.3,0.1-0.4,0.2-0.3,0.5c0,0.6,0,1.1,0,1.7
			c0,0.4-0.1,0.5-0.5,0.4c-0.2,0-0.4,0-0.6,0C29.8,30.9,29.8,29.3,29.8,27.7z"/>
		<path d="M35.5,28.1c0,0.3,0,0.6,0,0.9c0.4,0,0.7,0,1,0c0,0.3,0,0.5,0,0.7c-0.3,0-0.6,0-1,0c0,0.6,0,1.1,0,1.6
			c0,0.4,0.3,0.5,0.9,0.4c0.2,0.6,0.1,0.7-0.5,0.8c-0.1,0-0.2,0-0.4,0c-0.9,0-1.2-0.3-1.2-1.2c0-0.5,0-1,0-1.5c-0.1,0-0.3,0-0.4-0.1
			c0-0.2,0-0.4,0-0.7c0.1,0,0.3-0.1,0.4-0.1c0-0.3,0-0.6,0-0.9C34.7,28.1,35.1,28.1,35.5,28.1z"/>
		<path d="M44.1,27.7c0.3,0,0.6,0,1,0c0,1.6,0,3.2,0,4.9c-0.3,0-0.6,0-1,0C44.1,31,44.1,29.3,44.1,27.7z"/>
	</g>
</g>
</svg>
