<?xml version="1.0" encoding="utf-8"?>
<!-- Generator: Adobe Illustrator 21.0.2, SVG Export Plug-In . SVG Version: 6.00 Build 0)  -->
<svg version="1.1" id="Слой_1" xmlns="http://www.w3.org/2000/svg" xmlns:xlink="http://www.w3.org/1999/xlink" x="0px" y="0px"
	 viewBox="0 0 127.2 170.1" style="enable-background:new 0 0 127.2 170.1;" xml:space="preserve">
<g>
	<path d="M30.5,11.3c1.1,0.3,3.2,0.8,5.2,1.3c7.4,1.8,13.6-0.1,18.6-5.9c1.1-1.3,2.1-2.7,3.3-3.9c3.5-3.7,8.6-3.7,12.1,0
		c1,1.1,1.9,2.3,2.9,3.5c5.1,6.1,11.4,8.2,19.1,6.3c1.9-0.5,3.9-1.1,5.9-1.2c4.7-0.2,8.2,3.1,8.5,7.8c0.1,1.5,0.2,3,0.3,4.5
		c0.6,7.5,4.5,12.7,11.4,15.6c1.5,0.6,3.1,1.1,4.5,1.8c4.6,2.2,6.2,7.1,3.8,11.5c-0.8,1.4-1.7,2.7-2.6,4.1c-4,6.5-4,13.1,0,19.6
		c0.9,1.4,1.8,2.7,2.6,4.1c2.4,4.6,0.8,9.4-4,11.6c-1.4,0.6-2.8,1.1-4.2,1.7c-7.1,2.8-10.9,8-11.6,15.6c-0.2,2.1-0.2,4.2-0.6,6.1
		c-1.1,4.6-5.2,7.1-9.9,6.1c-1.5-0.3-2.9-0.8-4.4-1.1c-7.5-1.8-13.8,0.2-18.8,6.2c-1.1,1.3-2.1,2.7-3.3,3.9
		c-3.4,3.4-8.3,3.4-11.7-0.1c-1.2-1.3-2.2-2.7-3.4-4c-4.8-5.6-10.9-7.5-18-6.1c-1.6,0.3-3.1,0.9-4.7,1.2c-5.4,1.3-10.1-2.2-10.4-7.8
		c-0.1-2.3,0-4.7-0.6-6.9c-1.5-6.2-5.1-10.7-11.1-13C8,93.2,6.5,92.7,5.1,92c-4.9-2.2-6.5-7.3-3.8-11.9c0.7-1.3,1.6-2.5,2.4-3.8
		c4-6.5,4-13.1,0-19.6C3,55.5,2.1,54.3,1.4,53c-2.8-4.8-1.2-9.9,3.9-12.2c1.4-0.6,2.8-1.1,4.2-1.7c7-2.9,10.8-8.1,11.5-15.5
		c0.2-2.1,0.2-4.3,0.6-6.3C22.4,13.5,25.5,11.2,30.5,11.3z M24.2,66.4C24.3,88.3,42,106,63.7,105.9c21.6-0.1,39.3-17.9,39.3-39.4
		c0-21.8-17.8-39.4-39.7-39.4C41.9,27.1,24.1,45,24.2,66.4z"/>
	<path d="M117.1,170.1c-7.5-4.4-14.4-8.4-21.4-12.6c-1.2-0.7-2-0.7-3.1,0.3c-4.7,4.1-9.5,8.1-14.6,12.3c-0.9-3.3-1.8-6.3-2.6-9.4
		c-2-7-3.9-14.1-5.9-21.1c-0.4-1.2,0-1.6,0.9-2.4c2.4-2,4.7-4.1,6.7-6.5c3.6-4.2,7.9-5.8,13.2-4.2c4.8,1.4,9.5,2.3,14.5-0.3
		C108.9,140.8,113,155.2,117.1,170.1z M107.3,157.5c0-0.5,0.1-0.8,0-1c-2-7.3-4-14.6-6.1-21.8c-0.1-0.4-0.9-1-1.3-0.9
		c-4,0.3-7.8-0.7-11.6-1.8c-2.4-0.7-4.5,0.1-6.2,2.1c-1.7,2.1-3.6,4-5.3,6c-0.3,0.4-0.5,1.2-0.4,1.7c0.5,2.1,1.1,4.2,1.7,6.3
		c1.1,3.8,2.1,7.5,3.3,11.6c3.4-2.8,6.5-5.5,9.7-8.1c2.6-2.2,2.6-2.2,5.5-0.5C100,153.3,103.5,155.3,107.3,157.5z"/>
	<path d="M10,170c4.2-14.8,8.2-29.2,12.3-43.8c4.8,2.6,9.6,1.8,14.3,0.4c5.4-1.6,9.8-0.2,13.3,4.2c2.1,2.6,4.1,5.2,7.2,6.8
		c0.4,0.2,0.6,1.4,0.4,2c-2.4,8.8-4.9,17.6-7.3,26.4c-0.4,1.3-0.7,2.5-1.2,4c-0.6-0.5-1.2-0.8-1.7-1.2c-4.5-3.5-9-7-13.4-10.6
		c-1.5-1.3-2.6-1.2-4.2-0.2c-5.7,3.6-11.5,7.1-17.3,10.6C11.9,168.9,11.2,169.3,10,170z M45.8,160.1c1.8-6.4,3.5-12.5,5.2-18.7
		c0.1-0.4-0.2-0.9-0.5-1.2c-1.7-2-3.6-3.8-5.2-5.9c-1.8-2.3-4.1-3-6.8-2.2c-3.6,1-7.2,1.9-11.1,1.7c-0.5,0-1.3,0.7-1.4,1.2
		c-1.1,3.5-2.1,7.1-3,10.6c-1,3.7-2.1,7.4-3.2,11.6c0.9-0.5,1.5-0.8,2-1.1c3-1.9,6.1-3.6,9.1-5.6c1.3-0.9,2.1-0.7,3.2,0.3
		c2.3,2,4.8,3.8,7.2,5.7C42.7,157.6,44.1,158.7,45.8,160.1z"/>
	<path d="M63.6,84c-2.1,0.7-4.2,1.2-6.2,2c-2.2,1-4.3,2.3-6.5,3.3c-0.9,0.4-2.4,0.5-3.1,0c-0.7-0.5-0.9-2-0.8-3
		c0.2-2.3,0.7-4.6,1.1-6.8c0.8-4.6-0.3-8.7-3.8-12c-1.7-1.7-3.5-3.4-5.2-5.1c-2.1-2.2-1.5-4.1,1.4-4.7c2.7-0.5,5.4-0.8,8.1-1.3
		c4-0.8,7.1-3.1,9-6.7c1.1-2.1,2.1-4.3,3.2-6.4c0.6-1.2,1.3-2.7,2.8-2.3c1,0.2,2,1.3,2.6,2.3c1.1,1.9,2,3.9,3,5.9
		c2.2,4.5,5.7,7,10.6,7.6c2.1,0.3,4.2,0.4,6.3,0.9c1.1,0.2,2.6,0.9,2.8,1.7c0.3,0.9-0.4,2.3-1.1,3.2c-1,1.3-2.2,2.4-3.5,3.4
		c-5.1,4.2-6.5,9.5-4.9,15.8c0.4,1.6,0.6,3.2,0.8,4.8c0.4,2.6-1.4,4-3.8,2.8c-2.4-1.1-4.6-2.5-7-3.6C67.7,85.1,65.7,84.7,63.6,84z
		 M63.6,51.1c-3.3,6.8-8.5,10.5-15.9,11.5c5.6,5.2,7.3,11.4,6.1,18.7c6.7-3.6,13.1-3.5,19.6,0c-1.3-7.4,0.6-13.5,6-18.7
		C72,61.6,66.9,57.8,63.6,51.1z"/>
</g>
</svg>
