<?xml version="1.0" encoding="utf-8"?>
<!-- Generator: Adobe Illustrator 21.0.2, SVG Export Plug-In . SVG Version: 6.00 Build 0)  -->
<svg version="1.1" id="Слой_1" xmlns="http://www.w3.org/2000/svg" xmlns:xlink="http://www.w3.org/1999/xlink" x="0px" y="0px"
	 viewBox="0 0 56.7 44.7" style="enable-background:new 0 0 56.7 44.7;" xml:space="preserve">
<style type="text/css">
	.st0{fill:#00CC45;}
</style>
<path class="st0" d="M30.8,37.7c-0.2-0.1-0.4-0.3-0.6-0.4c-2.2,2.1-4.3,4.2-6.5,6.3c-0.7,0.7-1.6,1.1-2.7,1.1
	c-0.7,0-1.1-0.4-1.4-1.1c-1.6-5.1-3.3-10.1-4.9-15.2c-0.2-0.5-0.4-0.7-0.9-0.9c-3.9-1.2-7.7-2.4-11.5-3.6c-0.6-0.2-1.2-0.4-1.7-0.8
	c-0.8-0.5-0.9-1.4-0.2-2c0.7-0.6,1.4-1.1,2.2-1.4c4.7-1.9,9.4-3.7,14.2-5.5c12-4.6,24-9.3,36-13.9c2.3-0.9,4,0.4,3.8,2.8
	c-0.2,1.6-0.6,3.1-0.9,4.7c-2.6,12.3-5.2,24.6-7.8,36.9 M21.2,41c0,0,0.1,0,0.1,0c0-0.1,0.1-0.2,0.1-0.3c0.3-2.8,0.5-5.6,0.8-8.4
	c0.1-0.6,0.3-1.1,0.7-1.5c3.7-3.3,7.4-6.7,11.1-10c4.1-3.7,8.2-7.4,12.3-11.1c0.3-0.2,0.4-0.6,0.5-0.9c-0.4,0-0.8-0.2-1.1-0.1
	c-0.5,0.1-0.9,0.4-1.3,0.7c-9,5.7-18,11.4-27.1,17.1c-0.5,0.3-0.6,0.6-0.4,1.2c0.7,1.9,1.3,3.8,1.9,5.8C19.5,35.9,20.3,38.4,21.2,41
	z"/>
</svg>
