<svg id="Capa_1" enable-background="new 0 0 512 512" height="512" viewBox="0 0 512 512" width="512" xmlns="http://www.w3.org/2000/svg"><circle cx="346" cy="436" r="10"/><path d="m512 226c0-18.604-12.767-34.282-30-38.734v-147.266c0-22.056-17.944-40-40-40h-192c-22.056 0-40 17.944-40 40v116h-15.13c-25.166 0-47.425 16.041-55.387 39.918-8.917 26.747-32.136 45.644-59.483 49.388v-19.306c0-5.523-4.478-10-10-10h-60c-5.522 0-10 4.477-10 10v210c0 5.523 4.478 10 10 10h60c5.522 0 10-4.477 10-10v-20h28.79c10.848 0 21.468 4.4 29.139 12.071 11.393 11.394 27.169 17.929 43.281 17.929h28.79v26c0 22.056 17.944 40 40 40h51c5.522 0 10-4.477 10-10s-4.478-10-10-10h-51c-11.028 0-20-8.972-20-20v-236h20c38.598 0 70-31.402 70-70 0-5.523-4.478-10-10-10h-80v-116c0-11.028 8.972-20 20-20h192c11.028 0 20 8.972 20 20v146h-20c-22.056 0-40 17.944-40 40 0 11.938 5.264 22.665 13.585 30-8.321 7.335-13.585 18.062-13.585 30s5.264 22.665 13.585 30c-8.321 7.335-13.585 18.062-13.585 30s5.264 22.665 13.585 30c-8.321 7.335-13.585 18.062-13.585 30 0 22.056 17.944 40 40 40h20v26c0 11.028-8.972 20-20 20h-51c-5.522 0-10 4.477-10 10s4.478 10 10 10h51c22.056 0 40-17.944 40-40v-27.266c17.233-4.452 30-20.13 30-38.734 0-11.938-5.264-22.665-13.585-30 8.321-7.335 13.585-18.062 13.585-30s-5.264-22.665-13.585-30c8.321-7.335 13.585-18.062 13.585-30s-5.264-22.665-13.585-30c8.321-7.335 13.585-18.062 13.585-30zm-452 200h-40v-190h40zm190-210h-30c-5.522 0-10 4.477-10 10v30c0 27.57-22.43 50-50 50-5.522 0-10 4.477-10 10s4.478 10 10 10c19.572 0 37.284-8.084 50-21.077v121.077h-28.79c-10.848 0-21.468-4.4-29.139-12.071-11.393-11.394-27.169-17.929-43.281-17.929h-28.79v-130.548c35.994-3.853 66.81-28.272 78.456-63.208 5.235-15.697 19.868-26.244 36.414-26.254h104.125c-4.645 22.804-24.849 40.01-48.995 40.01zm242 190c0 11.028-8.972 20-20 20h-30c-11.028 0-20-8.972-20-20s8.972-20 20-20h30c11.028 0 20 8.972 20 20zm0-60c0 11.028-8.972 20-20 20h-30c-11.028 0-20-8.972-20-20s8.972-20 20-20h30c11.028 0 20 8.972 20 20zm0-60c0 11.028-8.972 20-20 20h-30c-11.028 0-20-8.972-20-20s8.972-20 20-20h30c11.028 0 20 8.972 20 20zm-50-40c-11.028 0-20-8.972-20-20s8.972-20 20-20h30c11.028 0 20 8.972 20 20s-8.972 20-20 20z"/><path d="m386 70c0-5.523-4.478-10-10-10h-60c-5.522 0-10 4.477-10 10s4.478 10 10 10h60c5.522 0 10-4.477 10-10z"/><ellipse cx="346" cy="502" rx="10" ry="10" transform="matrix(.707 -.707 .707 .707 -253.627 391.691)"/></svg>