<?xml version="1.0" encoding="utf-8"?>
<!-- Generator: Adobe Illustrator 21.0.2, SVG Export Plug-In . SVG Version: 6.00 Build 0)  -->
<svg version="1.1" id="Слой_1" xmlns="http://www.w3.org/2000/svg" xmlns:xlink="http://www.w3.org/1999/xlink" x="0px" y="0px"
	 viewBox="0 0 56.7 33.1" style="enable-background:new 0 0 56.7 33.1;" xml:space="preserve">
<style type="text/css">
	.st0{fill:#00CC45;}
</style>
<g>
	<path class="st0" d="M21,16.8c0.3-3.7,0.6-7-0.1-10.3c-0.2-0.8-0.4-1.6-1.4-2c-0.9-0.4-0.7-1.4-0.3-1.9c0.6-0.7,1.3-1.4,2.1-1.7
		c3.2-1.2,6.6-1.1,10-0.7c1.2,0.1,1.7,1.1,1.7,2.6c0,3.4,0,6.7,0,10.1c0,0.8,0.2,1.7,0.4,2.5c0.1,0.4,0.4,0.8,0.7,1.3
		c0.5-0.4,0.9-0.7,1.2-1.1c2.5-3.3,5-6.5,7.4-9.8c0.5-0.7,0.8-1.5,1-2.3c0.3-0.8,0.8-1.2,1.6-1.2c3.3,0,6.5,0,9.8,0
		c1.5,0,2,0.8,1.3,2.1c-0.7,1.4-1.6,2.7-2.4,4.1c-2,3-3.9,6.1-6,9.1c-0.7,1-0.6,1.7,0.2,2.5c2.2,2.4,4.3,4.8,6.4,7.2
		c0.5,0.6,0.9,1.1,1.4,1.7c1.4,1.9,0.8,3.6-1.6,3.7c-3.2,0.2-6.3,0.2-9.5,0.2c-0.7,0-1.4-0.5-1.9-0.9c-1.7-1.3-3.3-2.7-5-4.1
		c-0.8-0.6-1.6-1.2-2.5-1.6c-1.2-0.7-1.6-0.4-1.8,1c-0.1,1.1-0.2,2.3-0.4,3.4c-0.3,1.7-1.1,2.3-2.8,2.4c-1.4,0-2.7,0-4.1,0
		c-2.4,0-4.4-1-6.4-2.3c-3-2-5.5-4.5-7.8-7.1C7.6,18.5,3.7,13,1,6.8C0.6,5.9,0.3,5,0.1,4c-0.3-1,0.2-1.6,1.2-1.6c3.1,0,6.1,0,9.2,0
		c0.8,0,1.1,0.5,1.4,1.2c1.5,2.9,2.9,5.9,4.5,8.8c0.6,1.1,1.6,2.1,2.5,3.1C19.4,15.9,20.1,16.2,21,16.8z"/>
</g>
</svg>
