<?xml version="1.0" encoding="UTF-8" standalone="yes"?>
<svg xmlns="http://www.w3.org/2000/svg" viewBox="0 0 50 50" width="50" height="50" fill="#000000">
  <path d="M 4 4 L 4 5 L 4 46 L 13 46 L 13 33 L 15 33 L 15 46 L 24 46 L 24 33 L 26 33 L 26 36 L 35 36 L 35 33 L 36.96875 33 L 39.71875 44 L 49.03125 44 L 46 31.876953 L 46 4 L 4 4 z M 6 6 L 44 6 L 44 31 L 41.107422 31 L 41.607422 33 L 44.21875 33 L 46.46875 42 L 41.28125 42 L 38.53125 31 L 33 31 L 33 34 L 28 34 L 28 31 L 22 31 L 22 44 L 17 44 L 17 31 L 11 31 L 11 44 L 6 44 L 6 6 z M 15 12 L 15 16 L 35 16 L 35 12 L 15 12 z M 15 20 L 15 24 L 35 24 L 35 20 L 15 20 z"/>
</svg>
